/* XPM */
static char *fbbd37d600a44bc7e77613566c3eeb9esEFvOA0VeClOJUld[] = {
/* columns rows colors chars-per-pixel */
"50 50 161 2 ",
"   c None",
".  c #181413",
"X  c #1B1916",
"o  c #1E1B1A",
"O  c #22161A",
"+  c #241C1D",
"@  c #291D1E",
"#  c #24211E",
"$  c #29211C",
"%  c #271B20",
"&  c #2A1D20",
"*  c #262221",
"=  c #2B2424",
"-  c #2C2827",
";  c #2E2728",
":  c #2D2A29",
">  c #302727",
",  c #312A27",
"<  c #322C2C",
"1  c #392F2F",
"2  c #2B3424",
"3  c #2F322A",
"4  c #33302E",
"5  c #39312C",
"6  c #38382F",
"7  c #352E31",
"8  c #3B2F32",
"9  c #363231",
"0  c #3A3434",
"q  c #3C3836",
"w  c #3E333B",
"e  c #3D3A39",
"r  c #422F37",
"t  c #492C3C",
"y  c #413439",
"u  c #423C3C",
"i  c #44403D",
"p  c #494544",
"a  c #4D4847",
"s  c #4E474A",
"d  c #4E4A49",
"f  c #524749",
"g  c #544E4D",
"h  c #465145",
"j  c #565345",
"k  c #55504F",
"l  c #58514B",
"z  c #555352",
"x  c #5B5555",
"c  c #565855",
"v  c #5E5D5C",
"b  c #625E5D",
"n  c #64615F",
"m  c #69665F",
"M  c #615F60",
"N  c #6A5E67",
"B  c #5F6160",
"V  c #656262",
"C  c #696464",
"Z  c #6C6965",
"A  c #6A6668",
"S  c #6D6C6B",
"D  c #716E67",
"F  c #726E6C",
"G  c #6E706F",
"H  c #73716D",
"J  c #6E6F71",
"K  c #726F70",
"L  c #6F7170",
"P  c #747272",
"I  c #797674",
"U  c #7A7A75",
"Y  c #797779",
"T  c #7D7C7C",
"R  c #87847D",
"E  c #858384",
"W  c #898685",
"Q  c #888984",
"!  c #888789",
"~  c #8D8B8B",
"^  c #918E8D",
"/  c #92918E",
"(  c #959493",
")  c #989594",
"_  c #979896",
"`  c #9B9996",
"'  c #9A9798",
"]  c #9A9A9A",
"[  c #A19E9D",
"{  c #A3A3A2",
"}  c #A8A7A5",
"|  c #AAA9A6",
" . c #ACABAA",
".. c #B4B4B4",
"X. c #B8BAB7",
"o. c #BEBDBD",
"O. c #C0BEBE",
"+. c #BFC0BE",
"@. c #C1C1BF",
"#. c #BEBFC0",
"$. c #C1BFC0",
"%. c #C1BFC0",
"&. c #BEC2C1",
"*. c #C0C0C0",
"=. c #C1C1C1",
"-. c #C2C0C1",
";. c #C3C2C0",
":. c #C3C3C1",
">. c gray76",
",. c #C3C3C3",
"<. c #C4C3C1",
"1. c #C5C5C3",
"2. c gray77",
"3. c #C5C5C5",
"4. c #C1C1C1",
"5. c #C8C7C5",
"6. c #C8C7C5",
"7. c #CAC9C7",
"8. c #CAC9C7",
"9. c #CDCDCD",
"0. c #CDCCCB",
"q. c #D0CECF",
"w. c #D0D0D0",
"e. c #D7D7D7",
"r. c #D5D7D4",
"t. c #D6D5D4",
"y. c #D9D8D6",
"u. c #D9D7D8",
"i. c #DFDFDF",
"p. c #DCDBD9",
"a. c #E0DFDD",
"s. c #E1E3E0",
"d. c #E3E3E1",
"f. c #E3E3E3",
"g. c gray88",
"h. c #E4E4E4",
"j. c #E8E6E7",
"k. c #ECECEA",
"l. c #EEEDED",
"z. c #ECECEC",
"x. c #F0F0EE",
"c. c #F0F0EE",
"v. c #F1F1F1",
"b. c #F3F2F0",
"n. c gray95",
"m. c #F6F5F3",
"M. c #F4F4F4",
"N. c #F5F6F5",
"B. c #F8F6F7",
"V. c #F8F8F6",
"C. c #F9F9F9",
"Z. c #FBFBF9",
"A. c #FBFBFB",
"S. c #FCFBF9",
"D. c #FDFCFA",
"F. c gray99",
"G. c #FFFEFC",
"H. c #FEFFFD",
"J. c #FEFEFE",
"K. c #FDFEFC",
"L. c #FBFBFB",
/* pixels */
"                                                                                                    ",
"                                                                                                    ",
"                                                                                                    ",
"      t 5 @ b A f & = & y w 0 y y > > 0 w 0 0 7 & + + @ + O + @ + + @ + @ % % @ @ O + = @ @ 1 r     ",
"      1 2 ( ' ( ' ( ( ' ~ T V P ~ ( _ z 0 0 : Y ^ ` / / ( / ) ) ) ` / ( ^ ( ) ( ( ( _ ( ' F j 5     ",
"      0 / ' ( i.n.v.2.] ( ( ] ] ] ] ( Q * q 2 ( ( / ` ( ) ( / ) ( ) ( ` _ ` ) ( ( ( _ ] S K H =     ",
"      $ ( ( 9.,.3.2.e.z.M.A.C.l.g.J.P S X 9 e ! ^ ) s.S.D.c.k.c.l.c.m.V.D.J.S.S.J.J.C.f.S L H +     ",
"      + ( ( &.#.,.%.&.#.o.X.>.>.o.9.E F # 9 e G H 8.@.@.+.+.+.+.O.O.@.@.@.@.@.O.o.o.>.w.g.J H +     ",
"      @ ( P >.>.>.>.$.>.X.#.>.$.+.+.} G o 9 4 P G @.1.@.@.+.@.@.@.>.@.@.-.@.O.-.-.>.>.>.b.G F +     ",
"      @ _ A &.&.@.&.>.o.o.$.>.>.&.>._ P o 0 = K P @.@.@.>.>.>.>.>.$.>.>.>.-.&.@.>.#.,.1.D.G m @     ",
"      @ ( P #.>.>.>.>.>.>.>.>.>.>.>.{ G o 0 * F F >.>.>.@.>.&.>.>.&.+.>.>.>.>.>.>.>.>.&.J.S H =     ",
"      @ / K >.,.#.>.o.>.>.>.+.O.+.>.s.L X 0 + I H @.@.>.>.&.>.@.$.>.>.>.@.>.@.>.>.>.>.,.Z.G U ;     ",
"      @ ) F $.>.>.>.>.$.>.>.>.>.>.o.J.S z q = F H 6.@.>.>.>.#.>.>.&.$.O.#.>.>.>.>.>.&.o.i.L H :     ",
"      @ ~ S o.o.>.O.>.>.>.$.$.&.>.>.D.U H < 4 S P | +.>.+.>.O.>.>.O.>.>.>.>.+.O.O.>.$.>.#.S R 7     ",
"      > Y A #.$.>.$.$.-.$.$.>.>.>.>.r.T G = < z P ] X.>.>.>.>.>.>.>.>.o.>.O.>.>.$.>.>.>.{ L C s     ",
"      , S P >.$.$.>.-.-.$.>.>.$.>.>.X./ S = 0 = F H 1.$.&.>.o.>.#.>.>.>.>.>.$.&.>.>.>.o.~ P b e     ",
"      < A C O.@.>.#.$.>.$.#.>.O.>.&.0.S v 4 q # P H @.>.@.+.>.>.>.&.$.O.>.>.>.+.>.>.&.>.E J C 9     ",
"      0 A V v v v M V V V V C V A E c Z V < 0 4 S H +.&.>.>.o.>.>.>.>.>.>.#.>.O.>.$.>.o.[ L S 7     ",
"      0 4 P Z n b C C S C V V V V v B n n - 0 9 z S ( >.>.>.>.>.>.o.o.>.>.>.&.>.o.>.>.>. .S Z 1     ",
"      7 0 # X # # * = = : : ; = # * + # = 4 0 9 u H ~ >.O.$.&.>.>.>.>.>.O.>.$.>.>.>.>.$.+.H Z >     ",
"      y 0 6 q 9 0 0 0 9 0 0 9 < 9 4 0 0 < 0 < 9 < S ! $.>.$.>.>.>.>.$.$.$.>.&.>.>.>.>.>.t.S H -     ",
"      0 0 + : 9 i n I ^ / ' ) / ) / ) W g * 9 9 : G Q >.>.&.>.O.+.>.>.&.>.>.$.$.>.#.$.>.z.L D -     ",
"      y * ` ) ^ ) _ ) ) ) ) _ ( ) ) ) _ ( ( . 9 = H E @.>.>.>.+.O.>.>.>.&.$.&.>.>.>.$.#.C.G Z -     ",
"      y * Q / ( ] ( ( ] ' ( ( ( ( _ ( ( ( I x 9 * G S $.$.$.>.$.>.>.#.O.>.>.>.>.O.>.$.1.j.A H =     ",
"      y - Z ( h.M.A.J.A.J.C.C.C.F.Z.m.c.F H P - # G H >.O.$.$.$.>.>.>.>.&.>.&.>.%.%.%.1.X.V H =     ",
"      8 : H ] &.>.>.>.$.$.&.>.#.&.>.@.r.p.F H * # P G ~ 3.o.$.$.>.+.o.>.o.@.,.&.6.1.$.$.V b D =     ",
"      y : H ] @.,.>.>.$.>.>.&.>.>.>.o.o.J.P P - 3 G Z b C J I x v V B n M v V C K Y Y S A v D ;     ",
"      y 4 G [ >.$.#.>.>.>.$.$.>.>.@.>.>.g.T P : 9 9 F V b b V C Z Z F H F S C b b M b b v v l 0     ",
"      w 4 Z { @.,.$.>.>.&.>.>.>.&.>.o.>.o.( P : 0 q = v K A n # X # = # o = = 0 s S K S I b $ 0     ",
"      y 9 G | @.$.$.>.#.$.>.O.$.>.$.#.>.3.] S < 6 9 6 0 0 9 9 0 0 0 6 0 0 0 9 0 0 0 < < > 9 q 0     ",
"      y 4 D | >.>.>.>.>.>.>.>.&.+.>.>.>.>.` S 4 0 6 4 9 0 0 0 q 4 q 9 9 e e 0 q q 9 9 0 6 0 y 0     ",
"      0 9 G | >.$.>.o.>.>.o.$.>.>.>.O.>.>.` S 4 0 4 i d x S C c 6 # # # # : 9 q u p a v a 4 $ 8     ",
"      y 9 S } >.$.>.>.$.>.$.>.>.+.>.&.&.3.( K < 0 % ( ] ) / ) ( ) / ( ) ) ` ` ) ) / / ) E K F <     ",
"      y 4 S | @.$.&.>.$.&.>.>.#.>.>.&.&.-.! K : 9 + ~ ( ` q.y.a.r.@.| |  ...@.@.1.t.q...Y S F 0     ",
"      y 9 S  .%.$.>.>.&.>.>.>.O.>.O.&.&.-.Q I < 0 * F / q.0.6.3.6.r.p.y.q.8.8.6.1.>.3.u.J.P H =     ",
"      y 9 I  .%.,.$.$.>.O.#.>.>.>.$.&.>.3.W A : 0 + H P -.1.O.>.@.@.@.@.@.@.-.@.@.>.-.O.V.H H =     ",
"      8 e I X.$.$.&.O.>.>.o.>.>.>.>.&.&.$.! V : 9 # K Y 8.>.#.>.@.>.>.O.>.>.>.#.$.>.>.&...G H <     ",
"      y c A #.,.>.>.>.>.>.>.&.>.#.>.&.&.,.E C : 9 # P S 6.&.>.>.>.@.>.$.$.&.>.>.>.>.>.,.S L C 9     ",
"      y Y J #.%.>.o.&.$.o.>.$.>.$.>.&.>.1.E A : 9 * F P ..>.$.$.>.>.>.&.>.>.>.o.&.>.>.9.S G H 5     ",
"      + K P ,.&.>.>.>.>.>.>.O.>.>.&.&.$.,.T V : 0 # H L [ &.>.&.@.>.@.>.>.o.>.>.>.$.>.8.P F H <     ",
"      = S P -.@.>.>.>.#.>.>.>.&.>.$.&.&.1.Y b ; 0 # P A ..$.,.%.o.>.O.>.$.&.>.>.>.O.>.o.( S I :     ",
"      % P H O.@.@.o.>.$.>.O.>.$.>.$.&.>.1.I b = 0 + P P o.,.#.,.>.>.>.>.>.>.$.#.>.&.>.O.' V D -     ",
"      & L S @.@.>.>.@.>.>.>.>.O.>.&.&.$.%.K M * 0 # K P #.>.,.#.>.>.>.#.>.O.>.>.>.&.>.O.[ B D :     ",
"      O P P ..o.@.>.>.o.o.o.>.>.$.>.#.,.%.A M & e o K S 1.#.%.,.>.#.>.+.>.>.$.>.+.&.>.>.{ v H ;     ",
"      y V A B 1.1.$.$.o.o.#.,.,.$.-.O.,.3.A C + 0 * P J 1.%.%.%.>.>.>.#.&.>.>.&.>.&.-.-.A v D >     ",
"      y = Y C B ~ X.>.o...{ ! E E W Q E J M A @ 9 : P P S ' o.#.>.$.,.1.3.&.&.&.#.$.1.! v N U :     ",
"      w 6 $ H C N b n C b C M b n b M b g F b 9 0 + K P F D M V b b V M n n v b v b b C A F h 9     ",
"      y 0 1 @ > 0 0 0 < 1 , = & O O @ @ + @ 8 0 0 1 + < u f b C b b b x k g a a g x C b g > 3 0     ",
"                                                                                                    ",
"                                                                                                    "
};
