/* XPM */
static char *c67b6bc8637b4c54cfb4e736a27ffadbEjhLJ4AnSxOSeUSj[] = {
/* columns rows colors chars-per-pixel */
"50 50 119 2 ",
"   c None",
".  c #BFA727",
"X  c #BAAB2D",
"o  c #BEA53D",
"O  c #B8AA39",
"+  c #CF9F39",
"@  c #C2A522",
"#  c #CAA421",
"$  c #C5A62E",
"%  c #CAA32C",
"&  c #CAAA2B",
"*  c #D1A62C",
"=  c #C5A534",
"-  c #CAA533",
";  c #C6AB34",
":  c #C4A43B",
">  c #CAA43B",
",  c #C4A93C",
"<  c #CAAB39",
"1  c #D0A533",
"2  c #D1AB3A",
"3  c #D8B238",
"4  c #F6BE30",
"5  c #ECC526",
"6  c #ECC32E",
"7  c #F4C52D",
"8  c #F6D228",
"9  c #E4C536",
"0  c #EDC434",
"q  c #E5CA34",
"w  c #EDCA32",
"e  c #E4C43D",
"r  c #ECC33A",
"t  c #E7CF3D",
"y  c #EDC83F",
"u  c #F2C231",
"i  c #F4CE35",
"p  c #F8CF36",
"a  c #F2CC39",
"s  c #EAD03F",
"d  c #F3D334",
"f  c #F1D33C",
"g  c #F9D739",
"h  c #FDDE3F",
"j  c #F6E635",
"k  c #F9E534",
"l  c #FAE836",
"z  c #F5E53D",
"x  c #FBE33C",
"c  c #BEA742",
"v  c #B6AB40",
"b  c #BFA549",
"n  c #BDAA4A",
"m  c #C2A441",
"M  c #CCA441",
"N  c #C4AA42",
"B  c #C4A34A",
"V  c #C9A34E",
"C  c #C5A94B",
"Z  c #D1A343",
"A  c #C3A454",
"S  c #E4BC46",
"D  c #F5BD48",
"F  c #E2C242",
"G  c #EFC146",
"H  c #F6CE43",
"J  c #EFDA4E",
"K  c #F4D043",
"L  c #F5D845",
"P  c #FCDE43",
"I  c #F5D44A",
"U  c #F3DA48",
"Y  c #FADF4E",
"T  c #FBDF53",
"R  c #F6E343",
"E  c #FAE241",
"W  c #F6E24C",
"Q  c #FAE24B",
"!  c #EDE454",
"~  c #F6E552",
"^  c #FAE452",
"/  c #FEEB55",
"(  c #F1E558",
")  c #FDEB5B",
"_  c #FBF35D",
"`  c #F4DD61",
"'  c #F0DF73",
"]  c #F1E366",
"[  c #FEED64",
"{  c #FAE76A",
"}  c #F7E96E",
"|  c #FEEE6B",
" . c #FEF162",
".. c #FDF06A",
"X. c #FEED72",
"o. c #FEEB7D",
"O. c #FBF072",
"+. c #F2F586",
"@. c #F7F891",
"#. c #FDF994",
"$. c #FBF09D",
"%. c #FEF89E",
"&. c #FAF2A9",
"*. c #FEFAAB",
"=. c #FFF7B3",
"-. c #FEFAB4",
";. c #FCF6B9",
":. c #F6FBBC",
">. c #FCF9BC",
",. c #FFF7C3",
"<. c #F5FCC2",
"1. c #FCF8C2",
"2. c #FEF3CB",
"3. c #FFFBDB",
"4. c #FFFBE4",
"5. c #FFF5EF",
"6. c #FFFDED",
"7. c #FDFCF2",
"8. c #FFFBFA",
/* pixels */
"                                                                                                    ",
"                                                                                                    ",
"                                                                                                    ",
"                                                                                                    ",
"                                                                                                    ",
"                                                                                                    ",
"                                                                                                    ",
"                                                                                                    ",
"                                                                                                    ",
"                                                                                                    ",
"                                                                                                    ",
"                                                                                                    ",
"                                      V : 2 - = : > % : - <                                         ",
"                                  N $ > : e 6 4 6 4 u r F e A 1                                     ",
"                                : % D - > { X.#.:.@.+.>.4.;.6.O v                                   ",
"                              m - 9 7 - X.O.| ^ x E h R ( ,.7.8.7.c                                 ",
"                            Z $ H 8 > R x R R E x Q E x R E R E 7.8.X                               ",
"                          > . K 0 = Q x h E x x )  .) R x x P E E :.7.,                             ",
"                          1 r 4 ; 5.z P R _ | | I r 0 a O.|  .E R P X._ n                           ",
"                        C = 4 : 4.! W x [ O.U i d i p a 6 F | ..Q z 3.6.B                           ",
"                        > u 5 : 8.W k X.| ^ P E E x E h d 0 F | | z ` 6.A B                         ",
"                        > 6 : 3.' R l o.~ R R E E E E E h p w r O.R x ] $.C                         ",
"                        - 5 b 6.j R / X.R E z P x E R x x P i 6 K ) x R *.N                         ",
"                        : 5 : &.R R X.Q R E R x E E x R R P P i 5 X.Y l *.B                         ",
"                        1 3 = | x E | R E E E E x E x E E x P p u ) E E *.,                         ",
"                        > > : X.E E | R E x E x E E E E E R P p u E P x =.N                         ",
"                        ; 2 ; / R E ..R x R E E x E x E E R E p u R h R *.,                         ",
"                        - S % R x E | E E x E E E E R x x R E p 0 R P Q %.;                         ",
"                        > % $ h E Y ) R E x E x E E x R E E E i q o.k | } ;                         ",
"                        & G : T x l z Q R R E E E x E E E P i 0 X...k | , m                         ",
"                        C - M $ P x E [ Q R E E x E E E P p 0 9 } j ! X.=                           ",
"                          m > : E E R z [ Q x E x E x h i 7 9 | | x ,.-.C                           ",
"                            , > - Q l P E x f h P x g 0 r q | | l R *.b                             ",
"                              : M - ^ l E R ) U w 0 r y ..| | j R [ 2.c                             ",
"                                o - > Q P x R x / [ [ ..[ z W X./ <.#                               ",
"                                  N > $ - L Q R R Y Q R h Y | ..= =                                 ",
"                                    m > < : = t x x x z E Q < N                                     ",
"                                        V = - - = - - - @ N                                         ",
"                                                                                                    ",
"                                                                                                    ",
"                                                                                                    ",
"                                                                                                    ",
"                                                                                                    ",
"                                                                                                    ",
"                                                                                                    ",
"                                                                                                    ",
"                                                                                                    ",
"                                                                                                    ",
"                                                                                                    ",
"                                                                                                    "
};
