/* XPM */
static char *result[] = {
/* columns rows colors chars-per-pixel */
"50 50 124 2 ",
"   c #F9B723",
".  c #F4B32C",
"X  c #FCBC2D",
"o  c #EDB53B",
"O  c #F6B632",
"+  c #FBB734",
"@  c #FCBB36",
"#  c #F7B63C",
"$  c #FCB63B",
"%  c #F7BB3A",
"&  c #FCBC3C",
"*  c #EFC72D",
"=  c #F9CC2E",
"-  c #E6CE3A",
";  c #EEC83B",
":  c #F4C534",
">  c #FBC435",
",  c #FECD35",
"<  c #F1C43E",
"1  c #FBC33B",
"2  c #FDCB3C",
"3  c #FDD335",
"4  c #F9DE36",
"5  c #FDD33D",
"6  c #9F8C7D",
"7  c #E3A443",
"8  c #E5AF4E",
"9  c #EABB47",
"0  c #E9B24A",
"q  c #ECB84F",
"w  c #F4B544",
"e  c #FCB543",
"r  c #F5BA43",
"t  c #FCBC43",
"y  c #F5B54C",
"u  c #FDB04C",
"i  c #F2BD4D",
"p  c #FCBA49",
"a  c #E7B553",
"s  c #F1B352",
"d  c #F5B855",
"f  c #F2B45B",
"g  c #FFBE5E",
"h  c #EFC345",
"j  c #FBC345",
"k  c #F6CA43",
"l  c #FCCB44",
"z  c #F7C048",
"x  c #FCC44B",
"c  c #F4CE4F",
"v  c #FCC94D",
"b  c #F6D443",
"n  c #FBD443",
"m  c #F7D846",
"M  c #FFDF40",
"N  c #F4D34A",
"B  c #F9D34A",
"V  c #EBC753",
"C  c #EDC35D",
"Z  c #FCCB55",
"A  c #FBC659",
"S  c #FCCC5B",
"D  c #EDDE5A",
"F  c #F3D354",
"G  c #FBD453",
"H  c #F5D854",
"J  c #FDD15D",
"K  c #F7D959",
"L  c #FADD5B",
"P  c #FDCE61",
"I  c #FECE6D",
"U  c #F7D260",
"Y  c #FCD363",
"T  c #F7DC66",
"R  c #FCDD64",
"E  c #FCD56B",
"W  c #F7DD6A",
"Q  c #FEDA6D",
"!  c #F5CE72",
"~  c #F9CF72",
"^  c #FECC7C",
"/  c #FED674",
"(  c #FDDB74",
")  c #F4D97D",
"_  c #FEDE7B",
"`  c #F9E366",
"'  c #F7E26F",
"]  c #FDE26E",
"[  c #FEE474",
"{  c #FEE972",
"}  c #F6E17D",
"|  c #FDE27C",
" . c #FFEC79",
".. c #BCAD8A",
"X. c #C5B496",
"o. c #CABB9A",
"O. c #F5DB84",
"+. c #FBDE83",
"@. c #F7D996",
"#. c #F3E582",
"$. c #FEE384",
"%. c #FCEB85",
"&. c #F3E18B",
"*. c #FDE68C",
"=. c #FCEB8D",
"-. c #FEF28D",
";. c #F4E593",
":. c #FEE591",
">. c #F5E994",
",. c #FCEB93",
"<. c #FBED9E",
"1. c #FEF395",
"2. c #D1C2A3",
"3. c #EAD8A9",
"4. c #EEDEBB",
"5. c #F6E4A7",
"6. c #FCECA2",
"7. c #F2E4A9",
"8. c #FAEAAB",
"9. c #FEF3A9",
"0. c #FBEDB4",
"q. c #F0E5BC",
"w. c #F5F2BF",
"e. c None",
/* pixels */
"e.e.e.e.e.e.e.e.e.e.e.e.e.e.e.e.e.e.e.e.e.e.e.e.e.e.e.e.e.e.e.e.e.e.e.e.e.e.e.e.e.e.e.e.e.e.e.e.e.e.",
"e.e.e.e.e.e.e.e.e.e.e.e.e.e.e.e.e.e.e.e.e.e.e.e.e.e.e.e.e.e.e.e.e.e.e.e.e.e.e.e.e.e.e.e.e.e.e.e.e.e.",
"e.e.e.e.e.e.e.e.e.e.e.e.e.e.e.e.e.e.e.e.e.e.e.e.e.e.e.e.e.e.e.e.e.e.e.e.e.e.e.e.e.e.e.e.e.e.e.e.e.e.",
"e.e.e.e.e.e.e.e.e.e.e.e.e.e.e.e.e.e.e.e.e.e.e.e.e.e.e.e.e.e.e.e.e.e.e.e.e.e.e.e.e.e.e.e.e.e.e.e.e.e.",
"e.e.e.e.e.e.e.e.e.e.e.e.e.e.e.e.e.e.e.e.e.e.e.e.e.e.e.e.e.e.e.e.e.e.e.e.e.e.e.e.e.e.e.e.e.e.e.e.e.e.",
"e.e.e.e.e.e.e.e.e.e.e.e.e.e.e.e.e.e.e.e.e.e.e.e.e.e.e.e.e.e.e.e.e.e.e.e.e.e.e.e.e.e.e.e.e.e.e.e.e.e.",
"e.e.e.e.e.e.e.e.e.e.e.e.e.e.e.e.e.e.e.e.e.e.e.e.e.e.e.e.e.e.e.e.e.e.e.e.e.e.e.e.e.e.e.e.e.e.e.e.e.e.",
"e.e.e.e.e.e.e.e.e.e.e.e.e.e.e.e.e.e.e.e.e.e.e.e.e.e.e.e.e.e.e.e.e.e.e.e.e.e.e.e.e.e.e.e.e.e.e.e.e.e.",
"e.e.e.e.e.e.e.e.e.e.e.e.e.e.e.e.e.e.e.e.e.e.e.e.e.e.e.e.e.e.e.e.e.e.e.e.e.e.e.e.e.e.e.e.e.e.e.e.e.e.",
"e.e.e.e.e.e.e.e.e.e.e.e.e.e.e.e.e.e.e.e.e.e.e.e.e.e.e.e.e.e.e.e.e.e.e.e.e.e.e.e.e.e.e.e.e.e.e.e.e.e.",
"e.e.e.e.e.e.e.e.e.e.e.e.e.e.e.e.e.e.e.e.e.e.e.e.e.e.e.e.e.e.e.e.e.e.e.e.e.e.e.e.e.e.e.e.e.e.e.e.e.e.",
"e.e.e.e.e.e.e.e.e.e.e.e.e.e.e.e.e.e.e.e.e.e.e.e.e.e.e.e.e.e.e.e.e.e.e.e.e.e.e.e.e.e.e.e.e.e.e.e.e.e.",
"e.e.e.e.e.e.e.e.e.e.e.e.e.e.e.e.e.e.e.e.e.e.e.2.2.o...X.6 e.e.e.e.e.e.e.e.e.e.e.e.e.e.e.e.e.e.e.e.e.",
"e.e.e.e.e.e.e.e.e.e.e.e.e.e.e.e.e.e.e.e.0.8.9.<.<.<.6.6.8.0.3.e.e.e.e.e.e.e.e.e.e.e.e.e.e.e.e.e.e.e.",
"e.e.e.e.e.e.e.e.e.e.e.e.e.e.e.e.e.e.0.<.>.>.1.=.=.1.,.,.=.1.<.7.q.e.e.e.e.e.e.e.e.e.e.e.e.e.e.e.e.e.",
"e.e.e.e.e.e.e.e.e.e.e.e.e.e.e.e.w.>.1.-.#.%.%.-.%.=.,.=.%.-.=.,.&.9.e.e.e.e.e.e.e.e.e.e.e.e.e.e.e.e.",
"e.e.e.e.e.e.e.e.e.e.e.e.e.e.e.5.;.%.%.=.:.=.=.=.:.:.,.,.,.*.%. .{ ` D e.e.e.e.e.e.e.e.e.e.e.e.e.e.e.",
"e.e.e.e.e.e.e.e.e.e.e.e.e.e.<.&.-.%.=.:.:.=.*.=.:.:.:.:.:.%.T H m M 4 - e.e.e.e.e.e.e.e.e.e.e.e.e.e.",
"e.e.e.e.e.e.e.e.e.e.e.e.e.4.&.,.,.$.$.$.$.%.*.$.*.$.$.{ L m m n 5 5 , M F e.e.e.e.e.e.e.e.e.e.e.e.e.",
"e.e.e.e.e.e.e.e.e.e.e.e.e.' | $.$.$.$.| | $.$.$.[ { L m 5 5 5 5 5 5 3 n b H e.e.e.e.e.e.e.e.e.e.e.e.",
"e.e.e.e.e.e.e.e.e.e.e.e.e.] | $.$.$.$.| | $._ | [ K B n 5 5 5 n 5 5 3 n n N e.e.e.e.e.e.e.e.e.e.e.e.",
"e.e.e.e.e.e.e.e.e.e.e.e.@.W | | | +._ | | _ | ] F c 5 5 5 5 5 5 5 5 5 l 5 b e.e.e.e.e.e.e.e.e.e.e.e.",
"e.e.e.e.e.e.e.e.e.e.e.e.+.[ _ ( _ _ _ ( ( ] Q F B 2 , 3 5 2 5 2 2 5 n l 3 3 V e.e.e.e.e.e.e.e.e.e.e.",
"e.e.e.e.e.e.e.e.e.e.e.e._ ( Q ( ( ( / ( Q R F k 2 2 2 , 2 5 2 2 5 2 v 2 , , ; e.e.e.e.e.e.e.e.e.e.e.",
"e.e.e.e.e.e.e.e.e.e.e.*.T / Q Q ( / Q Q Q G k 2 2 2 2 2 2 2 2 2 2 2 l , 2 j * e.e.e.e.e.e.e.e.e.e.e.",
"e.e.e.e.e.e.e.e.e.e.e.} K ~ E Q Q / Q Q Y k 2 2 > 2 2 2 2 2 2 2 2 k v = 1 x , e.e.e.e.e.e.e.e.e.e.e.",
"e.e.e.e.e.e.e.e.e.e.e.) U ^ Y Y E E Y J v 2 2 1 2 2 2 2 2 k k 1 2 1 l = 2 j * e.e.e.e.e.e.e.e.e.e.e.",
"e.e.e.e.e.e.e.e.e.e.e.O.U I Y Y I P J Z j 1 > 1 1 1 1 1 1 1 2 1 2 1 x > > j : e.e.e.e.e.e.e.e.e.e.e.",
"e.e.e.e.e.e.e.e.e.e.e.e.E U J J P P S x j 1 1 1 > 1 1 1 1 1 h 1 1 h j 1 > > h e.e.e.e.e.e.e.e.e.e.e.",
"e.e.e.e.e.e.e.e.e.e.e.e.! F Z S P P Z h j 1 1 1 1 & 1 1 1 1 & 1 1 1 t t > > ~ e.e.e.e.e.e.e.e.e.e.e.",
"e.e.e.e.e.e.e.e.e.e.e.e.e.c Z Z S S x t 1 1 1 > & 1 & 1 & 1 1 & 1 & > t > < e.e.e.e.e.e.e.e.e.e.e.e.",
"e.e.e.e.e.e.e.e.e.e.e.e.e.c v Z Z Z p 1 @ % & % & % 1 & & & & & & & X & % h e.e.e.e.e.e.e.e.e.e.e.e.",
"e.e.e.e.e.e.e.e.e.e.e.e.e.e.0 A S A i &   @ @ > & > @ @ @ & p p t & @ . 9 e.e.e.e.e.e.e.e.e.e.e.e.e.",
"e.e.e.e.e.e.e.e.e.e.e.e.e.e.C h x p p t & $ & & & $ $ & & & $ t $ e & t e.e.e.e.e.e.e.e.e.e.e.e.e.e.",
"e.e.e.e.e.e.e.e.e.e.e.e.e.e.e.C 1 & $ t e $ $ $ r r e e & + X + @ e o C e.e.e.e.e.e.e.e.e.e.e.e.e.e.",
"e.e.e.e.e.e.e.e.e.e.e.e.e.e.e.e.y t $ $ & + + @ $ $ $ $ $ X     & y a e.e.e.e.e.e.e.e.e.e.e.e.e.e.e.",
"e.e.e.e.e.e.e.e.e.e.e.e.e.e.e.e.e.e.s r % & O + @ @ + @ # O . r 8 e.e.e.e.e.e.e.e.e.e.e.e.e.e.e.e.e.",
"e.e.e.e.e.e.e.e.e.e.e.e.e.e.e.e.e.e.e.e.q w w e $ $ $ # w y f e.e.e.e.e.e.e.e.e.e.e.e.e.e.e.e.e.e.e.",
"e.e.e.e.e.e.e.e.e.e.e.e.e.e.e.e.e.e.e.e.e.7 g u u e e w s e.e.e.e.e.e.e.e.e.e.e.e.e.e.e.e.e.e.e.e.e.",
"e.e.e.e.e.e.e.e.e.e.e.e.e.e.e.e.e.e.e.e.e.e.e.e.e.e.e.e.e.e.e.e.e.e.e.e.e.e.e.e.e.e.e.e.e.e.e.e.e.e.",
"e.e.e.e.e.e.e.e.e.e.e.e.e.e.e.e.e.e.e.e.e.e.e.e.e.e.e.e.e.e.e.e.e.e.e.e.e.e.e.e.e.e.e.e.e.e.e.e.e.e.",
"e.e.e.e.e.e.e.e.e.e.e.e.e.e.e.e.e.e.e.e.e.e.e.e.e.e.e.e.e.e.e.e.e.e.e.e.e.e.e.e.e.e.e.e.e.e.e.e.e.e.",
"e.e.e.e.e.e.e.e.e.e.e.e.e.e.e.e.e.e.e.e.e.e.e.e.e.e.e.e.e.e.e.e.e.e.e.e.e.e.e.e.e.e.e.e.e.e.e.e.e.e.",
"e.e.e.e.e.e.e.e.e.e.e.e.e.e.e.e.e.e.e.e.e.e.e.e.e.e.e.e.e.e.e.e.e.e.e.e.e.e.e.e.e.e.e.e.e.e.e.e.e.e.",
"e.e.e.e.e.e.e.e.e.e.e.e.e.e.e.e.e.e.e.e.e.e.e.e.e.e.e.e.e.e.e.e.e.e.e.e.e.e.e.e.e.e.e.e.e.e.e.e.e.e.",
"e.e.e.e.e.e.e.e.e.e.e.e.e.e.e.e.e.e.e.e.e.e.e.e.e.e.e.e.e.e.e.e.e.e.e.e.e.e.e.e.e.e.e.e.e.e.e.e.e.e.",
"e.e.e.e.e.e.e.e.e.e.e.e.e.e.e.e.e.e.e.e.e.e.e.e.e.e.e.e.e.e.e.e.e.e.e.e.e.e.e.e.e.e.e.e.e.e.e.e.e.e.",
"e.e.e.e.e.e.e.e.e.e.e.e.e.e.e.e.e.e.e.e.e.e.e.e.e.e.e.e.e.e.e.e.e.e.e.e.e.e.e.e.e.e.e.e.e.e.e.e.e.e.",
"e.e.e.e.e.e.e.e.e.e.e.e.e.e.e.e.e.e.e.e.e.e.e.e.e.e.e.e.e.e.e.e.e.e.e.e.e.e.e.e.e.e.e.e.e.e.e.e.e.e.",
"e.e.e.e.e.e.e.e.e.e.e.e.e.e.e.e.e.e.e.e.e.e.e.e.e.e.e.e.e.e.e.e.e.e.e.e.e.e.e.e.e.e.e.e.e.e.e.e.e.e."
};
