/* XPM */
static char *result[] = {
/* columns rows colors chars-per-pixel */
"50 50 191 2 ",
"   c #6B4313",
".  c #736213",
"X  c #756318",
"o  c #76671A",
"O  c #76641C",
"+  c #77641F",
"@  c #765E38",
"#  c #73622C",
"$  c #E7AE38",
"%  c #ECAE3F",
"&  c #F2AE3E",
"*  c #E4B333",
"=  c #E3B437",
"-  c #E6B638",
";  c #E8B43D",
":  c #E6BA3F",
">  c #E5BE3F",
",  c #E6BF3F",
"<  c #EFBE3C",
"1  c #EFBE3E",
"2  c #F3B23C",
"3  c #F2B93F",
"4  c #F2BD3C",
"5  c #F4BD3E",
"6  c #F8BF3F",
"7  c #FBDD2F",
"8  c #E6C33F",
"9  c #FCCD37",
"0  c #F0C33D",
"q  c #F1C13F",
"w  c #F1C23E",
"e  c #F5C03E",
"r  c #F5C23F",
"t  c #FCC73F",
"y  c #F6C83B",
"u  c #F4CC3A",
"i  c #F2CA3F",
"p  c #F5CC3F",
"a  c #FBCE38",
"s  c #FCCD39",
"d  c #FCCE3B",
"f  c #FFCE3C",
"g  c #FFCF3C",
"h  c #FFCD3E",
"j  c #EEDE3E",
"k  c #F6D731",
"l  c #F5D532",
"z  c #F3D134",
"x  c #F6DC33",
"c  c #F7DA36",
"v  c #F5DE37",
"b  c #F8D930",
"n  c #FDDB34",
"m  c #FADE35",
"M  c #F6D039",
"N  c #F6D339",
"B  c #F6D33B",
"V  c #F6D13E",
"C  c #F6D43F",
"Z  c #F8D539",
"A  c #FFD03D",
"S  c #FCD33C",
"D  c #FED03E",
"F  c #FDD23E",
"G  c #FCD63F",
"H  c #F3DA38",
"J  c #FAD839",
"K  c #FFDB3E",
"L  c #FFDC3F",
"P  c #F2E024",
"I  c #F2E138",
"U  c #F0AE49",
"Y  c #E5BC40",
"T  c #EDBE46",
"R  c #EFB349",
"E  c #EEBD49",
"W  c #EEBF48",
"Q  c #F5B144",
"!  c #F1B446",
"~  c #F7B940",
"^  c #F5BF40",
"/  c #F8BE41",
"(  c #F9BB44",
")  c #F7B048",
"_  c #FBB648",
"`  c #F0BB4B",
"'  c #F0BD4A",
"]  c #F1BC4B",
"[  c #F1B94C",
"{  c #FAB848",
"}  c #FCBF4A",
"|  c #FEBD4F",
" . c #E2AE53",
".. c #EAB156",
"X. c #E7BC50",
"o. c #E9BB51",
"O. c #E9BF56",
"+. c #EDBA5B",
"@. c #EEBD59",
"#. c #FEBC51",
"$. c #FDBD52",
"%. c #FFB855",
"&. c #F3B65C",
"*. c #FCBA59",
"=. c #D8AA68",
"-. c #DAAF6B",
";. c #D8A96E",
":. c #D5B267",
">. c #DDBD66",
",. c #DDB16E",
"<. c #DBBA6A",
"1. c #DCAD70",
"2. c #D5B770",
"3. c #D7B573",
"4. c #D6B474",
"5. c #DBB170",
"6. c #D8B373",
"7. c #D8B673",
"8. c #D7BA74",
"9. c #D8B975",
"0. c #E0AD6D",
"q. c #ECB56A",
"w. c #F9BD67",
"e. c #E5BD7B",
"r. c #E8C641",
"t. c #EAC641",
"y. c #F1C041",
"u. c #F4C245",
"i. c #FBC743",
"p. c #F4CA41",
"a. c #F5CA43",
"s. c #FFC840",
"d. c #FFCE41",
"f. c #FAC845",
"g. c #FAC945",
"h. c #FDC349",
"j. c #FAC64A",
"k. c #F8C14D",
"l. c #FEC24E",
"z. c #FBC74D",
"x. c #FCC64D",
"c. c #FEC54E",
"v. c #FEC44F",
"b. c #FCCB4C",
"n. c #F7D043",
"m. c #FFD240",
"M. c #FFD143",
"N. c #FED541",
"B. c #FFD444",
"V. c #FFD447",
"C. c #FED747",
"Z. c #F8D941",
"A. c #FED843",
"S. c #FEDA42",
"D. c #F7DA48",
"F. c #ECC156",
"G. c #EBC15A",
"H. c #ECC25B",
"J. c #EDC35B",
"K. c #EBC559",
"L. c #EBC75A",
"P. c #EEC65B",
"I. c #FEC051",
"U. c #F4D55B",
"Y. c #F3D05C",
"T. c #F5D75C",
"R. c #F5D75F",
"E. c #F4E141",
"W. c #F6E044",
"Q. c #F6E146",
"!. c #FFE348",
"~. c #FCE14C",
"^. c #F3E159",
"/. c #DDC065",
"(. c #DEC166",
"). c #DEC962",
"_. c #DFC56E",
"`. c #E0C06A",
"'. c #E4C668",
"]. c #E2C36E",
"[. c #E3C86C",
"{. c #E0C96E",
"}. c #F2CE60",
"|. c #F4D060",
" X c #F5D863",
".X c #F5DD63",
"XX c #FADB61",
"oX c #F9DA62",
"OX c #F7DA68",
"+X c #F7E767",
"@X c None",
/* pixels */
"@X@X@X@X@X@X@X@X@X@X@X@X@X@X@X@X@X@X@X@X@X@X@X@X@X@X@X@X@X@X@X@X@X@X@X@X@X@X@X@X@X@X@X@X@X@X@X@X@X@X",
"@X@X@X@X@X@X@X@X@X@X@X@X@X@X@X@X@X@X@X@X@X@X@X@X@X@X@X@X@X@X@X@X@X@X@X@X@X@X@X@X@X@X@X@X@X@X@X@X@X@X",
"@X@X@X@X@X@X@X@X@X@X@X@X@X@X@X@X@X@X@X@X@X@X@X@X@X@X@X@X@X@X@X@X@X@X@X@X@X@X@X@X@X@X@X@X@X@X@X@X@X@X",
"@X@X@X@X@X@X@X@X@X@X@X@X@X@X@X@X@X@X@X@X@X@X@X@X@X@X@X@X@X@X@X@X@X@X@X@X@X@X@X@X@X@X@X@X@X@X@X@X@X@X",
"@X@X@X@X@X@X@X@X@X@X@X@X@X@X@X@X@X@X@X@X@X@X@X@X@X@X@X@X@X@X@X@X@X@X@X@X@X@X@X@X@X@X@X@X@X@X@X@X@X@X",
"@X@X@X@X@X@X@X@X@X@X@X@X@X@X@X@X@X@X@X@X@X@X@X@X@X@X@X@X@X@X@X@X@X@X@X@X@X@X@X@X@X@X@X@X@X@X@X@X@X@X",
"@X@X@X@X@X@X@X@X@X@X@X@X@X@X@X@X@X@X@X@X@X@X@X@X@X@X@X@X@X@X@X@X@X@X@X@X@X@X@X@X@X@X@X@X@X@X@X@X@X@X",
"@X@X@X@X@X@X@X@X@X@X@X@X@X@X@X@X@X@X@X@X@X@X@X@X@X@X@X@X@X@X@X@X@X@X@X@X@X@X@X@X@X@X@X@X@X@X@X@X@X@X",
"@X@X@X@X@X@X@X@X@X@X@X@X@X@X@X@X@X@X@X@X@X@X@X@X@X@X@X@X@X@X@X@X@X@X@X@X@X@X@X@X@X@X@X@X@X@X@X@X@X@X",
"@X@X@X@X@X@X@X@X@X@X@X@X@X@X@X@X@X@X@X@X@X@X@X@X@X@X@X@X@X@X@X@X@X@X@X@X@X@X@X@X@X@X@X@X@X@X@X@X@X@X",
"@X@X@X@X@X@X@X@X@X@X@X@X@X@X@X@X@X@X@X@X@X@X@X@X@X@X@X@X@X@X@X@X@X@X@X@X@X@X@X@X@X@X@X@X@X@X@X@X@X@X",
"@X@X@X@X@X@X@X@X@X@X@X@X@X@X@X@X@X@X@X@X@X@X@X@X@X  @X@X@X@X@X@X@X@X@X@X@X@X@X@X@X@X@X@X@X@X@X@X@X@X",
"@X@X@X@X@X@X@X@X@X@X@X@X@X@X@X@X@X@X@X@X@X0.q.w.&... .e.@X@X@X@X@X@X@X@X@X@X@X@X@X@X@X@X@X@X@X@X@X@X",
"@X@X@X@X@X@X@X@X@X@X@X@X@X@X@X@X@X@X@X@X@X+.$ Q %.*.k.;.@X@X@X@X@X@X@X@X@X@X@X@X@X@X@X@X@X@X@X@X@X@X",
"@X@X@X@X@X@X@X@X@X@X@X@X@X@X@X@X@X@X@X@X@X@.3 & ) U ; 1.@X@X@X@X@X@X@X@X@X@X@X@X@X@X@X@X@X@X@X@X@X@X",
"@X@X@X@X@X@X@X@X@X@X@X@X@X@X@X@X@X@X@X@X@Xo.4 2 _ $.u.=.@X@X@X@X@X@X@X@X@X@X@X@X@X@X@X@X@X@X@X@X@X@X",
"@X@X@X@X@X@X@X@X@X@X@X@X@X@X@X@X@X@X@X@X@XX.r ~ { % * -.@X@X@X@X@X@X@X@X@X@X@X@X@X@X@X@X@X@X@X@X@X@X",
"@X@X@X@X@X@X@X@X@X@X@X@X@X@X@X@X@X@X@X@X@XF.< ( | ! - ,.@X@X@X@X@X@X@X@X@X@X@X@X@X@X@X@X@X@X@X@X@X@X",
"@X@X@X@X@X@X@X@X@X@X@X@X@X@X@X@X@X@X@X@X@XO.y.} #.R = 5.@X@X@X@X@X@X@X@X@X@X@X@X@X@X@X@X@X@X@X@X@X@X",
"@X@X@X@X@X@X@X@X@X@X@X@X@X@X@X@X@X@X@X@X@XH.1 h.I.[ : 6.@X@X@X@X@X@X@X@X@X@X@X@X@X@X@X@X@X@X@X@X@X@X",
"@X@X@X@X@X@X@X@X@X@X@X@X@X@X@X@X@X@X@X@X@XG.q / l.` Y 4.@X@X@X@X@X@X@X@X@X@X@X@X@X@X@X@X@X@X@X@X@X@X",
"@X@X@X@X@X@X@X@X@X@X@X@X@X@X@X@X@X@X@X@X@XJ.w 5 v.] > 3.@X@X@X@X@X@X@X@X@X@X@X@X@X@X@X@X@X@X@X@X@X@X",
"@X@X@X@X@X@X@X@X@X@X@X@X@X@X@X@X@X@X@X@X@XP.0 ^ c.' , 7.@X@X@X@X@X@X@X@X@X@X@X@X@X@X@X@X@X@X@X@X@X@X",
"@X@X@X@X@X@X@X@X@X@X@X@X@X@X@X@X@X@X@X@X@XK.a.e x.E 8 9.@X@X@X@X@X@X@X@X@X@X@X@X@X@X@X@X@X@X@X@X@X@X",
"@X@X@X@X@X@X@X@X@X@X@X@X@X@X@X@X@X@X@X@X@XL.p.f.z.W r.8.@X@X@X@X@X@X@X@X@X@X@X@X@X@X@X@X@X@X@X@X@X@X",
"@X@X@X@X@X@X@X@X@X@X@X@X@X@X@X@X@X@X@X@X@X}.i i.j.T t.2.@X@X@X@X@X@X@X@X@X@X@X@X@X@X@X@X@X@X@X@X@X@X",
"@X@X@X@X@X@X@X@X@X@X@X@X@X@X@X@X@X@X@X@X@X|.p t 6 b.n.:.@X@X@X@X@X@X@X@X@X@X@X@X@X@X@X@X@X@X@X@X@X@X",
"@X@X@X@X@X@X@X@X@X@X@X@X@X@X@X@X@X@X@X@X@XY.u h s.g.V <.@X@X@X@X@X@X@X@X@X@X@X@X@X@X@X@X@X@X@X@X@X@X",
"@X@X@X@X@X@X@X@X@X@X@X@X@X@X@X@X@X@X@X@X@XU.M s d.y z `.@X@X@X@X@X@X@X@X@X@X@X@X@X@X@X@X@X@X@X@X@X@X",
"@X@X@X@X@X@X@X@X@X@X@X@X@X@X@X@X@X@X@X@X@XT.N 9 f D l >.@X@X@X@X@X@X@X@X@X@X@X@X@X@X@X@X@X@X@X@X@X@X",
"@X@X@X@X@X@X@X@X@X@X@X@X@X@X@X@X@X@X@X@X@XR.B a A F k /.@X@X@X@X@X@X@X@X@X@X@X@X@X@X@X@X@X@X@X@X@X@X",
"@X@X@X@X@X@X@X@X@X@X@X@X@X@X@X@X@X@X@X@X@X XC d m.N.c (.@X@X@X@X@X@X@X@X@X@X@X@X@X@X@X@X@X@X@X@X@X@X",
"@X@X@X@X@X@X@X@X@X@X@X@X@X@X@X@X@X@X@X@X@XoXG g M.V.Z ].@X@X@X@X@X@X@X@X@X@X@X@X@X@X@X@X@X@X@X@X@X@X",
"@X@X@X@X@X@X@X@X@X@X@X@X@X@X@X@X@X@X@X@X@X.XZ.S B.C.H _.@X@X@X@X@X@X@X@X@X@X@X@X@X@X@X@X@X@X@X@X@X@X",
"@X@X@X@X@X@X@X@X@X@X@X@X@X@X@X@X@X@X@X@X@X^.v b n m P ).@X@X@X@X@X@X@X@X@X@X@X@X@X@X@X@X@X@X@X@X@X@X",
"@X@X@X@X@X@X@X@X@X@X@X@X@X@X@X@X@X@X@X@X@XOXD.~.A.S.x [.@X@X@X@X@X@X@X@X@X@X@X@X@X@X@X@X@X@X@X@X@X@X",
"@X@X@X@X@X@X@X@X@X@X@X@X@X@X@X@X@X@X@X@X@XXX!.J K L 7 '.@X@X@X@X@X@X@X@X@X@X@X@X@X@X@X@X@X@X@X@X@X@X",
"@X@X@X@X@X@X@X@X@X@X@X@X@X@X@X@X@X@X@X@X@X+Xj E.W.Q.I {.@X@X@X@X@X@X@X@X@X@X@X@X@X@X@X@X@X@X@X@X@X@X",
"@X@X@X@X@X@X@X@X@X@X@X@X@X@X@X@X@X@X@X@X@X# o X O + . @ @X@X@X@X@X@X@X@X@X@X@X@X@X@X@X@X@X@X@X@X@X@X",
"@X@X@X@X@X@X@X@X@X@X@X@X@X@X@X@X@X@X@X@X@X@X@X@X@X@X@X@X@X@X@X@X@X@X@X@X@X@X@X@X@X@X@X@X@X@X@X@X@X@X",
"@X@X@X@X@X@X@X@X@X@X@X@X@X@X@X@X@X@X@X@X@X@X@X@X@X@X@X@X@X@X@X@X@X@X@X@X@X@X@X@X@X@X@X@X@X@X@X@X@X@X",
"@X@X@X@X@X@X@X@X@X@X@X@X@X@X@X@X@X@X@X@X@X@X@X@X@X@X@X@X@X@X@X@X@X@X@X@X@X@X@X@X@X@X@X@X@X@X@X@X@X@X",
"@X@X@X@X@X@X@X@X@X@X@X@X@X@X@X@X@X@X@X@X@X@X@X@X@X@X@X@X@X@X@X@X@X@X@X@X@X@X@X@X@X@X@X@X@X@X@X@X@X@X",
"@X@X@X@X@X@X@X@X@X@X@X@X@X@X@X@X@X@X@X@X@X@X@X@X@X@X@X@X@X@X@X@X@X@X@X@X@X@X@X@X@X@X@X@X@X@X@X@X@X@X",
"@X@X@X@X@X@X@X@X@X@X@X@X@X@X@X@X@X@X@X@X@X@X@X@X@X@X@X@X@X@X@X@X@X@X@X@X@X@X@X@X@X@X@X@X@X@X@X@X@X@X",
"@X@X@X@X@X@X@X@X@X@X@X@X@X@X@X@X@X@X@X@X@X@X@X@X@X@X@X@X@X@X@X@X@X@X@X@X@X@X@X@X@X@X@X@X@X@X@X@X@X@X",
"@X@X@X@X@X@X@X@X@X@X@X@X@X@X@X@X@X@X@X@X@X@X@X@X@X@X@X@X@X@X@X@X@X@X@X@X@X@X@X@X@X@X@X@X@X@X@X@X@X@X",
"@X@X@X@X@X@X@X@X@X@X@X@X@X@X@X@X@X@X@X@X@X@X@X@X@X@X@X@X@X@X@X@X@X@X@X@X@X@X@X@X@X@X@X@X@X@X@X@X@X@X",
"@X@X@X@X@X@X@X@X@X@X@X@X@X@X@X@X@X@X@X@X@X@X@X@X@X@X@X@X@X@X@X@X@X@X@X@X@X@X@X@X@X@X@X@X@X@X@X@X@X@X",
"@X@X@X@X@X@X@X@X@X@X@X@X@X@X@X@X@X@X@X@X@X@X@X@X@X@X@X@X@X@X@X@X@X@X@X@X@X@X@X@X@X@X@X@X@X@X@X@X@X@X"
};
