/* XPM */
static char *result[] = {
/* columns rows colors chars-per-pixel */
"50 50 233 2 ",
"   c #EFB42E",
".  c #F0B629",
"X  c #F5B52D",
"o  c #F6B62C",
"O  c #FFAF35",
"+  c #E9B838",
"@  c #EDBF39",
"#  c #F1B733",
"$  c #FFB237",
"%  c #F5B832",
"&  c #F6BA35",
"*  c #F7BD35",
"=  c #FABF34",
"-  c #FCBC34",
";  c #F2B73F",
":  c #FBB23B",
">  c #FEB038",
",  c #FEB33A",
"<  c #FFB639",
"1  c #FEB63B",
"2  c #F8B23E",
"3  c #FFB13C",
"4  c #FBB73D",
"5  c #F9B53F",
"6  c #FBB73F",
"7  c #FCB53D",
"8  c #F3B83F",
"9  c #F7BB3E",
"0  c #F4BF3D",
"q  c #FDB93B",
"w  c #FFB83A",
"e  c #FCBB3B",
"r  c #F8B93D",
"t  c #F8BB3F",
"y  c #FABA3E",
"u  c #FABC3C",
"i  c #FBBD3C",
"p  c #FABE3C",
"a  c #F8BF3F",
"s  c #FCBD3C",
"d  c #FCBC3E",
"f  c #FCBE3F",
"g  c #F6C02B",
"h  c #FAD628",
"j  c #F6DD2E",
"k  c #EFCB3D",
"l  c #F3C133",
"z  c #F7C537",
"x  c #F7C736",
"c  c #F7C637",
"v  c #FEC630",
"b  c #FEC432",
"n  c #FDC334",
"m  c #FEC237",
"M  c #FBCD33",
"N  c #FACE34",
"B  c #F4C03A",
"V  c #F5C53A",
"C  c #F7C33F",
"Z  c #F8C439",
"A  c #FAC43B",
"S  c #F8C13C",
"D  c #FBC03C",
"F  c #FBC13C",
"G  c #F8C23C",
"H  c #FBC33C",
"J  c #FCC03C",
"K  c #FDC33D",
"L  c #FFC33D",
"P  c #FDC13E",
"I  c #FDC13F",
"U  c #FFC23E",
"Y  c #FAC43D",
"T  c #FAC53D",
"R  c #FBC53D",
"E  c #FAC63C",
"W  c #F8C53E",
"Q  c #FAC63E",
"!  c #FAC73E",
"~  c #FCC43D",
"^  c #FCC53D",
"/  c #FCC73D",
"(  c #FBC83B",
")  c #FBCB3A",
"_  c #FACE39",
"`  c #FBCD3B",
"'  c #FBCF3A",
"]  c #FCCE3B",
"[  c #FAC93C",
"{  c #FBC93C",
"}  c #FDC83C",
"|  c #FCC93C",
" . c #FCC83E",
".. c #FDC93E",
"X. c #FDC93F",
"o. c #FECB3E",
"O. c #FDCD3D",
"+. c #FCCF3C",
"@. c #FDCF3D",
"#. c #F7D233",
"$. c #F6D737",
"%. c #F8D033",
"&. c #FFD633",
"*. c #FFD733",
"=. c #FFD336",
"-. c #FFD735",
";. c #FDDF33",
":. c #FBD937",
">. c #FFDA35",
",. c #FFDA36",
"<. c #FBDD35",
"1. c #FDDC34",
"2. c #FFDD35",
"3. c #FAD139",
"4. c #FAD13A",
"5. c #FCD03B",
"6. c #FCD33B",
"7. c #FFD33A",
"8. c #F8D738",
"9. c #FBD43B",
"0. c #FDD63B",
"q. c #FED13E",
"w. c #FFD53C",
"e. c #FED53D",
"r. c #FFDA3C",
"t. c #FDD83F",
"y. c #FCD93F",
"u. c #F0AF4E",
"i. c #EBB547",
"p. c #EDB748",
"a. c #F6B144",
"s. c #FEB340",
"d. c #FAB643",
"f. c #FDB742",
"g. c #FBB841",
"h. c #FDB940",
"j. c #FDBA42",
"k. c #FEBE40",
"l. c #FFBE44",
"z. c #FFBE45",
"x. c #FEBC47",
"c. c #FFB64A",
"v. c #FFB94D",
"b. c #F2B256",
"n. c #FCB950",
"m. c #EDC146",
"M. c #EDC24E",
"N. c #F6C340",
"B. c #FFC040",
"V. c #FEC440",
"C. c #FFC245",
"Z. c #FCC744",
"A. c #FBC840",
"S. c #F8CA41",
"D. c #FBCB41",
"F. c #F9CB42",
"G. c #FDCA41",
"H. c #FCCB42",
"J. c #FCCD43",
"K. c #FDCD43",
"L. c #FFC947",
"P. c #FACE44",
"I. c #FCCE44",
"U. c #FECE44",
"Y. c #FDCF47",
"T. c #FFC648",
"R. c #FFC748",
"E. c #FFCD48",
"W. c #FDCF48",
"Q. c #FCCF4A",
"!. c #FFD040",
"~. c #FFD341",
"^. c #FAD045",
"/. c #F9D146",
"(. c #F9D747",
"). c #FDD445",
"_. c #F7DC45",
"`. c #FAD940",
"'. c #FBDA43",
"]. c #F9DC43",
"[. c #F8D847",
"{. c #F8D348",
"}. c #FDD049",
"|. c #FED248",
" X c #FED348",
".X c #FFD249",
"XX c #FED74E",
"oX c #F4D94A",
"OX c #F5DA4C",
"+X c #F5DB4C",
"@X c #F6DB4C",
"#X c #F5DE4F",
"$X c #F6C250",
"%X c #F0C755",
"&X c #F5CB52",
"*X c #F1CB55",
"=X c #FCCD53",
"-X c #FCCB54",
";X c #F2C95B",
":X c #FDD052",
">X c #F3DC54",
",X c #F5DF54",
"<X c #F7DF57",
"1X c #FFD850",
"2X c #F8D957",
"3X c #FCDB57",
"4X c #F8DE56",
"5X c #FED85D",
"6X c #F2E04B",
"7X c #F8E253",
"8X c #FFE756",
"9X c #F7E25A",
"0X c #DDC478",
"qX c #DFCC78",
"wX c #E3C06F",
"eX c #FFDD65",
"rX c #FFDF7C",
"tX c #FFE061",
"yX c #FAE366",
"uX c #F9E467",
"iX c #FCE168",
"pX c #FFE16F",
"aX c #F5E375",
"sX c #FDE376",
"dX c #FFE478",
"fX c #FFE781",
"gX c #FDE783",
"hX c #FAED81",
"jX c #F7E688",
"kX c #FBE58C",
"lX c #FEEA96",
"zX c #FDF0A2",
"xX c None",
/* pixels */
"xXxXxXxXxXxXxXxXxXxXxXxXxXxXxXxXxXxXxXxXxXxXxXxXxXxXxXxXxXxXxXxXxXxXxXxXxXxXxXxXxXxXxXxXxXxXxXxXxXxX",
"xXxXxXxXxXxXxXxXxXxXxXxXxXxXxXxXxXxXxXxXxXxXxXxXxXxXxXxXxXxXxXxXxXxXxXxXxXxXxXxXxXxXxXxXxXxXxXxXxXxX",
"xXxXxXxXxXxXxXxXxXxXxXxXxXxXxXxXxXxXxXxXxXxXxXxXxXxXxXxXxXxXxXxXxXxXxXxXxXxXxXxXxXxXxXxXxXxXxXxXxXxX",
"xXxXxXxXxXxXxXxXxXxXxXxXxXxXxXxXxXxXxXxXxXxXxXxXxXxXxXxXxXxXxXxXxXxXxXxXxXxXxXxXxXxXxXxXxXxXxXxXxXxX",
"xXxXxXxXxXxXxXxXxXxXxXxXxXxXxXxXxXxXxXxXxXxXxXxXxXxXxXxXxXxXxXxXxXxXxXxXxXxXxXxXxXxXxXxXxXxXxXxXxXxX",
"xXxXxXxXxXxXxXxXxXxXxXxXxXxXxXxXxXxXxXxXxXxXxXxXxXxXxXxXxXxXxXxXxXxXxXxXxXxXxXxXxXxXxXxXxXxXxXxXxXxX",
"xXxXxXxXxXxXxXxXxXxXxXxXxXxXxXxXxXxXxXxXxXxXxXxXxXxXxXxXxXxXxXxXxXxXxXxXxXxXxXxXxXxXxXxXxXxXxXxXxXxX",
"xXxXxXxXxXxXxXxXxXxXxXxXxXxXxXxXxXxXxXxXxXxXxXxXxXxXxXxXxXxXxXxXxXxXxXxXxXxXxXxXxXxXxXxXxXxXxXxXxXxX",
"xXxXxXxXxXxXxXxXxXxXxXxXxXxXxXxXxXxXxXxXxXxXxXxXxXxXxXxXxXxXxXxXxXxXxXxXxXxXxXxXxXxXxXxXxXxXxXxXxXxX",
"xXxXxXxXxXxXxXxXxXxXxXxXxXxXxXxXxXxXxXxXxXxXxXxXxXxXxXxXxXxXxXxXxXxXxXxXxXxXxXxXxXxXxXxXxXxXxXxXxXxX",
"xXxXxXxXxXxXxXxXxXxXxXxXxXxXxXxXxXxXxXxXxXxXxXxXxXxXxXxXxXxXxXxXxXxXxXxXxXxXxXxXxXxXxXxXxXxXxXxXxXxX",
"xXxXxXxXxXxXxXxXxXxXxXxXxXxXxXxXxXxXxXxXxXxXxXxXxXxXxXxXxXxXxXxXxXxXxXxXxXxXxXxXxXxXxXxXxXxXxXxXxXxX",
"xXxXxXxXxXxXxXxXxXxXxXxXxXxXxXxXxXxXxXxXwX# X o   + *XxXxXxXxXxXxXxXxXxXxXxXxXxXxXxXxXxXxXxXxXxXxXxX",
"xXxXxXxXxXxXxXxXxXxXxXxXxXxXxXxXxXxXxXxXb.2 > O : i.rXlXxXxXxXxXxXxXxXxXxXxXxXxXxXxXxXxXxXxXxXxXxXxX",
"xXxXxXxXxXxXxXxXxXxXxXxXxXxXxXxXxXxXxXM.u.5 , $ 7 p.fXkXzXxXxXxXxXxXxXxXxXxXxXxXxXxXxXxXxXxXxXxXxXxX",
"xXxXxXxXxXxXxXxXxXxXxXxXxXxXxXxXxXxXxXm.n.6 1 < h.$XdXgXjXxXxXxXxXxXxXxXxXxXxXxXxXxXxXxXxXxXxXxXxXxX",
"xXxXxXxXxXxXxXxXxXxXxXxXxXxXxXxXxXxXxX@ a.y q w r -XpXsXaXxXxXxXxXxXxXxXxXxXxXxXxXxXxXxXxXxXxXxXxXxX",
"xXxXxXxXxXxXxXxXxXxXxXxXxXxXxXxXxXxXxXV v.u e e 9 =XeXiXyXxXxXxXxXxXxXxXxXxXxXxXxXxXxXxXxXxXxXxXxXxX",
"xXxXxXxXxXxXxXxXxXxXxXxXxXxXxXxXxXxXxXl c.p s i a :X5XtX<X0XxXxXxXxXxXxXxXxXxXxXxXxXxXxXxXxXxXxXxXxX",
"xXxXxXxXxXxXxXxXxXxXxXxXxXxXxXxXxXxXxX0 d.J D S B }.1XXX{.9XxXxXxXxXxXxXxXxXxXxXxXxXxXxXxXxXxXxXxXxX",
"xXxXxXxXxXxXxXxXxXxXxXxXxXxXxXxXxXxXxXN.x.J F G W Y..X|./.7XxXxXxXxXxXxXxXxXxXxXxXxXxXxXxXxXxXxXxXxX",
"xXxXxXxXxXxXxXxXxXxXxXxXxXxXxXxXxXxXxXC z.K ~ Y A.U.J.I./.#XxXxXxXxXxXxXxXxXxXxXxXxXxXxXxXxXxXxXxXxX",
"xXxXxXxXxXxXxXxXxXxXxXxXxXxXxXxXxXxXxX! C.^ R T Q H.D.K.^.+XxXxXxXxXxXxXxXxXxXxXxXxXxXxXxXxXxXxXxXxX",
"xXxXxXxXxXxXxXxXxXxXxXxXxXxXxXxXxXxXxX{ B.E E E E  .X.G.P.@XxXxXxXxXxXxXxXxXxXxXxXxXxXxXxXxXxXxXxXxX",
"xXxXxXxXxXxXxXxXxXxXxXxXxXxXxXxXxXxXxX) U ( ( ( ( | } ..F.OXxXxXxXxXxXxXxXxXxXxXxXxXxXxXxXxXxXxXxXxX",
"xXxXxXxXxXxXxXxXxXxXxXxXxXxXxXxXxXxXxX) L [ [ | | } } / S.oXxXxXxXxXxXxXxXxXxXxXxXxXxXxXxXxXxXxXxXxX",
"xXxXxXxXxXxXxXxXxXxXxXxXxXxXxXxXxXxXxXM T.o.` _ _ x / V.v %XxXxXxXxXxXxXxXxXxXxXxXxXxXxXxXxXxXxXxXxX",
"xXxXxXxXxXxXxXxXxXxXxXxXxXxXxXxXxXxXxXN R.O.] ' _ c T I b ;XxXxXxXxXxXxXxXxXxXxXxXxXxXxXxXxXxXxXxXxX",
"xXxXxXxXxXxXxXxXxXxXxXxXxXxXxXxXxXxXxX%.L.@.5.5._ z H f n xXxXxXxXxXxXxXxXxXxXxXxXxXxXxXxXxXxXxXxXxX",
"xXxXxXxXxXxXxXxXxXxXxXxXxXxXxXxXxXxXxX#.E.5.4.3.+.Z P l.= xXxXxXxXxXxXxXxXxXxXxXxXxXxXxXxXxXxXxXxXxX",
"xXxXxXxXxXxXxXxXxXxXxXxXxXxXxXxXxXxXxX8.W.6.9.6.q.A k.j.* xXxXxXxXxXxXxXxXxXxXxXxXxXxXxXxXxXxXxXxXxX",
"xXxXxXxXxXxXxXxXxXxXxXxXxXxXxXxXxXxXxX$. X0.0.e.~.^ d f.& xXxXxXxXxXxXxXxXxXxXxXxXxXxXxXxXxXxXxXxXxX",
"xXxXxXxXxXxXxXxXxXxXxXxXxXxXxXxXxXxXxXk !.&.*.-.7.m w 3 8 xXxXxXxXxXxXxXxXxXxXxXxXxXxXxXxXxXxXxXxXxX",
"xXxXxXxXxXxXxXxXxXxXxXxXxXxXxXxXxXxXxX[.=.t.y.`.).Z.g.s.t xXxXxXxXxXxXxXxXxXxXxXxXxXxXxXxXxXxXxXxXxX",
"xXxXxXxXxXxXxXxXxXxXxXxXxXxXxXxXxXxXxX8Xh '.]._.(.Q.; 4 xXxXxXxXxXxXxXxXxXxXxXxXxXxXxXxXxXxXxXxXxXxX",
"xXxXxXxXxXxXxXxXxXxXxXxXxXxXxXxXxXxXxXuXj >.1.<.:.w.. - xXxXxXxXxXxXxXxXxXxXxXxXxXxXxXxXxXxXxXxXxXxX",
"xXxXxXxXxXxXxXxXxXxXxXxXxXxXxXxXxXxXxXqX6X,.2.;.1.r.g % xXxXxXxXxXxXxXxXxXxXxXxXxXxXxXxXxXxXxXxXxXxX",
"xXxXxXxXxXxXxXxXxXxXxXxXxXxXxXxXxXxXxXxXhX3X4X,X>X2X&XxXxXxXxXxXxXxXxXxXxXxXxXxXxXxXxXxXxXxXxXxXxXxX",
"xXxXxXxXxXxXxXxXxXxXxXxXxXxXxXxXxXxXxXxXxXxXxXxXxXxXxXxXxXxXxXxXxXxXxXxXxXxXxXxXxXxXxXxXxXxXxXxXxXxX",
"xXxXxXxXxXxXxXxXxXxXxXxXxXxXxXxXxXxXxXxXxXxXxXxXxXxXxXxXxXxXxXxXxXxXxXxXxXxXxXxXxXxXxXxXxXxXxXxXxXxX",
"xXxXxXxXxXxXxXxXxXxXxXxXxXxXxXxXxXxXxXxXxXxXxXxXxXxXxXxXxXxXxXxXxXxXxXxXxXxXxXxXxXxXxXxXxXxXxXxXxXxX",
"xXxXxXxXxXxXxXxXxXxXxXxXxXxXxXxXxXxXxXxXxXxXxXxXxXxXxXxXxXxXxXxXxXxXxXxXxXxXxXxXxXxXxXxXxXxXxXxXxXxX",
"xXxXxXxXxXxXxXxXxXxXxXxXxXxXxXxXxXxXxXxXxXxXxXxXxXxXxXxXxXxXxXxXxXxXxXxXxXxXxXxXxXxXxXxXxXxXxXxXxXxX",
"xXxXxXxXxXxXxXxXxXxXxXxXxXxXxXxXxXxXxXxXxXxXxXxXxXxXxXxXxXxXxXxXxXxXxXxXxXxXxXxXxXxXxXxXxXxXxXxXxXxX",
"xXxXxXxXxXxXxXxXxXxXxXxXxXxXxXxXxXxXxXxXxXxXxXxXxXxXxXxXxXxXxXxXxXxXxXxXxXxXxXxXxXxXxXxXxXxXxXxXxXxX",
"xXxXxXxXxXxXxXxXxXxXxXxXxXxXxXxXxXxXxXxXxXxXxXxXxXxXxXxXxXxXxXxXxXxXxXxXxXxXxXxXxXxXxXxXxXxXxXxXxXxX",
"xXxXxXxXxXxXxXxXxXxXxXxXxXxXxXxXxXxXxXxXxXxXxXxXxXxXxXxXxXxXxXxXxXxXxXxXxXxXxXxXxXxXxXxXxXxXxXxXxXxX",
"xXxXxXxXxXxXxXxXxXxXxXxXxXxXxXxXxXxXxXxXxXxXxXxXxXxXxXxXxXxXxXxXxXxXxXxXxXxXxXxXxXxXxXxXxXxXxXxXxXxX",
"xXxXxXxXxXxXxXxXxXxXxXxXxXxXxXxXxXxXxXxXxXxXxXxXxXxXxXxXxXxXxXxXxXxXxXxXxXxXxXxXxXxXxXxXxXxXxXxXxXxX",
"xXxXxXxXxXxXxXxXxXxXxXxXxXxXxXxXxXxXxXxXxXxXxXxXxXxXxXxXxXxXxXxXxXxXxXxXxXxXxXxXxXxXxXxXxXxXxXxXxXxX"
};
