/* XPM */
static char *_a100545404a43d39e5873e2629bd947i1xPlroyvIbvrmik[] = {
/* columns rows colors chars-per-pixel */
"50 50 129 2 ",
"   c None",
".  c #4F2F03",
"X  c #5C2708",
"o  c #582F0E",
"O  c #453107",
"+  c #5A2816",
"@  c #633303",
"#  c #FDAC20",
"$  c #EAB82F",
"%  c #F7B321",
"&  c #F1BE27",
"*  c #F8BF26",
"=  c #F1B62C",
"-  c #F0BF2A",
";  c #FCBD2B",
":  c #FDAC37",
">  c #FCAE3B",
",  c #EFB13F",
"<  c #EAB93B",
"1  c #FFB436",
"2  c #FABB34",
"3  c #F5B43C",
"4  c #FFB53C",
"5  c #F4BB3D",
"6  c #FCBB3C",
"7  c #FCD91F",
"8  c #EEC12C",
"9  c #F6CA27",
"0  c #F5C028",
"q  c #FAC32D",
"w  c #FFCE2E",
"e  c #F6DD20",
"r  c #F5DD2E",
"t  c #FDD82B",
"y  c #F6C237",
"u  c #FCC335",
"i  c #FCCC34",
"p  c #F6C13B",
"a  c #FBC43C",
"s  c #F5CA3A",
"d  c #FBCB3B",
"f  c #FBD335",
"g  c #F6DD35",
"h  c #FFDC35",
"j  c #F7D13D",
"k  c #FBD33C",
"l  c #F3DF3E",
"z  c #FEDC3A",
"x  c #FFE531",
"c  c #F0AE45",
"v  c #EEB544",
"b  c #FBB542",
"n  c #F4BB41",
"m  c #FDBC43",
"M  c #FEB24C",
"N  c #FABA49",
"B  c #FDAE51",
"V  c #FFAD5C",
"C  c #E2B45E",
"Z  c #EDB85E",
"A  c #F8BF56",
"S  c #FFB159",
"D  c #D9AC64",
"F  c #EFCB40",
"G  c #F7C442",
"H  c #FEC444",
"J  c #F7C943",
"K  c #FCCB44",
"L  c #FEC348",
"P  c #FCCD4A",
"I  c #F5D145",
"U  c #FAD545",
"Y  c #FEDB43",
"T  c #F1D14E",
"R  c #FDD14E",
"E  c #F2DC4D",
"W  c #FBDE4D",
"Q  c #F0C455",
"!  c #F7CF52",
"~  c #FDD353",
"^  c #FDD854",
"/  c #FCD55A",
"(  c #FFD95C",
")  c #F5E34B",
"_  c #FBE249",
"`  c #FBD164",
"'  c #FFDA63",
"]  c #FBDC62",
"[  c #FCDD65",
"{  c #FDDA69",
"}  c #FADF68",
"|  c #FFDC68",
" . c #FCDF6A",
".. c #FADE7A",
"X. c #FFDE7D",
"o. c #FEE466",
"O. c #FFE073",
"+. c #FDE373",
"@. c #F9E375",
"#. c #FCE075",
"$. c #FBEC77",
"%. c #FFE279",
"&. c #FBE47B",
"*. c #FBE77B",
"=. c #FBE37D",
"-. c #F8E67D",
";. c #FDE47D",
":. c #FAE87A",
">. c #FEE87D",
",. c #FCEA7E",
"<. c #FEE780",
"1. c #FFE186",
"2. c #FCE584",
"3. c #F5E887",
"4. c #FBEA80",
"5. c #FAEB82",
"6. c #FAEA83",
"7. c #FFE982",
"8. c #FEEB82",
"9. c #FFEC85",
"0. c #FDEA88",
"q. c #F6E492",
"w. c #FAEB90",
"e. c #FFEA94",
"r. c #FFEA97",
"t. c #F3E79D",
"y. c #FBEAA2",
"u. c #ECE6B7",
"i. c #FEF4B1",
/* pixels */
"                                                                                                    ",
"                                                                                                    ",
"                                                                                                    ",
"                                                                                                    ",
"                                                                                                    ",
"                                                                                                    ",
"                                                                                                    ",
"                                                                                                    ",
"                                                                                                    ",
"                                                                                                    ",
"                                                                                                    ",
"                                              @ X + o . O                                           ",
"                                          C < = 3 c 5 ! q.i.u.                                      ",
"                                        D v b : > , Q 8.e.e.y.                                      ",
"                                        Z 5 4 4 b v ..>.8.0.w.t.                                    ",
"                                        , 4 4 4 3 Q 8.,.$.5.6.3.                                    ",
"                                      Q 4 6 1 6 3 ` =.5.*.2.;.;.                                    ",
"                                      m 1 6 6 6 n { =.-.*.1.%.o...                                  ",
"                                      H 4 m m 6 G | %.@.+.X.] Y T                                   ",
"                                      a b m p G J '  . .' ^ U P k                                   ",
"                                      5 L a a p P ( [ ] / I j R f                                   ",
"                                      a m a a p P ^ / / P s s P f                                   ",
"                                      a H a a G P ~ R I K k f H f                                   ",
"                                      i a a a J P P K K K s i K w                                   ",
"                                      i u d J J K K d a K d i L w                                   ",
"                                      w u a d K J K a u a s d L i                                   ",
"                                    J i L d d d a u d u u s u H f                                   ",
"                                      i L d d d s y a u a d y L q                                   ",
"                                      s U d k k d p a a m a u H &                                   ",
"                                      j d f k d d 2 a a N a u m u                                   ",
"                                      W k f f U K y a 6 m u q b H                                   ",
"                                      U f z j k U y 6 6 6 2 q b G                                   ",
"                                      E e U ~ R d q 4 B V S M b                                     ",
"                                        g g z k z 9 2 4 * 0 ; 2                                     ",
"                                        E l Y Y z f m b 8 8 - n                                     ",
"                                          U Y Y U R N B B b N                                       ",
"                                          _ f e x z i % # ; m                                       ",
"                                            ) x ) E W s $ =                                         ",
"                                                                                                    ",
"                                                                                                    ",
"                                                                                                    ",
"                                                                                                    ",
"                                                                                                    ",
"                                                                                                    ",
"                                                                                                    ",
"                                                                                                    ",
"                                                                                                    ",
"                                                                                                    ",
"                                                                                                    ",
"                                                                                                    "
};
