/* XPM */
static char *_c40f46c90864df3b4867b027874a715kQOBLey7MKUS5GIW[] = {
/* columns rows colors chars-per-pixel */
"50 50 137 2 ",
"   c None",
".  c #9C8A22",
"X  c #A58B26",
"o  c #AE8C2B",
"O  c #F4BA21",
"+  c #F6B42C",
"@  c #FAB52E",
"#  c #F7BC2D",
"$  c #F9BD2C",
"%  c #E7A938",
"&  c #EEB733",
"*  c #EFBF39",
"=  c #F2B434",
"-  c #FDB533",
";  c #F4BD32",
":  c #FBBB35",
">  c #F2B43C",
",  c #FDB53B",
"<  c #F6BB3A",
"1  c #FBBC3B",
"2  c #F6C02F",
"3  c #FBC32D",
"4  c #F8C82D",
"5  c #FFDD26",
"6  c #FCDF2C",
"7  c #F5C634",
"8  c #FEC435",
"9  c #F4CC35",
"0  c #FCCB35",
"q  c #F5C33C",
"w  c #FCC33C",
"e  c #F7CD3C",
"r  c #FCCB3C",
"t  c #F7D234",
"y  c #FAD334",
"u  c #FED933",
"i  c #F3D239",
"p  c #FCD33B",
"a  c #FCD938",
"s  c #FFAE48",
"d  c #EEBD45",
"f  c #EDB04E",
"g  c #EBBC4D",
"h  c #F4B541",
"j  c #FDB444",
"k  c #F4BB42",
"l  c #FCBC44",
"z  c #FDB14E",
"x  c #FFBA4A",
"c  c #EBB256",
"v  c #EFBD55",
"b  c #F1B35C",
"n  c #EBAF63",
"m  c #F1AF60",
"M  c #EDC448",
"N  c #E7CD4B",
"B  c #F6C443",
"V  c #FBC444",
"C  c #F6C942",
"Z  c #FCCB44",
"A  c #F1C04A",
"S  c #FCC549",
"D  c #F5CD4A",
"F  c #FBCA4B",
"G  c #F6D443",
"H  c #FCD342",
"J  c #F6DB41",
"K  c #F7D649",
"L  c #FDD34B",
"P  c #F5DC4B",
"I  c #FDDA4A",
"U  c #F2C252",
"Y  c #FFCD53",
"T  c #F5D053",
"R  c #FDD253",
"E  c #FDDA53",
"W  c #FED65D",
"Q  c #FDD95F",
"!  c #FFE646",
"~  c #F6E24C",
"^  c #FDE05F",
"/  c #F6CF61",
"(  c #FBD562",
")  c #FDDA63",
"_  c #FEDC6C",
"`  c #FCDD72",
"'  c #F7DC79",
"]  c #FDDF7B",
"[  c #FFE16F",
"{  c #FEE274",
"}  c #FFE57E",
"|  c #FCE17D",
" . c #E9B591",
".. c #F9CE85",
"X. c #F8DF82",
"o. c #FCE082",
"O. c #FDE383",
"+. c #FDE480",
"@. c #FCE482",
"#. c #FFE482",
"$. c #FFE483",
"%. c #FAE184",
"&. c #FFE784",
"*. c #FDE787",
"=. c #FBEA84",
"-. c #FBE987",
";. c #FDE885",
":. c #FFE985",
">. c #FDEB85",
",. c #FFEB84",
"<. c #FDE987",
"1. c #FEE887",
"2. c #FFEC86",
"3. c #FAE789",
"4. c #FCE588",
"5. c #FDE588",
"6. c #FBE88B",
"7. c #FDE889",
"8. c #FDEA88",
"9. c #FCE88A",
"0. c #FCE98A",
"q. c #F8ED8B",
"w. c #FFEC8B",
"e. c #FAE88F",
"r. c #FEEB8C",
"t. c #FEEB8D",
"y. c #FDED8E",
"u. c #FCEC90",
"i. c #F9E997",
"p. c #F6EE98",
"a. c #F2E99C",
"s. c #FFE89F",
"d. c #FFEDA2",
"f. c #FCEAA5",
"g. c #F6E6A8",
"h. c #F9F0B9",
"j. c #F8EBC3",
/* pixels */
"                                                                                                    ",
"                                                                                                    ",
"                                                                                                    ",
"                                                                                                    ",
"                                                                                                    ",
"                                                                                                    ",
"                                                                                                    ",
"                                                                                                    ",
"                                                                                                    ",
"                                                                                                    ",
"                                                                                                    ",
"                                                                                                    ",
"                                         .c b m n ..d.f.h.j.                                        ",
"                                      % : , > g ` >.0.y.d.g.p.                                      ",
"                                    v = - , h / :.>.0.>.u.i.q.a.                                    ",
"                                    7 @ j k U } *.t.9.0.=.0.>.e.                                    ",
"                                  k $ , z d ( >.3.6.3.*.>.*.$.$.                                    ",
"                                  l , 1 l M { *.5.3.$.$.| { { ( N                                   ",
"                                  l x 1 3 D { ' X.X.] { [ [ ( H 6                                   ",
"                                1 l l 8 1 W _ | X.] ] _ P J p i I T                                 ",
"                                < l w q l W _ ] ] { ) R G i t 9 Z T                                 ",
"                                8 V w 8 l W ) { _ ) R Z H i t p r G                                 ",
"                                8 V w w S ( ( ) ) D r p r i y r r Z                                 ",
"                                3 1 w w S Q Q W L Z r y r e r r r e                                 ",
"                                8 V r r S W R R V r 0 0 r C Z Z w r                                 ",
"                              B 8 V w r S R Y S S r r 0 w C V V w e                                 ",
"                                0 r r r S F Z q r w r w w C Z 8 8 8                                 ",
"                                3 r 0 r Z D B w w w w w w V C w 8 r                                 ",
"                                y r y y Z C q r w w w w w B C w w V                                 ",
"                                p p y y Z 7 r 1 1 w w 1 w B V : < A                                 ",
"                                7 p y u Z 7 w w l 1 1 8 1 B 1 1 l g                                 ",
"                                H H a y L 7 q 1 l 1 q 1 1 l 1 1 l                                   ",
"                                  p H L R Y h x j x l < : l : O q                                   ",
"                                  I a p H p 7 # $ : ; ; , j , +                                     ",
"                                    6 5 u J p ; : < , < - , - x                                     ",
"                                      6 6 K E l j z s j + , ,                                       ",
"                                      P ! a a p # @ - - = h                                         ",
"                                          ~ P I I < & > f                                           ",
"                                              . X o                                                 ",
"                                                                                                    ",
"                                                                                                    ",
"                                                                                                    ",
"                                                                                                    ",
"                                                                                                    ",
"                                                                                                    ",
"                                                                                                    ",
"                                                                                                    ",
"                                                                                                    ",
"                                                                                                    ",
"                                                                                                    "
};
