/* XPM */
static char *_4abe24373b544e796ad4d5c94d4130720ZO43YgaoUUvrzH[] = {
/* columns rows colors chars-per-pixel */
"50 50 145 2 ",
"   c None",
".  c #A87B09",
"X  c #AD850E",
"o  c #AD8F13",
"O  c #EABD1A",
"+  c #EEB229",
"@  c #F8B323",
"#  c #FBBE26",
"$  c #F7B52C",
"%  c #FFB42D",
"&  c #F5BD2D",
"*  c #EDB33C",
"=  c #F4B336",
"-  c #FDB436",
";  c #F5BC34",
":  c #FCBB34",
">  c #F5B43A",
",  c #FCB53C",
"<  c #F5BB3C",
"1  c #FBBC3C",
"2  c #F9E119",
"3  c #FFCF2F",
"4  c #FED22D",
"5  c #F7DD29",
"6  c #FDDD2C",
"7  c #F4C234",
"8  c #FCC237",
"9  c #FCCD35",
"0  c #F5C53B",
"q  c #FCC43C",
"w  c #F0C838",
"e  c #FDCB3C",
"r  c #F4D131",
"t  c #FCD335",
"y  c #F5D43C",
"u  c #FCD23B",
"i  c #FFDB3B",
"p  c #FBE526",
"a  c #F8E030",
"s  c #EDB540",
"d  c #F4B444",
"f  c #FDB644",
"g  c #F6BB44",
"h  c #FCBA43",
"j  c #F4B74B",
"k  c #FCB64B",
"l  c #EDAD53",
"z  c #E5B45E",
"x  c #EDB35B",
"c  c #F3BF52",
"v  c #F2B25D",
"b  c #F4BC59",
"n  c #EBB560",
"m  c #E6B873",
"M  c #EFC045",
"N  c #EFCD46",
"B  c #F6C344",
"V  c #FAC442",
"C  c #F7CE43",
"Z  c #FCCB43",
"A  c #F3C24C",
"S  c #FDC649",
"D  c #FDCA4C",
"F  c #F5D244",
"G  c #FBD243",
"H  c #FCDB43",
"J  c #F6D64C",
"K  c #FDD24C",
"L  c #F7DB4D",
"P  c #FFDC4A",
"I  c #FCCC54",
"U  c #F7CF5C",
"Y  c #FDCF5A",
"T  c #FCD453",
"R  c #F6DE51",
"E  c #F9DD56",
"W  c #FBD35B",
"Q  c #F9DC59",
"!  c #FFC36B",
"~  c #F5D661",
"^  c #FDD663",
"/  c #FDDC65",
"(  c #FBD76B",
")  c #FEDA6C",
"_  c #FDDB74",
"`  c #FDDC7C",
"'  c #FDE163",
"]  c #FEE86C",
"[  c #FDE274",
"{  c #FFE975",
"}  c #FDE47E",
"|  c #F7D280",
" . c #FFDC84",
".. c #F6E587",
"X. c #FEE280",
"o. c #FCE283",
"O. c #FBE582",
"+. c #FFE481",
"@. c #FDE483",
"#. c #FEE582",
"$. c #FEE685",
"%. c #FCE586",
"&. c #FFE586",
"*. c #FEE786",
"=. c #FEE885",
"-. c #FFE987",
";. c #FEE58B",
":. c #FFE78A",
">. c #FBE68C",
",. c #FAE78E",
"<. c #FDE88B",
"1. c #FFE88A",
"2. c #FEE88B",
"3. c #FFE98B",
"4. c #FBE88F",
"5. c #FCE98C",
"6. c #FEE98C",
"7. c #FFEA8D",
"8. c #FDEB8E",
"9. c #FFEB8E",
"0. c #FDEC8C",
"q. c #FCE693",
"w. c #F9E890",
"e. c #FBEB92",
"r. c #FAEB93",
"t. c #FCE990",
"y. c #FDE993",
"u. c #FEEB93",
"i. c #FFED91",
"p. c #FBEB94",
"a. c #F9E896",
"s. c #FDEF97",
"d. c #FEE698",
"f. c #F6E89C",
"g. c #F9E99B",
"h. c #FEEC99",
"j. c #FFED9F",
"k. c #FFF093",
"l. c #FAEDA2",
"z. c #FDEEA5",
"x. c #F5EAAA",
"c. c #F6ECAA",
"v. c #F5E9AC",
"b. c #FFF0A6",
"n. c #FEF2BB",
/* pixels */
"                                                                                                    ",
"                                                                                                    ",
"                                                                                                    ",
"                                                                                                    ",
"                                                                                                    ",
"                                                                                                    ",
"                                                                                                    ",
"                                                                                                    ",
"                                                                                                    ",
"                                                                                                    ",
"                                                                                                    ",
"                                                                                                    ",
"                                        m l x n ` d.j.z.x.n.                                        ",
"                                    b = : > c ` ,.r.s.s.0.a.l.c.                                    ",
"                                  x * 1 - c _ :.q.a.i.8.i.h.g.f.v.                                  ",
"                                  < $ , k _ 1.6.>.r.6.6.>.q.y...r.b.                                ",
"                                * : : k ! #.1.1.8.1.:.$.$.:.$.{ { [                                 ",
"                                > : h b ` ..=.$.$.$.$.#.} o.[ ' L J                                 ",
"                              A : 1 g W ] } } } } o.o.} [ [ ~ J y H L                               ",
"                              B 8 8 B ) [ _ `  . .` [ ' E J J G t t C                               ",
"                            A B 8 q A ) [ _ `  . ._ / T F F F y t t G C                             ",
"                            A Z : V S _ ` ` ` ` _ / T G y e u u e u Z y                             ",
"                            0 7 q q I _ ` ` _ _ ^ K G e u 9 e e e e e r                             ",
"                            0 0 8 V T _ _ ( ( ^ K Z 9 e e 9 e e Z e e i                             ",
"                            q e q Z I ^ ( ( ^ K C q 9 e V e e V Z e V u                             ",
"                            e e Z C I ^ ( ~ W C 9 9 9 q S V V e 0 e B u                             ",
"                            Z 9 9 e I W W I D V V q 9 q V e e e q e e w                             ",
"                            Z t 9 e D W Y D B V V e q q q V q q Z q 7 0                             ",
"                            Z t 4 e S I Y S V V q e e 8 q e q q q q 8 h                             ",
"                              t 4 9 S I I V h V 1 1 1 8 1 8 q 1 q h q                               ",
"                              J t t Z D S 1 1 q 1 1 1 8 8 8 1 V V V 7                               ",
"                              Q H u K D B 1 1 1 1 1 1 1 ; ; 1 1 h g 0                               ",
"                                6 K G 6 O k f f h , h : # 1 f , q @                                 ",
"                                6 p G K e , < < h < < 1 < h f - + e                                 ",
"                                  2 u W Z 7 ; ; < > < h j f - $ <                                   ",
"                                    5 6 H e & & : - , , , - % -                                     ",
"                                      p a P Z ; > , f , % - k                                       ",
"                                        ] R E T B s d d d v                                         ",
"                                                o X .                                               ",
"                                                                                                    ",
"                                                                                                    ",
"                                                                                                    ",
"                                                                                                    ",
"                                                                                                    ",
"                                                                                                    ",
"                                                                                                    ",
"                                                                                                    ",
"                                                                                                    ",
"                                                                                                    ",
"                                                                                                    "
};
