/* XPM */
static char *f66b9d1f0b5c4329ee5acc85469db19ciJ6bWe62FQosSuoz[] = {
/* columns rows colors chars-per-pixel */
"50 50 151 2 ",
"   c None",
".  c #F4B916",
"X  c #F7AF28",
"o  c #E6B626",
"O  c #EFBE2E",
"+  c #F9B32B",
"@  c #FEBC2E",
"#  c #E4A630",
"$  c #EBBD36",
"%  c #EBB53E",
"&  c #EBB83B",
"*  c #F3B535",
"=  c #FDB535",
"-  c #F5BB33",
";  c #FBBB35",
":  c #F7B63D",
">  c #FDB53B",
",  c #F5BA3D",
"<  c #FBBD3C",
"1  c #FDC62B",
"2  c #F4C92F",
"3  c #FDCA2D",
"4  c #F5C136",
"5  c #FCC534",
"6  c #F5CF37",
"7  c #FACB35",
"8  c #F5C33A",
"9  c #FBC43C",
"0  c #FBCC3B",
"q  c #F4D332",
"w  c #FCD236",
"e  c #F1D933",
"r  c #FDDD37",
"t  c #F6D53D",
"y  c #FBD23B",
"u  c #F2DA3F",
"i  c #FDDB3E",
"p  c #F9E728",
"a  c #D7B95A",
"s  c #EEAE46",
"d  c #EBAD4E",
"f  c #EDB045",
"g  c #EDB148",
"h  c #EFBE4C",
"j  c #FAB743",
"k  c #F5B940",
"l  c #FBBC41",
"z  c #F2B549",
"x  c #FBB74C",
"c  c #F3BD4A",
"v  c #FCB94A",
"b  c #F5A952",
"n  c #E8B750",
"m  c #E4B855",
"M  c #EEBD5B",
"N  c #F3B351",
"B  c #F3BA51",
"V  c #F7C343",
"C  c #FAC444",
"Z  c #F6CC44",
"A  c #FBCC43",
"S  c #F6C549",
"D  c #FCC54C",
"F  c #F1CD4F",
"G  c #FCCB4B",
"H  c #F3D543",
"J  c #FAD242",
"K  c #FDDC40",
"L  c #FAD24C",
"P  c #F5D84B",
"I  c #F4C455",
"U  c #FCC654",
"Y  c #FBCB54",
"T  c #F6CE58",
"R  c #FECD5B",
"E  c #EFDB5E",
"W  c #FED152",
"Q  c #FDD35A",
"!  c #F6DC5C",
"~  c #FDDB5E",
"^  c #F9E140",
"/  c #FFEA42",
"(  c #FBE05F",
")  c #F5C764",
"_  c #FFC764",
"`  c #FECD63",
"'  c #F2CF6F",
"]  c #FFCF6C",
"[  c #FED464",
"{  c #FFDA65",
"}  c #FCD56B",
"|  c #FDD96C",
" . c #FEDB73",
".. c #FCD27F",
"X. c #FDDF7B",
"o. c #FFE26D",
"O. c #FEE272",
"+. c #FFE875",
"@. c #FDE17D",
"#. c #FFE87E",
"$. c #F6D688",
"%. c #FCDF88",
"&. c #FEE383",
"*. c #F7E68D",
"=. c #FCE78A",
"-. c #FFE78A",
";. c #FFE688",
":. c #FBE58E",
">. c #FFE68C",
",. c #FAE58A",
"<. c #FBE88B",
"1. c #FDE88A",
"2. c #FFE88B",
"3. c #FFE98B",
"4. c #FAE88E",
"5. c #FAEB8F",
"6. c #FEE88D",
"7. c #FFEA8D",
"8. c #FCE88E",
"9. c #FCEA8E",
"0. c #FFEA8F",
"q. c #FEEC8E",
"w. c #FFF28F",
"e. c #F3E894",
"r. c #F7EB95",
"t. c #FBE990",
"y. c #FAEA91",
"u. c #FBEA93",
"i. c #FAEA93",
"p. c #FCEB92",
"a. c #FDEB93",
"s. c #F8EC93",
"d. c #FDEC92",
"f. c #FCEF93",
"g. c #FAEB95",
"h. c #FDE894",
"j. c #FFEA97",
"k. c #FCED95",
"l. c #FDEF95",
"z. c #F9EF98",
"x. c #FAEE98",
"c. c #FFED9D",
"v. c #FEEF9F",
"b. c #FCF39A",
"n. c #FFFB98",
"m. c #E7DAB2",
"M. c #F1E2A1",
"N. c #F6EDA0",
"B. c #F7EAB5",
"V. c #FBEFB8",
"C. c #F8EEBF",
/* pixels */
"                                                                                                    ",
"                                                                                                    ",
"                                                                                                    ",
"                                                                                                    ",
"                                                                                                    ",
"                                                                                                    ",
"                                                                                                    ",
"                                                                                                    ",
"                                                                                                    ",
"                                                                                                    ",
"                                                                                                    ",
"                                                                                                    ",
"                                        a n m ' *.f.b.N.B.C.m.                                      ",
"                                    b l - I X.h.f.b.f.5.*.w.n.e.                                    ",
"                                  & = z M @.:.i.r.r.5.7.h.d.k.v.M.V.                                ",
"                                o . 9 ) $.3.7.i.f.u.7.3.:.h.v.h.,.q.                                ",
"                              B = ; B ;.5.5.5.5.5.*.;.;.;.3.;.&.+.o.E                               ",
"                              l < N ..;.#.*.<.,.;.&.&.&.&.#.o.~ P J t                               ",
"                            I ; @ I ,.%.@.@.&.@.@.&.&.#.O.! P t y K y i                             ",
"                            < C S  .@.@.@.@.&.,.&.@.X.[ J t y w w w i 6                             ",
"                            < C I  .X.X. .@.@.@.@.O.[ W J y y y y y y 6 q                           ",
"                          C 5 l I  .X. . .X.X.O.o.~ G L J y w w 0 y J J w                           ",
"                          5 9 V Y |  . . . . .{ Q Z y 0 A y 0 w w 0 0 G w                           ",
"                          3 9 V R }  . . .} | Q A 0 0 0 A 0 0 0 0 0 0 G 0                           ",
"                          1 5 C Q } | | } { ~ G 0 0 7 0 A 0 0 0 0 0 7 D A 7                         ",
"                          7 0 C W } ' } } } Y C 9 9 9 9 9 0 7 4 8 0 7 D C 0                         ",
"                          3 w 6 L ` ] ` R R D 9 5 5 0 0 0 9 9 0 0 9 5 5 9 U                         ",
"                          w 0 w G [ ` R Q Y C 9 9 9 9 9 9 C 9 9 9 9 9 5 5                           ",
"                          A y w J R ` R W S C 9 9 9 9 V 9 C 9 9 9 9 9 5 9                           ",
"                          F y J 0 G R U G V V 9 < < 9 9 9 < 9 9 V 9 ; 1 V                           ",
"                            y y 0 G U U C 8 8 9 < < 8 l < l < < 9 < 9 9 c                           ",
"                            J y w A D D l 4 - < < l l V < 9 < < < < ; ,                             ",
"                              e Y ` 5 3 , ; = = = ; ; l j < @ ; = l @ $                             ",
"                              e r W G l z < < > < > , j k j j > ; ; O                               ",
"                                p q W D % , < : > > k : > j v v , -                                 ",
"                                  u i i 2 - ; = > > > > = + + > s                                   ",
"                                      ^ / C * * > > > > > X ; #                                     ",
"                                          ! T c f f s z s d                                         ",
"                                                                                                    ",
"                                                                                                    ",
"                                                                                                    ",
"                                                                                                    ",
"                                                                                                    ",
"                                                                                                    ",
"                                                                                                    ",
"                                                                                                    ",
"                                                                                                    ",
"                                                                                                    ",
"                                                                                                    ",
"                                                                                                    "
};
