/* XPM */
static char *_46e34319f544af0d12a09ae4f367e95iHReNAiwB9QMMTdF[] = {
/* columns rows colors chars-per-pixel */
"50 50 147 2 ",
"   c None",
".  c #EFB52B",
"X  c #F6B42D",
"o  c #FCB52C",
"O  c #F3BD2B",
"+  c #FABC2F",
"@  c #FBAF3B",
"#  c #E9BB36",
"$  c #E2B73C",
"%  c #EBB53C",
"&  c #FEB531",
"*  c #F6BB35",
"=  c #FABB34",
"-  c #F5B43D",
";  c #FEB53D",
":  c #F5BB3C",
">  c #FBBD3C",
",  c #FEC121",
"<  c #FCC32B",
"1  c #F7CB2F",
"2  c #FFC92E",
"3  c #EED020",
"4  c #FBD329",
"5  c #F2C432",
"6  c #FBC533",
"7  c #F5CE34",
"8  c #FCCC34",
"9  c #F5C23D",
"0  c #FCC43D",
"q  c #F5CA3E",
"w  c #FDCB3C",
"e  c #F3D133",
"r  c #F8D636",
"t  c #FBDA37",
"y  c #FBD33C",
"u  c #F4D839",
"i  c #FCDA3D",
"p  c #F9E13E",
"a  c #ECAE4C",
"s  c #EDB646",
"d  c #EDBD44",
"f  c #EBB84E",
"g  c #F3B242",
"h  c #FEB544",
"j  c #FCBC43",
"k  c #F4BC4A",
"l  c #FABA4B",
"z  c #F2B853",
"x  c #FCBC54",
"c  c #F1B35A",
"v  c #DDBA63",
"b  c #EDC343",
"n  c #F3C445",
"m  c #FCC443",
"M  c #F4CB42",
"N  c #FCCB42",
"B  c #FDC44A",
"V  c #F4CE4F",
"C  c #FCCC4B",
"Z  c #F5D443",
"A  c #FBD243",
"S  c #F8DB45",
"D  c #F3D44B",
"F  c #FBD34A",
"G  c #FDC553",
"H  c #F6C950",
"J  c #FDCB54",
"K  c #F3C25B",
"L  c #F5CA59",
"P  c #FBCA5B",
"I  c #EDD251",
"U  c #F5D356",
"Y  c #FCD254",
"T  c #F9D854",
"R  c #FED15C",
"E  c #FCDB5C",
"W  c #FFE64B",
"Q  c #FFEA56",
"!  c #FACE64",
"~  c #FED466",
"^  c #FFDA66",
"/  c #F6D46B",
"(  c #FED46C",
")  c #FEDC6B",
"_  c #EDCE7A",
"`  c #FAD672",
"'  c #F5DC74",
"]  c #FBDB74",
"[  c #FEDD7A",
"{  c #FFE26D",
"}  c #F8EB73",
"|  c #FCE27C",
" . c #F3EE7A",
".. c #FCEB7B",
"X. c #FDDF82",
"o. c #FFDE8C",
"O. c #EBE48F",
"+. c #F7E785",
"@. c #FDE384",
"#. c #F6ED85",
"$. c #FDE984",
"%. c #FEE48B",
"&. c #F5EE8B",
"*. c #FFE98D",
"=. c #FFE98C",
"-. c #FDE88E",
";. c #FCEF8F",
":. c #FBEB8C",
">. c #FBF18C",
",. c #FEE292",
"<. c #FCE495",
"1. c #FEE796",
"2. c #FDE991",
"3. c #FFE991",
"4. c #FDEA91",
"5. c #F9EC90",
"6. c #FAED91",
"7. c #F9EE90",
"8. c #FBED92",
"9. c #FCEC91",
"0. c #FFED93",
"q. c #FEE895",
"w. c #FFE895",
"e. c #FAEC95",
"r. c #FDEC95",
"t. c #FCED97",
"y. c #F6EB9C",
"u. c #FBE899",
"i. c #FEE899",
"p. c #FEEA99",
"a. c #FEED9A",
"s. c #FBE99F",
"d. c #FCEB9F",
"f. c #FDEE9D",
"g. c #FEF892",
"h. c #E3D9B2",
"j. c #FDEAA1",
"k. c #FCEAA2",
"l. c #FCEBA3",
"z. c #FCEDA1",
"x. c #F6ECAD",
"c. c #FEEEA9",
"v. c #F9EFAC",
"b. c #FCEFAF",
"n. c #F3E6B0",
"m. c #FBF3C4",
"M. c #FEFECA",
/* pixels */
"                                                                                                    ",
"                                                                                                    ",
"                                                                                                    ",
"                                                                                                    ",
"                                                                                                    ",
"                                                                                                    ",
"                                                                                                    ",
"                                                                                                    ",
"                                                                                                    ",
"                                                                                                    ",
"                                                                                                    ",
"                                                                                                    ",
"                                          v _ 1.j.c.v.x.n.m.h.                                      ",
"                                    K $ V { ..$.0.a.f.z.d.6.&.O.M.                                  ",
"                                  s f ` -.1.1.p.p.0.9.9.t.;.>.6.y.b.                                ",
"                                6 X ` w.t.k.k.k.u.2.:.:.5.:.:.$.g.....                              ",
"                              # O ~ o.:. .#.+.:.2.2.=.=.:.-.-.@.{ ^ S I                             ",
"                            * : L %.,.@.} } ..+.%.-.%.%.@.| { U D F S i /                           ",
"                            o k ] +.+.%.%.@.%.%.@.@.@.| ) Y S t t y y 7 u                           ",
"                          q 0 L $.| | @.%.[ o.X.@.| ) E S S y r r r y A Z D                         ",
"                          5 > ^ | | | [ o.] | @.] ) R A y y y y r y y A Z Z                         ",
"                        d 6 > ) ' ] [ [ [ | ] { ) Y A A 8 w y y w y y A A w /                       ",
"                        q = N ) ] ] ] ] [ ' ] ^ Y N w 8 y w w w N N y w N 8 L                       ",
"                        6 m C ( ' ] ( ] ] ` ^ Y N w w 8 w 8 w w w w 8 w N 8 n                       ",
"                        8 G C ^ ` ( ( ( ` ( Y m w w N w 0 0 w w w w 1 w m 8 9                       ",
"                        8 x C ^ ` ( ~ ( ` ~ C m 6 w N m N q q w w 8 1 q B < N                       ",
"                        N B C R ~ ( / ~ R J B N 0 w 0 0 q 0 w 0 q 0 M 6 m m 5                       ",
"                        N w A Y ! ( ~ R J B m 0 0 0 m 0 w 0 0 0 0 0 0 0 m 8 q                       ",
"                        M 4 N Y P ! P R J m m 0 0 0 m 0 0 0 0 0 0 0 m m 0 8                         ",
"                          4 A N P P P J B j > > > > 0 > > 0 0 > 0 > 0 j 9 5                         ",
"                          e y C V P G B m ; > > 6 > 0 j > 0 : 0 : 0 + j m M                         ",
"                          Z y C B J G B > = > > > > j : > : > > 0 > < h k                           ",
"                            3 A F 0 0 j l h h l h h h h = ; h h j > o ,                             ",
"                              S A m l l - = = * * = = = : ; j > - > O *                             ",
"                                p A l ; o = = = * * = = - = = = > k f                               ",
"                                  Z S 5 6 h h h h ; h h ; & o X % z                                 ",
"                                    W Q # = + & o & & & @ ; - x                                     ",
"                                          V b % g - - g a c                                         ",
"                                                                                                    ",
"                                                                                                    ",
"                                                                                                    ",
"                                                                                                    ",
"                                                                                                    ",
"                                                                                                    ",
"                                                                                                    ",
"                                                                                                    ",
"                                                                                                    ",
"                                                                                                    ",
"                                                                                                    ",
"                                                                                                    "
};
