/* XPM */
static char *fd31457be2b14520a346c7a217e183c9AfFv4Ck8mF1hDfIL[] = {
/* columns rows colors chars-per-pixel */
"50 50 153 2 ",
"   c None",
".  c #EABD23",
"X  c #F4BB27",
"o  c #E9A739",
"O  c #FDAF3D",
"+  c #F4B034",
"@  c #FEB335",
"#  c #F4BE33",
"$  c #FDBA35",
"%  c #FDB53B",
"&  c #F3BD3F",
"*  c #FBBC3C",
"=  c #F7C726",
"-  c #F3C22B",
";  c #F9C22E",
":  c #FAD02D",
">  c #EDC436",
",  c #EEC63B",
"<  c #EBCB3C",
"1  c #F2C235",
"2  c #FCC734",
"3  c #F4CB33",
"4  c #FDCA35",
"5  c #F0C739",
"6  c #FBC43C",
"7  c #F6CB3D",
"8  c #FECB3C",
"9  c #EFD831",
"0  c #F4D333",
"q  c #FCD234",
"w  c #F4D53F",
"e  c #FED33E",
"r  c #F3D83C",
"t  c #FAD83B",
"y  c #DCB550",
"u  c #F1AE45",
"i  c #F1AE4C",
"p  c #FFAF4A",
"a  c #ECB446",
"s  c #E6B54B",
"d  c #EEB449",
"f  c #FDB543",
"g  c #FEBE43",
"h  c #F4B44B",
"j  c #FFB34C",
"k  c #F0BB4C",
"l  c #FDBA4A",
"z  c #FCAF52",
"x  c #EDBE57",
"c  c #FEB755",
"v  c #FEB15D",
"b  c #FFBC59",
"n  c #E4BD66",
"m  c #E7C644",
"M  c #E7C14E",
"N  c #EEC34A",
"B  c #F5C443",
"V  c #FDC343",
"C  c #F5CB44",
"Z  c #FCCC42",
"A  c #F6C14A",
"S  c #FDC44B",
"D  c #F7CE4E",
"F  c #FACD4A",
"G  c #EDD748",
"H  c #F7D144",
"J  c #FBD443",
"K  c #F4DB46",
"L  c #FFD944",
"P  c #F7D54A",
"I  c #FCD34D",
"U  c #F7DB4C",
"Y  c #FEDB4A",
"T  c #ECC551",
"R  c #FDC652",
"E  c #FDCC55",
"W  c #F7CF58",
"Q  c #FDCA5A",
"!  c #F7D451",
"~  c #FCD554",
"^  c #F7D850",
"/  c #FADA57",
"(  c #FED25D",
")  c #FCCD64",
"_  c #F2CA69",
"`  c #FDCD6A",
"'  c #FCD365",
"]  c #F7DB63",
"[  c #FDDB65",
"{  c #FBD46B",
"}  c #FDDA6D",
"|  c #E0C177",
" . c #FECD7D",
".. c #FDD771",
"X. c #FDDC73",
"o. c #FCDE7A",
"O. c #FEE263",
"+. c #FDE16A",
"@. c #FEE374",
"#. c #FEE877",
"$. c #FCE37C",
"%. c #FEE97E",
"&. c #FBDE80",
"*. c #F4DA9B",
"=. c #FEE483",
"-. c #F4EB87",
";. c #FEE984",
":. c #FFE68A",
">. c #FCEB8E",
",. c #FFE98F",
"<. c #FBED8C",
"1. c #FCEE8D",
"2. c #FEEC8E",
"3. c #FCEA8B",
"4. c #FEF08A",
"5. c #FCF08D",
"6. c #FEE790",
"7. c #F9E095",
"8. c #FDE795",
"9. c #FBEA92",
"0. c #FEE891",
"q. c #FEEA91",
"w. c #FDE993",
"e. c #FCEB93",
"r. c #FEEA93",
"t. c #FEEA92",
"y. c #FBEC90",
"u. c #F8ED93",
"i. c #FAED93",
"p. c #FCEC93",
"a. c #FBEA97",
"s. c #FCE896",
"d. c #FFEB97",
"f. c #FBEC95",
"g. c #FBEA98",
"h. c #FCEA98",
"j. c #FAEC9A",
"k. c #FDEC9A",
"l. c #FBE99F",
"z. c #FEF299",
"x. c #EADCAE",
"c. c #FAE7A5",
"v. c #FEE6A6",
"b. c #F8EBA2",
"n. c #FDE8A6",
"m. c #F9EEA4",
"M. c #FFECA4",
"N. c #FBEBA8",
"B. c #F8E8AB",
"V. c #F9EDAF",
"C. c #FCF1AC",
"Z. c #F5EDB7",
"A. c #FDFBD5",
/* pixels */
"                                                                                                    ",
"                                                                                                    ",
"                                                                                                    ",
"                                                                                                    ",
"                                                                                                    ",
"                                                                                                    ",
"                                                                                                    ",
"                                                                                                    ",
"                                                                                                    ",
"                                                                                                    ",
"                                                                                                    ",
"                                                                                                    ",
"                                        | *.v.v.c.N.C.V.x.A.                                        ",
"                                  s M %.-.u.<.<.1.p.g.f.5.u.m.Z.                                    ",
"                                n _ :.8.l.p.1.3.>.9.g.k.u.z.j.b.B.                                  ",
"                              y $.:.d.7.M.w.w.w.w.w.w.8.a.>.3.4.;.$.                                ",
"                            k { ;.1.3.,.:.,.6.6.6.,.3.w.3.;.+.O.U P U                               ",
"                          s ) %.=.3.=.%.%.:.:.,.:.:.=.%.@.[ ~ K L e t <                             ",
"                        x # $.$.%.=.=.:.:.=.=.,.=.;.#.} I H e L e J L t K                           ",
"                        < ) =.$.$.$.=.=.:.&.=.$.#.} ~ P e e e e e e 0 I w                           ",
"                      N > } &.o.@.$.$.o.&.&.$.@.] ~ F Z e e e e e e q I J 9                         ",
"                      B H @.o.o.o.X.$.$.o.o.@.[ ! H 8 8 e 8 e 8 8 e q Z e 0                         ",
"                      B D } X.X.X.X.o.X.o.X.[ D Z 8 8 4 e 8 8 8 e 8 4 8 4 q                         ",
"                      B ( X.......X...X...[ E Z 8 8 8 8 8 Z 8 8 8 8 8 8 6 8                         ",
"                      V ' X.[ } ....} { ' E C 8 2 8 6 Z 8 8 8 8 8 8 Z 4 V 8                         ",
"                      S ` ..[ { { { { ' ' F V 2 2 6 7 C 6 6 V 6 6 6 V 4 V 6                         ",
"                      : I  .{ { { { ' ' E 6 6 6 6 7 6 7 8 6 6 8 6 8 4 6 V 6                         ",
"                      3 F ` ` ' { ) ' E A 6 6 6 6 6 6 6 6 6 6 6 6 6 6 V 6 2                         ",
"                      Z Z E ) ) ) ) Q B V 6 6 6 6 6 6 6 6 6 V 6 6 6 6 V 6 3                         ",
"                      W J 6 ) ) Q Q S V 6 * * 6 * 6 * 6 6 6 6 * 6 6 % g V ,                         ",
"                        C 0 Q Q Q R S V * 6 * 6 * & 6 g * * * * * & * + &                           ",
"                        ~ K S R R R S g * * * * * * * * * 6 * * 6 * $ % A                           ",
"                          G 6 S c b l # = $ $ $ $ $ $ $ $ # 1 $ f j $ g                             ",
"                            Y B S l l l l $ % # % % # $ $ % f l % $ *                               ",
"                              ~ # # f c v * % % & % % % @ f p p % #                                 ",
"                                m - X $ % % % % % @ @ % @ @ @ % h                                   ",
"                                    5 . - + % % % % % O o % $                                       ",
"                                        N a a d h h u i                                             ",
"                                                                                                    ",
"                                                                                                    ",
"                                                                                                    ",
"                                                                                                    ",
"                                                                                                    ",
"                                                                                                    ",
"                                                                                                    ",
"                                                                                                    ",
"                                                                                                    ",
"                                                                                                    ",
"                                                                                                    ",
"                                                                                                    "
};
