/* XPM */
static char *_9456b5abc074a8bec9599c04dc183e0p253jL62fXSPEwXb[] = {
/* columns rows colors chars-per-pixel */
"50 50 156 2 ",
"   c None",
".  c #F1AC2C",
"X  c #F9AB2F",
"o  c #EFB923",
"O  c #F8BA27",
"+  c #F3B42C",
"@  c #FFB32F",
"#  c #F5BD2C",
"$  c #FEBB2E",
"%  c #F6AF30",
"&  c #E7B135",
"*  c #EEBB33",
"=  c #F3B230",
"-  c #FDB533",
";  c #F6BA35",
":  c #FCBA34",
">  c #F4B43D",
",  c #FEB43D",
"<  c #F7BA39",
"1  c #FBBD3C",
"2  c #E3CF2E",
"3  c #FCC52F",
"4  c #FDCF2B",
"5  c #F9D12B",
"6  c #EEC739",
"7  c #F5C033",
"8  c #FEC334",
"9  c #F5CB35",
"0  c #FDCC35",
"q  c #F5C33A",
"w  c #FCC43C",
"e  c #F6C83D",
"r  c #FDCC3B",
"t  c #F6D033",
"y  c #FCD237",
"u  c #F7D13B",
"i  c #FDD33B",
"p  c #ECBD43",
"a  c #EEBC4A",
"s  c #F5B347",
"d  c #FDB443",
"f  c #F7B943",
"g  c #FBBB43",
"h  c #F0B34D",
"j  c #FCB548",
"k  c #EDB75F",
"l  c #FEBB53",
"z  c #FCBF59",
"x  c #EDC648",
"c  c #F3C243",
"v  c #FBC342",
"b  c #F9CB43",
"n  c #F7C649",
"m  c #FDC44C",
"M  c #FBCA4B",
"N  c #F6D441",
"B  c #F9D343",
"V  c #F6D249",
"C  c #FCD64C",
"Z  c #F6DA4B",
"A  c #FCD94C",
"S  c #F4C553",
"D  c #FCC553",
"F  c #F4CF56",
"G  c #FCCA54",
"H  c #FCCB5B",
"J  c #F7D152",
"K  c #FCD556",
"L  c #FDD35B",
"P  c #FBD95A",
"I  c #FCE05D",
"U  c #F5CE64",
"Y  c #F8CE60",
"T  c #FFCE69",
"R  c #F4D465",
"E  c #FBD363",
"W  c #F7DA64",
"Q  c #FCDD65",
"!  c #F4D46B",
"~  c #FCD56C",
"^  c #FBDD6B",
"/  c #ECD971",
"(  c #F6D372",
")  c #FCD174",
"_  c #F6DC74",
"`  c #FDDB74",
"'  c #FED77C",
"]  c #FCDE7B",
"[  c #FFE36D",
"{  c #FDE173",
"}  c #F1E47D",
"|  c #FDE17E",
" . c #FBCE83",
".. c #FDD281",
"X. c #FDDD85",
"o. c #FDDE8D",
"O. c #FDE483",
"+. c #FEEA85",
"@. c #F6E389",
"#. c #FEE68B",
"$. c #F6ED89",
"%. c #FFE98F",
"&. c #FEEA8E",
"*. c #FEE98D",
"=. c #FDEC8C",
"-. c #FDEF8E",
";. c #FFEE8F",
":. c #FFEC89",
">. c #FFF48C",
",. c #FEF78E",
"<. c #F7E690",
"1. c #FEE591",
"2. c #FEE690",
"3. c #FFE690",
"4. c #FDE795",
"5. c #FFE796",
"6. c #F7EC93",
"7. c #FAE992",
"8. c #FFE990",
"9. c #FCEB91",
"0. c #FFEB91",
"q. c #FEE893",
"w. c #FEEB93",
"e. c #FFEB93",
"r. c #FEEA93",
"t. c #FBED93",
"y. c #FDED90",
"u. c #FEED91",
"i. c #FFEF90",
"p. c #FCED92",
"a. c #FCED93",
"s. c #FDEE93",
"d. c #FFEE93",
"f. c #FFE995",
"g. c #FFEA94",
"h. c #FBEF95",
"j. c #FDEC94",
"k. c #FCEC94",
"l. c #FCEE95",
"z. c #FDEE95",
"x. c #FEEE97",
"c. c #F8E79F",
"v. c #F9E998",
"b. c #FFE998",
"n. c #FFEF9B",
"m. c #EEDABD",
"M. c #FAEBA3",
"N. c #F9EAA6",
"B. c #F9ECA4",
"V. c #FBEDA5",
"C. c #FAE7AB",
"Z. c #F8E9AB",
"A. c #FAF1AF",
"S. c #F7E7B0",
"D. c #FCEEB1",
"F. c #F8EBBD",
/* pixels */
"                                                                                                    ",
"                                                                                                    ",
"                                                                                                    ",
"                                                                                                    ",
"                                                                                                    ",
"                                                                                                    ",
"                                                                                                    ",
"                                                                                                    ",
"                                                                                                    ",
"                                                                                                    ",
"                                                                                                    ",
"                                                                                                    ",
"                                        m.Z.A.B.M.B.D.S.F.                                          ",
"                                    n.9.<.t.x.t.w.w.w.>.$.6.B.                                      ",
"                                  >.=.w.$.t.p.x.w.w.f.w.x.x.v.c.Z.                                  ",
"                              @.+.:.:.%.w.&.9.w.f.w.f.f.f.%.:.:.,.,.}                               ",
"                            / +.O.=.*.2.4.%.%.w.%.#.%.2.#.| [ I Z Z Z W                             ",
"                            O.O.#.2.2.2.2.#.#.#.+.*.:.| [ P A N i i t A                             ",
"                          Q O.+.*.#.#.+.O.#.#.+.O.| { Q Z B i i i i y i N                           ",
"                        ! | O.O.O.X.O.| O.o.X.] { P Z N y i i i i i i i A                           ",
"                        { O.] | ] | ] | ] X.X.` L V B u i i B r i i y B B V                         ",
"                      F ` _ ] | | ] ] ] ] { ^ L V b y y r y r i r i i b B y                         ",
"                      J ` { ` ` ` ` ` ` _ [ K N r r 0 0 r r r r r r u b r 5                         ",
"                      J ' W ` ` ` ` ` ` ` K b r 0 0 r r r r r r r r r M b 4                         ",
"                      K ..W ~ ` ~ ~ ~ ` ~ M w r 0 r r b r r r w r r 9 b M 0 c                       ",
"                      P  .W ~ ~ ~ ~ ~ ~ U v v 8 8 w b b w r 0 w r w 9 w m w c                       ",
"                      B ) ( ~ ~ ~ E E K m w w w w w w w r w w w w w 9 e g 8                         ",
"                      K T ~ Y U E E H M n w v w w w w w w w w w w w 9 e v 3                         ",
"                      S H H H U E E G c v w w w w w w w w v w w w w e v 1 3                         ",
"                        G H H H H H S v v w 1 w 1 w 1 w w q w w 1 w q m 1 e                         ",
"                        G S H D H G m 1 1 1 1 1 1 1 1 g g q 1 1 w 1 1 g m a                         ",
"                          R D D D m f 1 1 1 1 1 1 1 1 1 q 1 1 1 1 1 8 : s                           ",
"                          2 k z m w : q q $ $ - - 1 1 : d : 7 8 : d X w                             ",
"                            6 M l l d : # 1 1 d d d d g 1 f f g < - <                               ",
"                              x & 1 , d d ; ; - ; - < ; < d j j > *                                 ",
"                                  7 O - d d d , , d j d : @ - , h                                   ",
"                                    p 7 o > X - - @ X , j . =                                       ",
"                                          * * + + + = >                                             ",
"                                                                                                    ",
"                                                                                                    ",
"                                                                                                    ",
"                                                                                                    ",
"                                                                                                    ",
"                                                                                                    ",
"                                                                                                    ",
"                                                                                                    ",
"                                                                                                    ",
"                                                                                                    ",
"                                                                                                    ",
"                                                                                                    "
};
