/* XPM */
static char *result[] = {
/* columns rows colors chars-per-pixel */
"50 50 126 2 ",
"   c #DDAB39",
".  c #EAB428",
"X  c #FBB724",
"o  c #F8BB27",
"O  c #F6B22F",
"+  c #FCB72D",
"@  c #EFAA34",
"#  c #EEBB3B",
"$  c #F5BB37",
"%  c #FDBA35",
"&  c #F6B43D",
"*  c #FCB63B",
"=  c #F7BB3D",
"-  c #FBBC3C",
";  c #F2C824",
":  c #F9C62E",
">  c #F5C828",
",  c #FBD22C",
"<  c #F4C732",
"1  c #FDC533",
"2  c #F1CA31",
"3  c #FCCC36",
"4  c #F5C23C",
"5  c #FBC33B",
"6  c #F6CA3A",
"7  c #FCCB3C",
"8  c #F9D530",
"9  c #F7D63E",
"0  c #FDD33C",
"q  c #958368",
"w  c #BAAD76",
"e  c #F6AF41",
"r  c #F7B142",
"t  c #FCB543",
"y  c #F4B843",
"u  c #FDBA42",
"i  c #FCBD4E",
"p  c #EFB452",
"a  c #F2BC53",
"s  c #F3BE61",
"d  c #E9C649",
"f  c #F4C645",
"g  c #FCC544",
"h  c #F6CC42",
"j  c #FBCB44",
"k  c #FDC44B",
"l  c #F4CA4A",
"z  c #FBCB4B",
"x  c #F4D747",
"c  c #FED446",
"v  c #FCD44A",
"b  c #FEDB48",
"n  c #E2C454",
"m  c #EAC651",
"M  c #EECB54",
"N  c #EAC059",
"B  c #F3C254",
"V  c #FBC653",
"C  c #FBCB53",
"Z  c #F7C25E",
"A  c #FCC45B",
"S  c #FCCB5C",
"D  c #FBD352",
"F  c #FADB52",
"G  c #F6D45B",
"H  c #FAD35A",
"J  c #FFD85D",
"K  c #FEE24C",
"L  c #FBE05B",
"P  c #E3C962",
"I  c #F3CD67",
"U  c #FBCE64",
"Y  c #F3C26A",
"T  c #F5CA6D",
"R  c #FFCA6B",
"E  c #FCD463",
"W  c #FEDB66",
"Q  c #FDD56B",
"!  c #FEDA6C",
"~  c #F3CE7E",
"^  c #FFCA78",
"/  c #EEDB75",
"(  c #F7D373",
")  c #FCD673",
"_  c #FEDA74",
"`  c #F5DF7D",
"'  c #FDDB7C",
"]  c #FDE474",
"[  c #FCE37D",
"{  c #B4A383",
"}  c #CCC081",
"|  c #DDC386",
" . c #DECB85",
".. c #D4CA8F",
"X. c #D6C997",
"o. c #D8CD98",
"O. c #F8CD82",
"+. c #E7DA8D",
"@. c #F5DE87",
"#. c #FDDE82",
"$. c #EFE385",
"%. c #F7E384",
"&. c #FEE483",
"*. c #FDEA84",
"=. c #F6E68F",
"-. c #FEE68B",
";. c #F5E888",
":. c #FDEA8B",
">. c #FEF086",
",. c #FDF68F",
"<. c #F7E491",
"1. c #FEE594",
"2. c #F2E996",
"3. c #FCEA93",
"4. c #F6E29B",
"5. c #FBE59B",
"6. c #F4E898",
"7. c #FCEC9A",
"8. c #FEF197",
"9. c #FFF19F",
"0. c #EDD9A3",
"q. c #FBEBA1",
"w. c #FBF0B4",
"e. c #F4F3C2",
"r. c #FDFCC6",
"t. c None",
/* pixels */
"t.t.t.t.t.t.t.t.t.t.t.t.t.t.t.t.t.t.t.t.t.t.t.t.t.t.t.t.t.t.t.t.t.t.t.t.t.t.t.t.t.t.t.t.t.t.t.t.t.t.",
"t.t.t.t.t.t.t.t.t.t.t.t.t.t.t.t.t.t.t.t.t.t.t.t.t.t.t.t.t.t.t.t.t.t.t.t.t.t.t.t.t.t.t.t.t.t.t.t.t.t.",
"t.t.t.t.t.t.t.t.t.t.t.t.t.t.t.t.t.t.t.t.t.t.t.t.t.t.t.t.t.t.t.t.t.t.t.t.t.t.t.t.t.t.t.t.t.t.t.t.t.t.",
"t.t.t.t.t.t.t.t.t.t.t.t.t.t.t.t.t.t.t.t.t.t.t.t.t.t.t.t.t.t.t.t.t.t.t.t.t.t.t.t.t.t.t.t.t.t.t.t.t.t.",
"t.t.t.t.t.t.t.t.t.t.t.t.t.t.t.t.t.t.t.t.t.t.t.t.t.t.t.t.t.t.t.t.t.t.t.t.t.t.t.t.t.t.t.t.t.t.t.t.t.t.",
"t.t.t.t.t.t.t.t.t.t.t.t.t.t.t.t.t.t.t.t.t.t.t.t.t.t.t.t.t.t.t.t.t.t.t.t.t.t.t.t.t.t.t.t.t.t.t.t.t.t.",
"t.t.t.t.t.t.t.t.t.t.t.t.t.t.t.t.t.t.t.t.t.t.t.t.t.t.t.t.t.t.t.t.t.t.t.t.t.t.t.t.t.t.t.t.t.t.t.t.t.t.",
"t.t.t.t.t.t.t.t.t.t.t.t.t.t.t.t.t.t.t.t.t.t.t.t.t.t.t.t.t.t.t.t.t.t.t.t.t.t.t.t.t.t.t.t.t.t.t.t.t.t.",
"t.t.t.t.t.t.t.t.t.t.t.t.t.t.t.t.t.t.t.t.t.t.t.t.t.t.t.t.t.t.t.t.t.t.t.t.t.t.t.t.t.t.t.t.t.t.t.t.t.t.",
"t.t.t.t.t.t.t.t.t.t.t.t.t.t.t.t.t.t.t.t.t.t.t.t.t.t.t.t.t.t.t.t.t.t.t.t.t.t.t.t.t.t.t.t.t.t.t.t.t.t.",
"t.t.t.t.t.t.t.t.t.t.t.t.t.t.t.t.t.t.t.t.t.t.t.t.t.t.t.t.t.t.t.t.t.t.t.t.t.t.t.t.t.t.t.t.t.t.t.t.t.t.",
"t.t.t.t.t.t.t.t.t.t.t.t.t.t.t.t.t.t.t.t.t.t.t.t.t.t.t.t.t.t.t.t.t.t.t.t.t.t.t.t.t.t.t.t.t.t.t.t.t.t.",
"t.t.t.t.t.t.t.t.t.t.t.t.t.t.t.t.t.t.t.t.t.t.t.X.o.X.} w { q t.t.t.t.t.t.t.t.t.t.t.t.t.t.t.t.t.t.t.t.",
"t.t.t.t.t.t.t.t.t.t.t.t.t.t.t.t.t.t.t.t.r.q.7.8.3.7.7.q.5.9.3. .t.t.t.t.t.t.t.t.t.t.t.t.t.t.t.t.t.t.",
"t.t.t.t.t.t.t.t.t.t.t.t.t.t.t.t.t.t.w.6.3.7.7.3.8.3.7.7.7.3.3.7.4.| t.t.t.t.t.t.t.t.t.t.t.t.t.t.t.t.",
"t.t.t.t.t.t.t.t.t.t.t.t.t.t.t.t.e.+.;.8.;.7.<.8.3.3.3.3.=.7.8.8.` >.P t.t.t.t.t.t.t.t.t.t.t.t.t.t.t.",
"t.t.t.t.t.t.t.t.t.t.t.t.t.t.t.0.7.*.*.:.3.3.1.3.:.:.:.3.3.3.3.*.] L F M t.t.t.t.t.t.t.t.t.t.t.t.t.t.",
"t.t.t.t.t.t.t.t.t.t.t.t.t.t.4.<.;.*.:.3.5.:.-.-.-.-.*.*.[ [ ! H D b b c m t.t.t.t.t.t.t.t.t.t.t.t.t.",
"t.t.t.t.t.t.t.t.t.t.t.t.t.t.3.3.%.&.-.-.-.&.-.-.-.:.&.] K x 9 9 0 0 0 3 K n t.t.t.t.t.t.t.t.t.t.t.t.",
"t.t.t.t.t.t.t.t.t.t.t.t.t.2.' &.&.&.&.&.&.%.%.;.&.] W v 9 0 0 0 0 0 0 c b 8 l t.t.t.t.t.t.t.t.t.t.t.",
"t.t.t.t.t.t.t.t.t.t.t.t.t.$.[ [ &.#.&.&.#.%.&.[ ] H z c 0 c 0 0 c 0 0 7 h , l t.t.t.t.t.t.t.t.t.t.t.",
"t.t.t.t.t.t.t.t.t.t.t.t.4./ ' [ ' #.#.#.#.' ] ! G v z 0 0 0 0 0 0 0 0 c c 8 7 O.t.t.t.t.t.t.t.t.t.t.",
"t.t.t.t.t.t.t.t.t.t.t.t.@.] ' ' ' ' ' ' ' _ W H z c 7 0 0 0 0 0 0 3 0 6 6 3 7 a t.t.t.t.t.t.t.t.t.t.",
"t.t.t.t.t.t.t.t.t.t.t.t.' Q ' ' ' _ ' _ _ W C z 7 7 3 3 7 7 7 7 7 7 j 0 7 j 3 l t.t.t.t.t.t.t.t.t.t.",
"t.t.t.t.t.t.t.t.t.t.t.t.) Q ) ) ) ! ! ! ! H z j 7 7 7 7 7 7 7 7 7 7 j 3 7 j 1 3 t.t.t.t.t.t.t.t.t.t.",
"t.t.t.t.t.t.t.t.t.t.t.t.) Q Q ) ! Q Q W W l h 7 1 7 7 7 7 7 7 6 7 7 7 3 7 k 1 < t.t.t.t.t.t.t.t.t.t.",
"t.t.t.t.t.t.t.t.t.t.t.t.E ^ Q Q Q Q E J f 7 7 5 7 7 7 7 5 j j 5 5 7 5 3 7 k : 2 t.t.t.t.t.t.t.t.t.t.",
"t.t.t.t.t.t.t.t.t.t.t.t.E R E E Q Q E C g 5 1 5 5 5 1 5 5 7 5 5 j 5 5 1 4 j : 7 t.t.t.t.t.t.t.t.t.t.",
"t.t.t.t.t.t.t.t.t.t.t.t.I S U U I U S f g 5 5 5 5 1 5 5 5 5 5 g 5 5 5 5 4 5 3 V t.t.t.t.t.t.t.t.t.t.",
"t.t.t.t.t.t.t.t.t.t.t.t.~ S S S U U V g 5 5 5 5 5 - 5 5 5 5 - 5 5 5 4 4 4 : . Y t.t.t.t.t.t.t.t.t.t.",
"t.t.t.t.t.t.t.t.t.t.t.t.t.A S S S S k u - 5 - 5 - 5 5 - g - 5 - 5 - 5 u 4 ; j t.t.t.t.t.t.t.t.t.t.t.",
"t.t.t.t.t.t.t.t.t.t.t.t.t.Z C V S A i - % 5 $ - 5 $ 4 - = - 5 - - 4 % - 4 ; D t.t.t.t.t.t.t.t.t.t.t.",
"t.t.t.t.t.t.t.t.t.t.t.t.t.t.A S j k - % 1 - - - u u u u - u u - * % * = 3 d t.t.t.t.t.t.t.t.t.t.t.t.",
"t.t.t.t.t.t.t.t.t.t.t.t.t.t.Y B k k t u * % * - - u u * - - = u u u * $ f t.t.t.t.t.t.t.t.t.t.t.t.t.",
"t.t.t.t.t.t.t.t.t.t.t.t.t.t.t.T i i t * * % % % * - * - - $ = = = r * V ( t.t.t.t.t.t.t.t.t.t.t.t.t.",
"t.t.t.t.t.t.t.t.t.t.t.t.t.t.t.t.s t * + X * * * * * * * & * + + % $ y T t.t.t.t.t.t.t.t.t.t.t.t.t.t.",
"t.t.t.t.t.t.t.t.t.t.t.t.t.t.t.t.t.t.a - o @ & t - * - u t * % O k   t.t.t.t.t.t.t.t.t.t.t.t.t.t.t.t.",
"t.t.t.t.t.t.t.t.t.t.t.t.t.t.t.t.t.t.t.t.p e t t t t * r t & y a t.t.t.t.t.t.t.t.t.t.t.t.t.t.t.t.t.t.",
"t.t.t.t.t.t.t.t.t.t.t.t.t.t.t.t.t.t.t.t.t.t.i t & r & & # C t.t.t.t.t.t.t.t.t.t.t.t.t.t.t.t.t.t.t.t.",
"t.t.t.t.t.t.t.t.t.t.t.t.t.t.t.t.t.t.t.t.t.t.t.t.t.t.t.t.t.t.t.t.t.t.t.t.t.t.t.t.t.t.t.t.t.t.t.t.t.t.",
"t.t.t.t.t.t.t.t.t.t.t.t.t.t.t.t.t.t.t.t.t.t.t.t.t.t.t.t.t.t.t.t.t.t.t.t.t.t.t.t.t.t.t.t.t.t.t.t.t.t.",
"t.t.t.t.t.t.t.t.t.t.t.t.t.t.t.t.t.t.t.t.t.t.t.t.t.t.t.t.t.t.t.t.t.t.t.t.t.t.t.t.t.t.t.t.t.t.t.t.t.t.",
"t.t.t.t.t.t.t.t.t.t.t.t.t.t.t.t.t.t.t.t.t.t.t.t.t.t.t.t.t.t.t.t.t.t.t.t.t.t.t.t.t.t.t.t.t.t.t.t.t.t.",
"t.t.t.t.t.t.t.t.t.t.t.t.t.t.t.t.t.t.t.t.t.t.t.t.t.t.t.t.t.t.t.t.t.t.t.t.t.t.t.t.t.t.t.t.t.t.t.t.t.t.",
"t.t.t.t.t.t.t.t.t.t.t.t.t.t.t.t.t.t.t.t.t.t.t.t.t.t.t.t.t.t.t.t.t.t.t.t.t.t.t.t.t.t.t.t.t.t.t.t.t.t.",
"t.t.t.t.t.t.t.t.t.t.t.t.t.t.t.t.t.t.t.t.t.t.t.t.t.t.t.t.t.t.t.t.t.t.t.t.t.t.t.t.t.t.t.t.t.t.t.t.t.t.",
"t.t.t.t.t.t.t.t.t.t.t.t.t.t.t.t.t.t.t.t.t.t.t.t.t.t.t.t.t.t.t.t.t.t.t.t.t.t.t.t.t.t.t.t.t.t.t.t.t.t.",
"t.t.t.t.t.t.t.t.t.t.t.t.t.t.t.t.t.t.t.t.t.t.t.t.t.t.t.t.t.t.t.t.t.t.t.t.t.t.t.t.t.t.t.t.t.t.t.t.t.t.",
"t.t.t.t.t.t.t.t.t.t.t.t.t.t.t.t.t.t.t.t.t.t.t.t.t.t.t.t.t.t.t.t.t.t.t.t.t.t.t.t.t.t.t.t.t.t.t.t.t.t.",
"t.t.t.t.t.t.t.t.t.t.t.t.t.t.t.t.t.t.t.t.t.t.t.t.t.t.t.t.t.t.t.t.t.t.t.t.t.t.t.t.t.t.t.t.t.t.t.t.t.t."
};
