/* XPM */
static char *result[] = {
/* columns rows colors chars-per-pixel */
"50 50 141 2 ",
"   c #DDB43B",
".  c #EAAE2A",
"X  c #EFB520",
"o  c #EFBB2C",
"O  c #EAB833",
"+  c #EFB23F",
"@  c #E9BA3D",
"#  c #F5B535",
"$  c #FCB435",
"%  c #F5BB34",
"&  c #FCBB36",
"*  c #F4B53A",
"=  c #FBB63B",
"-  c #F5BC3C",
";  c #FCBB3B",
":  c #F4C422",
">  c #FDC220",
",  c #F7C32C",
"<  c #FDC02D",
"1  c #F9CC2E",
"2  c #F9D228",
"3  c #FDDD29",
"4  c #E5C233",
"5  c #EFCE35",
"6  c #F5C433",
"7  c #FCC635",
"8  c #F6CC35",
"9  c #FECB34",
"0  c #F4C23D",
"q  c #FBC33A",
"w  c #F7CD3B",
"e  c #FDCB3C",
"r  c #FDD434",
"t  c #F6D33B",
"y  c #FDD33D",
"u  c #FBD93E",
"i  c #B59877",
"p  c #BBA77F",
"a  c #E0A84A",
"s  c #ECB44F",
"d  c #F4B743",
"f  c #FBB643",
"g  c #F6BD43",
"h  c #FABC42",
"j  c #F1B74A",
"k  c #FAB648",
"l  c #F6BD49",
"z  c #F8B94B",
"x  c #EBBF56",
"c  c #EEBD5A",
"v  c #D9B967",
"b  c #DFBA71",
"n  c #EBB863",
"m  c #E7BF75",
"M  c #EBC842",
"N  c #EECA4E",
"B  c #FCC444",
"V  c #F6CA42",
"C  c #FCCB42",
"Z  c #F5C14E",
"A  c #FCC44A",
"S  c #FACD4B",
"D  c #F4D344",
"F  c #FDD543",
"G  c #FFD843",
"H  c #F4D34B",
"J  c #F8D548",
"K  c #F2DB4F",
"L  c #EDCA53",
"P  c #EFC05A",
"I  c #FBC452",
"U  c #F3C852",
"Y  c #FDCC54",
"T  c #F5C35F",
"R  c #FAC658",
"E  c #FCCD5C",
"W  c #F5D654",
"Q  c #FBD355",
"!  c #FFDD54",
"~  c #F2D55F",
"^  c #FAD15D",
"/  c #F4E15C",
"(  c #FEE15F",
")  c #E7C469",
"_  c #F7CF66",
"`  c #FBCE61",
"'  c #F3CB6A",
"]  c #FCD463",
"[  c #FCDC63",
"{  c #F5D66B",
"}  c #FDD36B",
"|  c #FCDA6B",
" . c #EFC874",
".. c #FDD674",
"X. c #FEDB74",
"o. c #FDD37B",
"O. c #F3DB7E",
"+. c #FDDD7B",
"@. c #FDE96D",
"#. c #FDE072",
"$. c #FBE977",
"%. c #F4E17C",
"&. c #FEE27C",
"*. c #F6E97E",
"=. c #FFE87C",
"-. c #FEF27E",
";. c #CBBC92",
":. c #D0C39C",
">. c #E9C589",
",. c #E8D780",
"<. c #E4D48A",
"1. c #F5D786",
"2. c #F5DC82",
"3. c #FDDE81",
"4. c #FCDF8E",
"5. c #F5DB94",
"6. c #FCDC90",
"7. c #F3E281",
"8. c #FEE383",
"9. c #FCEA85",
"0. c #F5E38D",
"q. c #FEE58C",
"w. c #FDEB8C",
"e. c #F4E494",
"r. c #FDE693",
"t. c #FCEC94",
"y. c #F9E29A",
"u. c #FCED9D",
"i. c #FDF39A",
"p. c #D3C3A2",
"a. c #D3C8A3",
"s. c #E9DCB6",
"d. c #F5EAA7",
"f. c #FDEDA4",
"g. c #FDECAB",
"h. c #FFF4AA",
"j. c #F9EAB3",
"k. c #F7E6B8",
"l. c #F3E9BA",
"z. c #FDFAB9",
"x. c None",
/* pixels */
"x.x.x.x.x.x.x.x.x.x.x.x.x.x.x.x.x.x.x.x.x.x.x.x.x.x.x.x.x.x.x.x.x.x.x.x.x.x.x.x.x.x.x.x.x.x.x.x.x.x.",
"x.x.x.x.x.x.x.x.x.x.x.x.x.x.x.x.x.x.x.x.x.x.x.x.x.x.x.x.x.x.x.x.x.x.x.x.x.x.x.x.x.x.x.x.x.x.x.x.x.x.",
"x.x.x.x.x.x.x.x.x.x.x.x.x.x.x.x.x.x.x.x.x.x.x.x.x.x.x.x.x.x.x.x.x.x.x.x.x.x.x.x.x.x.x.x.x.x.x.x.x.x.",
"x.x.x.x.x.x.x.x.x.x.x.x.x.x.x.x.x.x.x.x.x.x.x.x.x.x.x.x.x.x.x.x.x.x.x.x.x.x.x.x.x.x.x.x.x.x.x.x.x.x.",
"x.x.x.x.x.x.x.x.x.x.x.x.x.x.x.x.x.x.x.x.x.x.x.x.x.x.x.x.x.x.x.x.x.x.x.x.x.x.x.x.x.x.x.x.x.x.x.x.x.x.",
"x.x.x.x.x.x.x.x.x.x.x.x.x.x.x.x.x.x.x.x.x.x.x.x.x.x.x.x.x.x.x.x.x.x.x.x.x.x.x.x.x.x.x.x.x.x.x.x.x.x.",
"x.x.x.x.x.x.x.x.x.x.x.x.x.x.x.x.x.x.x.x.x.x.x.x.x.x.x.x.x.x.x.x.x.x.x.x.x.x.x.x.x.x.x.x.x.x.x.x.x.x.",
"x.x.x.x.x.x.x.x.x.x.x.x.x.x.x.x.x.x.x.x.x.x.x.x.x.x.x.x.x.x.x.x.x.x.x.x.x.x.x.x.x.x.x.x.x.x.x.x.x.x.",
"x.x.x.x.x.x.x.x.x.x.x.x.x.x.x.x.x.x.x.x.x.x.x.x.x.x.x.x.x.x.x.x.x.x.x.x.x.x.x.x.x.x.x.x.x.x.x.x.x.x.",
"x.x.x.x.x.x.x.x.x.x.x.x.x.x.x.x.x.x.x.x.x.x.x.x.x.x.x.x.x.x.x.x.x.x.x.x.x.x.x.x.x.x.x.x.x.x.x.x.x.x.",
"x.x.x.x.x.x.x.x.x.x.x.x.x.x.x.x.x.x.x.x.x.x.x.x.x.x.x.x.x.x.x.x.x.x.x.x.x.x.x.x.x.x.x.x.x.x.x.x.x.x.",
"x.x.x.x.x.x.x.x.x.x.x.x.x.x.x.x.x.x.x.x.x.x.x.x.x.x.x.x.x.x.x.x.x.x.x.x.x.x.x.x.x.x.x.x.x.x.x.x.x.x.",
"x.x.x.x.x.x.x.x.x.x.x.x.x.x.x.x.x.x.x.x.x.x.p.p.a.:.;.p i x.x.x.x.x.x.x.x.x.x.x.x.x.x.x.x.x.x.x.x.x.",
"x.x.x.x.x.x.x.x.x.x.x.x.x.x.x.x.x.x.x.j.h.g.g.f.u.u.u.i.t.O.) m x.x.x.x.x.x.x.x.x.x.x.x.x.x.x.x.x.x.",
"x.x.x.x.x.x.x.x.x.x.x.x.x.x.x.x.x.s.k.g.e.i.i.t.t.t.t.t.w.w.9.O.v b x.x.x.x.x.x.x.x.x.x.x.x.x.x.x.x.",
"x.x.x.x.x.x.x.x.x.x.x.x.x.x.x.x.z.<.f.u.,.9.9.w.t.t.t.t.t.t.w.*.-.  c x.x.x.x.x.x.x.x.x.x.x.x.x.x.x.",
"x.x.x.x.x.x.x.x.x.x.x.x.x.x.x.d.i.w.w.w.q.q.q.t.r.r.t.t.q.w.9.$.( G 0 c x.x.x.x.x.x.x.x.x.x.x.x.x.x.",
"x.x.x.x.x.x.x.x.x.x.x.x.x.x.g.i.%.9.q.q.9.q.w.r.r.r.9.9.=.#.~ W J G F O P x.x.x.x.x.x.x.x.x.x.x.x.x.",
"x.x.x.x.x.x.x.x.x.x.x.x.x.l.0.2.8.q.q.q.&.9.q.q.9.=.@./ K D F y y t e y 0 n x.x.x.x.x.x.x.x.x.x.x.x.",
"x.x.x.x.x.x.x.x.x.x.x.x.x.5.8.9.8.8.8.8.&.9.&.8.+.[ F u y y y y u u r y q 7 x.x.x.x.x.x.x.x.x.x.x.x.",
"x.x.x.x.x.x.x.x.x.x.x.x.y.q.&.&.8.8.8.8.&.O.8.&.] S y y y y y y y F r y C , E x.x.x.x.x.x.x.x.x.x.x.",
"x.x.x.x.x.x.x.x.x.x.x.x.2.7.&.X.+.3.3.+.+.8.| Q V e y y y y y y F y r y S , @ x.x.x.x.x.x.x.x.x.x.x.",
"x.x.x.x.x.x.x.x.x.x.x.x.X.X.#.X.+.+.+.+.X.X.^ C 9 r 9 F e y e e y 9 t t C 7 q ) x.x.x.x.x.x.x.x.x.x.",
"x.x.x.x.x.x.x.x.x.x.x.0.#.X.| X.X.+...X.X.E C e 9 9 e e e e y e e e V y e q 6 L x.x.x.x.x.x.x.x.x.x.",
"x.x.x.x.x.x.x.x.x.x.x.w.[ o.X.....X.| | ] V C e e e B e e e e e e e V e e B 7 M x.x.x.x.x.x.x.x.x.x.",
"x.x.x.x.x.x.x.x.x.x.x.O.| o.......} | ^ N w 9 e e e e e e e e e w e B 9 7 A 9 4 x.x.x.x.x.x.x.x.x.x.",
"x.x.x.x.x.x.x.x.x.x.x.1.{ } ] } } } ] S V e e q e e e e e e e e e e e 8 7 B : 8 x.x.x.x.x.x.x.x.x.x.",
"x.x.x.x.x.x.x.x.x.x.x.6._ E _ ] } } E B e q q q q q q q q q q q q q B q e ; r H x.x.x.x.x.x.x.x.x.x.",
"x.x.x.x.x.x.x.x.x.x.x.x._ Y ` ` E E A A q e q q q q q q q q q q q q B B q 9 w { x.x.x.x.x.x.x.x.x.x.",
"x.x.x.x.x.x.x.x.x.x.x.x._ Q E E E Y h B ; q ; q q q - q q q q ; q q h A 7 8 Q x.x.x.x.x.x.x.x.x.x.x.",
"x.x.x.x.x.x.x.x.x.x.x.x. .Y E E Y A ; q ; q % q % q q q ; q q - q ; ; h , 2 L x.x.x.x.x.x.x.x.x.x.x.",
"x.x.x.x.x.x.x.x.x.x.x.x.x.L R I I B h ; & q ; q ; ; ; ; q % q ; ; q ; ; 9 3 x.x.x.x.x.x.x.x.x.x.x.x.",
"x.x.x.x.x.x.x.x.x.x.x.x.x.>.I A Y l ; < > ; h h k g g h k ; & & & ; k o 3 K x.x.x.x.x.x.x.x.x.x.x.x.",
"x.x.x.x.x.x.x.x.x.x.x.x.x.x.' l A h k ; & & & h h h - ; ; ; h = h ; - 6 D x.x.x.x.x.x.x.x.x.x.x.x.x.",
"x.x.x.x.x.x.x.x.x.x.x.x.x.x.x.c # $ f k k & $ ; f ; ; % % ; d f d 6 8 M x.x.x.x.x.x.x.x.x.x.x.x.x.x.",
"x.x.x.x.x.x.x.x.x.x.x.x.x.x.x.x.k $ $ & & $ & $ & = & & # = ; $ 7 : t x.x.x.x.x.x.x.x.x.x.x.x.x.x.x.",
"x.x.x.x.x.x.x.x.x.x.x.x.x.x.x.x.x.a + % X f ; ; $ $ = = f f # . C ! x.x.x.x.x.x.x.x.x.x.x.x.x.x.x.x.",
"x.x.x.x.x.x.x.x.x.x.x.x.x.x.x.x.x.x.x.s + d d * * = = * * # 0 E x.x.x.x.x.x.x.x.x.x.x.x.x.x.x.x.x.x.",
"x.x.x.x.x.x.x.x.x.x.x.x.x.x.x.x.x.x.x.x.x.j d * * * * f B ! x.x.x.x.x.x.x.x.x.x.x.x.x.x.x.x.x.x.x.x.",
"x.x.x.x.x.x.x.x.x.x.x.x.x.x.x.x.x.x.x.x.x.x.x.x.x.x.x.x.x.x.x.x.x.x.x.x.x.x.x.x.x.x.x.x.x.x.x.x.x.x.",
"x.x.x.x.x.x.x.x.x.x.x.x.x.x.x.x.x.x.x.x.x.x.x.x.x.x.x.x.x.x.x.x.x.x.x.x.x.x.x.x.x.x.x.x.x.x.x.x.x.x.",
"x.x.x.x.x.x.x.x.x.x.x.x.x.x.x.x.x.x.x.x.x.x.x.x.x.x.x.x.x.x.x.x.x.x.x.x.x.x.x.x.x.x.x.x.x.x.x.x.x.x.",
"x.x.x.x.x.x.x.x.x.x.x.x.x.x.x.x.x.x.x.x.x.x.x.x.x.x.x.x.x.x.x.x.x.x.x.x.x.x.x.x.x.x.x.x.x.x.x.x.x.x.",
"x.x.x.x.x.x.x.x.x.x.x.x.x.x.x.x.x.x.x.x.x.x.x.x.x.x.x.x.x.x.x.x.x.x.x.x.x.x.x.x.x.x.x.x.x.x.x.x.x.x.",
"x.x.x.x.x.x.x.x.x.x.x.x.x.x.x.x.x.x.x.x.x.x.x.x.x.x.x.x.x.x.x.x.x.x.x.x.x.x.x.x.x.x.x.x.x.x.x.x.x.x.",
"x.x.x.x.x.x.x.x.x.x.x.x.x.x.x.x.x.x.x.x.x.x.x.x.x.x.x.x.x.x.x.x.x.x.x.x.x.x.x.x.x.x.x.x.x.x.x.x.x.x.",
"x.x.x.x.x.x.x.x.x.x.x.x.x.x.x.x.x.x.x.x.x.x.x.x.x.x.x.x.x.x.x.x.x.x.x.x.x.x.x.x.x.x.x.x.x.x.x.x.x.x.",
"x.x.x.x.x.x.x.x.x.x.x.x.x.x.x.x.x.x.x.x.x.x.x.x.x.x.x.x.x.x.x.x.x.x.x.x.x.x.x.x.x.x.x.x.x.x.x.x.x.x.",
"x.x.x.x.x.x.x.x.x.x.x.x.x.x.x.x.x.x.x.x.x.x.x.x.x.x.x.x.x.x.x.x.x.x.x.x.x.x.x.x.x.x.x.x.x.x.x.x.x.x.",
"x.x.x.x.x.x.x.x.x.x.x.x.x.x.x.x.x.x.x.x.x.x.x.x.x.x.x.x.x.x.x.x.x.x.x.x.x.x.x.x.x.x.x.x.x.x.x.x.x.x."
};
