/* XPM */
static char *result[] = {
/* columns rows colors chars-per-pixel */
"50 50 129 2 ",
"   c #F1B226",
".  c #FBB62E",
"X  c #F6BC2D",
"o  c #FFB82F",
"O  c #E6B634",
"+  c #EBB033",
"@  c #EFBB34",
"#  c #EDBA3D",
"$  c #F6B537",
"%  c #FEB634",
"&  c #F4BC34",
"*  c #FBBA34",
"=  c #F6B53F",
"-  c #FCB63C",
";  c #F4BB3C",
":  c #FBBC3C",
">  c #F6C51F",
",  c #F1C520",
"<  c #F8C22C",
"1  c #FDCE2D",
"2  c #FAD22A",
"3  c #FBC536",
"4  c #F5CB30",
"5  c #FDCC32",
"6  c #F5C23B",
"7  c #FBC33B",
"8  c #F7CC3C",
"9  c #FCCB3C",
"0  c #F7D734",
"q  c #FCD232",
"w  c #F8DC30",
"e  c #F5D43C",
"r  c #FDD33C",
"t  c #FBDD3A",
"y  c #BCA468",
"u  c #E8B442",
"i  c #E5B845",
"p  c #ECBA45",
"a  c #E6B64D",
"s  c #EAB64A",
"d  c #F5B444",
"f  c #FCB541",
"g  c #F6BC44",
"h  c #FBBC43",
"j  c #FFB24D",
"k  c #F4BE4A",
"l  c #FABC48",
"z  c #E8B45A",
"x  c #E4B85E",
"c  c #F4BF5B",
"v  c #C69F7A",
"b  c #C6B273",
"n  c #EEC545",
"m  c #E6C941",
"M  c #EACF42",
"N  c #F4C345",
"B  c #FCC443",
"V  c #F6CB45",
"C  c #FCCC42",
"Z  c #F1C04A",
"A  c #FCC64C",
"S  c #F6CD4D",
"D  c #FBCB4C",
"F  c #F7D340",
"G  c #FCD343",
"H  c #F2DE41",
"J  c #F5D44D",
"K  c #FCD54A",
"L  c #F5DF4D",
"P  c #EAC15A",
"I  c #F2C055",
"U  c #FCCB53",
"Y  c #F4C85D",
"T  c #FDCD5B",
"R  c #F4D356",
"E  c #FCD452",
"W  c #F1DF51",
"Q  c #FFDC56",
"!  c #FCD55B",
"~  c #F5DA5D",
"^  c #FFD85E",
"/  c #FFE659",
"(  c #F2C863",
")  c #FBCF62",
"_  c #FFCD6D",
"`  c #F5D465",
"'  c #FCD362",
"]  c #FBDA64",
"[  c #FED46B",
"{  c #FDDA6D",
"}  c #F6CA74",
"|  c #FFC875",
" . c #FAD670",
".. c #F4D876",
"X. c #FDDB73",
"o. c #FDDD7B",
"O. c #FFE261",
"+. c #FDE468",
"@. c #FDE476",
"#. c #FFE976",
"$. c #FCE37B",
"%. c #FFE97B",
"&. c #D7C78A",
"*. c #DBD199",
"=. c #F8DB89",
"-. c #F8DB94",
";. c #FCE484",
":. c #FCEA84",
">. c #F5E78F",
",. c #FCE58B",
"<. c #F7EC8B",
"1. c #FDEA8C",
"2. c #F4E895",
"3. c #FCEB94",
"4. c #F7ED9E",
"5. c #FBEE9D",
"6. c #FDF099",
"7. c #E1D7A5",
"8. c #E4DCAD",
"9. c #EFE0A0",
"0. c #F4E4A3",
"q. c #F7EEA2",
"w. c #F9EEA0",
"e. c #F6E9AB",
"r. c #FBEFA8",
"t. c #F7E7B8",
"y. c #FAECBD",
"u. c #FEF9B8",
"i. c None",
/* pixels */
"i.i.i.i.i.i.i.i.i.i.i.i.i.i.i.i.i.i.i.i.i.i.i.i.i.i.i.i.i.i.i.i.i.i.i.i.i.i.i.i.i.i.i.i.i.i.i.i.i.i.",
"i.i.i.i.i.i.i.i.i.i.i.i.i.i.i.i.i.i.i.i.i.i.i.i.i.i.i.i.i.i.i.i.i.i.i.i.i.i.i.i.i.i.i.i.i.i.i.i.i.i.",
"i.i.i.i.i.i.i.i.i.i.i.i.i.i.i.i.i.i.i.i.i.i.i.i.i.i.i.i.i.i.i.i.i.i.i.i.i.i.i.i.i.i.i.i.i.i.i.i.i.i.",
"i.i.i.i.i.i.i.i.i.i.i.i.i.i.i.i.i.i.i.i.i.i.i.i.i.i.i.i.i.i.i.i.i.i.i.i.i.i.i.i.i.i.i.i.i.i.i.i.i.i.",
"i.i.i.i.i.i.i.i.i.i.i.i.i.i.i.i.i.i.i.i.i.i.i.i.i.i.i.i.i.i.i.i.i.i.i.i.i.i.i.i.i.i.i.i.i.i.i.i.i.i.",
"i.i.i.i.i.i.i.i.i.i.i.i.i.i.i.i.i.i.i.i.i.i.i.i.i.i.i.i.i.i.i.i.i.i.i.i.i.i.i.i.i.i.i.i.i.i.i.i.i.i.",
"i.i.i.i.i.i.i.i.i.i.i.i.i.i.i.i.i.i.i.i.i.i.i.i.i.i.i.i.i.i.i.i.i.i.i.i.i.i.i.i.i.i.i.i.i.i.i.i.i.i.",
"i.i.i.i.i.i.i.i.i.i.i.i.i.i.i.i.i.i.i.i.i.i.i.i.i.i.i.i.i.i.i.i.i.i.i.i.i.i.i.i.i.i.i.i.i.i.i.i.i.i.",
"i.i.i.i.i.i.i.i.i.i.i.i.i.i.i.i.i.i.i.i.i.i.i.i.i.i.i.i.i.i.i.i.i.i.i.i.i.i.i.i.i.i.i.i.i.i.i.i.i.i.",
"i.i.i.i.i.i.i.i.i.i.i.i.i.i.i.i.i.i.i.i.i.i.i.i.i.i.i.i.i.i.i.i.i.i.i.i.i.i.i.i.i.i.i.i.i.i.i.i.i.i.",
"i.i.i.i.i.i.i.i.i.i.i.i.i.i.i.i.i.i.i.i.i.i.i.i.i.i.i.i.i.i.i.i.i.i.i.i.i.i.i.i.i.i.i.i.i.i.i.i.i.i.",
"i.i.i.i.i.i.i.i.i.i.i.i.i.i.i.i.i.i.i.i.i.i.i.i.i.i.i.i.i.i.i.i.i.i.i.i.i.i.i.i.i.i.i.i.i.i.i.i.i.i.",
"i.i.i.i.i.i.i.i.i.i.i.i.i.i.i.i.i.i.i.i.i.i.8.7.*.&.b y v i.i.i.i.i.i.i.i.i.i.i.i.i.i.i.i.i.i.i.i.i.",
"i.i.i.i.i.i.i.i.i.i.i.i.i.i.i.i.i.i.i.u.w.r.w.4.5.5.3.,. .i p z i.i.i.i.i.i.i.i.i.i.i.i.i.i.i.i.i.i.",
"i.i.i.i.i.i.i.i.i.i.i.i.i.i.i.i.i.t.e.4.w.5.5.5.3.3.3.3.,.;.Y a x i.i.i.i.i.i.i.i.i.i.i.i.i.i.i.i.i.",
"i.i.i.i.i.i.i.i.i.i.i.i.i.i.i.i.2.2.2.6.3.1.1.3.3.3.3.3.w.3.$.) p N i.i.i.i.i.i.i.i.i.i.i.i.i.i.i.i.",
"i.i.i.i.i.i.i.i.i.i.i.i.i.i.i.0.5.:.:.<.3.:.:.1.3.1.<.1.<.1.%.{ U $ h i.i.i.i.i.i.i.i.i.i.i.i.i.i.i.",
"i.i.i.i.i.i.i.i.i.i.i.i.i.i.w.3.;.:.:.:.,.:.,.1.;.;.%.#.+.~ R E E A * l i.i.i.i.i.i.i.i.i.i.i.i.i.i.",
"i.i.i.i.i.i.i.i.i.i.i.i.i.y.<.:.:.;.;.,.,.,.>.,.:.%.] E K G t 0 r r X * Z i.i.i.i.i.i.i.i.i.i.i.i.i.",
"i.i.i.i.i.i.i.i.i.i.i.i.i.,.@.@.$.$.;.;.;.,.$.@.O.J F r t r t r r G 5 h g i.i.i.i.i.i.i.i.i.i.i.i.i.",
"i.i.i.i.i.i.i.i.i.i.i.i.i.;.@.@.$.$.;.;.;.o.@.] J G G r q r r r r r q l B 6 i.i.i.i.i.i.i.i.i.i.i.i.",
"i.i.i.i.i.i.i.i.i.i.i.i.-...o.$.$.$.o.o.$.{ ! S G G r 9 r r r 9 r r q B N 6 i.i.i.i.i.i.i.i.i.i.i.i.",
"i.i.i.i.i.i.i.i.i.i.i.i.=.o.o.$.o.o.o.X.X.E C G C 9 C C G C 9 9 q r q C h 3 P i.i.i.i.i.i.i.i.i.i.i.",
"i.i.i.i.i.i.i.i.i.i.i.i...{ { o.o.X.[ { ^ C r 8 9 9 9 C 9 C 9 r 9 r 9 9 B 3 V i.i.i.i.i.i.i.i.i.i.i.",
"i.i.i.i.i.i.i.i.i.i.i.i. .] {  .X.{ [ ! V C 9 9 9 9 9 C 9 9 9 9 9 9 C 5 A 7 4 i.i.i.i.i.i.i.i.i.i.i.",
"i.i.i.i.i.i.i.i.i.i.i.i.` ' ] [ [ [ ^ V C 9 8 9 8 5 9 9 9 5 9 9 B C V 8 A 7 , i.i.i.i.i.i.i.i.i.i.i.",
"i.i.i.i.i.i.i.i.i.i.i.i.! | [ ' ' ^ K B B 9 7 9 9 9 9 9 C 7 C 7 9 C 5 8 B 5 N i.i.i.i.i.i.i.i.i.i.i.",
"i.i.i.i.i.i.i.i.i.i.i.i.` _ _ ' ' ! B B B 3 3 3 3 3 7 7 7 C 7 7 7 7 3 B 7 2 R i.i.i.i.i.i.i.i.i.i.i.",
"i.i.i.i.i.i.i.i.i.i.i.i.( T ' T T A B B 7 7 7 7 7 7 7 7 7 7 7 7 7 7 7 N 9 2 R i.i.i.i.i.i.i.i.i.i.i.",
"i.i.i.i.i.i.i.i.i.i.i.i.} U T T U B h 7 : 7 7 7 7 7 7 : 7 7 : 7 7 7 6 A r 0  .i.i.i.i.i.i.i.i.i.i.i.",
"i.i.i.i.i.i.i.i.i.i.i.i.i.S U U A h : 7 : 7 & 3 : 3 6 7 : 7 B : : 6 6 C r 8 i.i.i.i.i.i.i.i.i.i.i.i.",
"i.i.i.i.i.i.i.i.i.i.i.i.i.D S A A h : : 7 : : : : : : : 7 : : : : : 3 r r R i.i.i.i.i.i.i.i.i.i.i.i.",
"i.i.i.i.i.i.i.i.i.i.i.i.i.i.k A g l : < , : : l h h : h N h : 7 : : 7 G m i.i.i.i.i.i.i.i.i.i.i.i.i.",
"i.i.i.i.i.i.i.i.i.i.i.i.i.i.c k : : h : : : : h : : : : : - - : : 7 r 0 i.i.i.i.i.i.i.i.i.i.i.i.i.i.",
"i.i.i.i.i.i.i.i.i.i.i.i.i.i.i.I & o - j j % - - - : * * . % - h 6 G w L i.i.i.i.i.i.i.i.i.i.i.i.i.i.",
"i.i.i.i.i.i.i.i.i.i.i.i.i.i.i.i.; X . - f % - - - - % % % % : & e t H i.i.i.i.i.i.i.i.i.i.i.i.i.i.i.",
"i.i.i.i.i.i.i.i.i.i.i.i.i.i.i.i.i.u + *   $ - l f f - : $ $ @ V M W i.i.i.i.i.i.i.i.i.i.i.i.i.i.i.i.",
"i.i.i.i.i.i.i.i.i.i.i.i.i.i.i.i.i.i.i.s # d d d d d d ; O V Q ] i.i.i.i.i.i.i.i.i.i.i.i.i.i.i.i.i.i.",
"i.i.i.i.i.i.i.i.i.i.i.i.i.i.i.i.i.i.i.i.i.l d d d d d g Q / i.i.i.i.i.i.i.i.i.i.i.i.i.i.i.i.i.i.i.i.",
"i.i.i.i.i.i.i.i.i.i.i.i.i.i.i.i.i.i.i.i.i.i.i.i.i.i.i.i.i.i.i.i.i.i.i.i.i.i.i.i.i.i.i.i.i.i.i.i.i.i.",
"i.i.i.i.i.i.i.i.i.i.i.i.i.i.i.i.i.i.i.i.i.i.i.i.i.i.i.i.i.i.i.i.i.i.i.i.i.i.i.i.i.i.i.i.i.i.i.i.i.i.",
"i.i.i.i.i.i.i.i.i.i.i.i.i.i.i.i.i.i.i.i.i.i.i.i.i.i.i.i.i.i.i.i.i.i.i.i.i.i.i.i.i.i.i.i.i.i.i.i.i.i.",
"i.i.i.i.i.i.i.i.i.i.i.i.i.i.i.i.i.i.i.i.i.i.i.i.i.i.i.i.i.i.i.i.i.i.i.i.i.i.i.i.i.i.i.i.i.i.i.i.i.i.",
"i.i.i.i.i.i.i.i.i.i.i.i.i.i.i.i.i.i.i.i.i.i.i.i.i.i.i.i.i.i.i.i.i.i.i.i.i.i.i.i.i.i.i.i.i.i.i.i.i.i.",
"i.i.i.i.i.i.i.i.i.i.i.i.i.i.i.i.i.i.i.i.i.i.i.i.i.i.i.i.i.i.i.i.i.i.i.i.i.i.i.i.i.i.i.i.i.i.i.i.i.i.",
"i.i.i.i.i.i.i.i.i.i.i.i.i.i.i.i.i.i.i.i.i.i.i.i.i.i.i.i.i.i.i.i.i.i.i.i.i.i.i.i.i.i.i.i.i.i.i.i.i.i.",
"i.i.i.i.i.i.i.i.i.i.i.i.i.i.i.i.i.i.i.i.i.i.i.i.i.i.i.i.i.i.i.i.i.i.i.i.i.i.i.i.i.i.i.i.i.i.i.i.i.i.",
"i.i.i.i.i.i.i.i.i.i.i.i.i.i.i.i.i.i.i.i.i.i.i.i.i.i.i.i.i.i.i.i.i.i.i.i.i.i.i.i.i.i.i.i.i.i.i.i.i.i.",
"i.i.i.i.i.i.i.i.i.i.i.i.i.i.i.i.i.i.i.i.i.i.i.i.i.i.i.i.i.i.i.i.i.i.i.i.i.i.i.i.i.i.i.i.i.i.i.i.i.i.",
"i.i.i.i.i.i.i.i.i.i.i.i.i.i.i.i.i.i.i.i.i.i.i.i.i.i.i.i.i.i.i.i.i.i.i.i.i.i.i.i.i.i.i.i.i.i.i.i.i.i."
};
