/* XPM */
static char *result[] = {
/* columns rows colors chars-per-pixel */
"50 50 125 2 ",
"   c #EDB523",
".  c #F3B824",
"X  c #FABF26",
"o  c #F8B529",
"O  c #F6BF2F",
"+  c #FDBF2C",
"@  c #EDAE3B",
"#  c #EEB037",
"$  c #EFB837",
"%  c #FDB535",
"&  c #F2BD30",
"*  c #FBBD34",
"=  c #F4B33C",
"-  c #FBB63D",
";  c #F5BB3C",
":  c #FBBC3C",
">  c #ECC529",
",  c #F3CA27",
"<  c #FAC22D",
"1  c #F7D925",
"2  c #F4D32C",
"3  c #F3C135",
"4  c #FCC334",
"5  c #F6CD35",
"6  c #FDCC36",
"7  c #F4C33D",
"8  c #FCC43C",
"9  c #F2C93B",
"0  c #FBCC3B",
"q  c #E9D23B",
"w  c #F5D635",
"e  c #FBD130",
"r  c #FCDA35",
"t  c #F7D43C",
"y  c #FCD33C",
"u  c #BFA158",
"i  c #DCB445",
"p  c #C6A55F",
"a  c #E9AF49",
"s  c #EFB442",
"d  c #F4B543",
"f  c #FCB542",
"g  c #F5BE44",
"h  c #FABB43",
"j  c #FEB64D",
"k  c #F0B94B",
"l  c #FABD4B",
"z  c #FFAE59",
"x  c #EAB651",
"c  c #EFB159",
"v  c #F5B750",
"b  c #F6B85A",
"n  c #C1A260",
"m  c #D3B874",
"M  c #F4C442",
"N  c #FDC442",
"B  c #F4CC43",
"V  c #FCCB41",
"C  c #F4C14A",
"Z  c #FBC249",
"A  c #FBC84C",
"S  c #F5D344",
"D  c #FBD343",
"F  c #FDDA43",
"G  c #F5D24C",
"H  c #FBD44C",
"J  c #EDC256",
"K  c #E8C65A",
"L  c #F7C257",
"P  c #FAC652",
"I  c #FCCB54",
"U  c #FCCE5B",
"Y  c #EDD551",
"T  c #F7D454",
"R  c #FDD253",
"E  c #F6DB55",
"W  c #FEDA50",
"Q  c #F5D35B",
"!  c #FDD25C",
"~  c #FBDA5C",
"^  c #FFE152",
"/  c #F6E15E",
"(  c #F5C265",
")  c #FDCD67",
"_  c #FAC76E",
"`  c #FED263",
"'  c #FEDC63",
"]  c #FDD56B",
"[  c #F5DD69",
"{  c #FEDA6C",
"}  c #EBD77F",
"|  c #FED672",
" . c #F3DD73",
".. c #FDDC74",
"X. c #FFDE7B",
"o. c #FEE36E",
"O. c #FFE473",
"+. c #FDE875",
"@. c #FDE27B",
"#. c #FFE979",
"$. c #DCCC8C",
"%. c #E3D69B",
"&. c #E1D99F",
"*. c #F0DD99",
"=. c #FDE484",
"-. c #FEE984",
";. c #F6E38E",
":. c #FEE68A",
">. c #FDEA8C",
",. c #F0E294",
"<. c #FCEA94",
"1. c #F5E39F",
"2. c #FCE699",
"3. c #FCEC9B",
"4. c #FFF594",
"5. c #FEF19D",
"6. c #E4D4AD",
"7. c #E2DCAB",
"8. c #F2DDA6",
"9. c #F7E4AE",
"0. c #F4EAA8",
"q. c #FDEAAB",
"w. c #FEF2A3",
"e. c #FFF9AC",
"r. c None",
/* pixels */
"r.r.r.r.r.r.r.r.r.r.r.r.r.r.r.r.r.r.r.r.r.r.r.r.r.r.r.r.r.r.r.r.r.r.r.r.r.r.r.r.r.r.r.r.r.r.r.r.r.r.",
"r.r.r.r.r.r.r.r.r.r.r.r.r.r.r.r.r.r.r.r.r.r.r.r.r.r.r.r.r.r.r.r.r.r.r.r.r.r.r.r.r.r.r.r.r.r.r.r.r.r.",
"r.r.r.r.r.r.r.r.r.r.r.r.r.r.r.r.r.r.r.r.r.r.r.r.r.r.r.r.r.r.r.r.r.r.r.r.r.r.r.r.r.r.r.r.r.r.r.r.r.r.",
"r.r.r.r.r.r.r.r.r.r.r.r.r.r.r.r.r.r.r.r.r.r.r.r.r.r.r.r.r.r.r.r.r.r.r.r.r.r.r.r.r.r.r.r.r.r.r.r.r.r.",
"r.r.r.r.r.r.r.r.r.r.r.r.r.r.r.r.r.r.r.r.r.r.r.r.r.r.r.r.r.r.r.r.r.r.r.r.r.r.r.r.r.r.r.r.r.r.r.r.r.r.",
"r.r.r.r.r.r.r.r.r.r.r.r.r.r.r.r.r.r.r.r.r.r.r.r.r.r.r.r.r.r.r.r.r.r.r.r.r.r.r.r.r.r.r.r.r.r.r.r.r.r.",
"r.r.r.r.r.r.r.r.r.r.r.r.r.r.r.r.r.r.r.r.r.r.r.r.r.r.r.r.r.r.r.r.r.r.r.r.r.r.r.r.r.r.r.r.r.r.r.r.r.r.",
"r.r.r.r.r.r.r.r.r.r.r.r.r.r.r.r.r.r.r.r.r.r.r.r.r.r.r.r.r.r.r.r.r.r.r.r.r.r.r.r.r.r.r.r.r.r.r.r.r.r.",
"r.r.r.r.r.r.r.r.r.r.r.r.r.r.r.r.r.r.r.r.r.r.r.r.r.r.r.r.r.r.r.r.r.r.r.r.r.r.r.r.r.r.r.r.r.r.r.r.r.r.",
"r.r.r.r.r.r.r.r.r.r.r.r.r.r.r.r.r.r.r.r.r.r.r.r.r.r.r.r.r.r.r.r.r.r.r.r.r.r.r.r.r.r.r.r.r.r.r.r.r.r.",
"r.r.r.r.r.r.r.r.r.r.r.r.r.r.r.r.r.r.r.r.r.r.r.r.r.r.r.r.r.r.r.r.r.r.r.r.r.r.r.r.r.r.r.r.r.r.r.r.r.r.",
"r.r.r.r.r.r.r.r.r.r.r.r.r.r.r.r.r.r.r.r.r.r.r.r.r.r.r.r.r.r.r.r.r.r.r.r.r.r.r.r.r.r.r.r.r.r.r.r.r.r.",
"r.r.r.r.r.r.r.r.r.r.r.r.r.r.r.r.r.r.r.r.r.r.7.%.$.m n u n r.r.r.r.r.r.r.r.r.r.r.r.r.r.r.r.r.r.r.r.r.",
"r.r.r.r.r.r.r.r.r.r.r.r.r.r.r.r.r.r.r.q.e.3.3.3.<.:.>...i C @ c r.r.r.r.r.r.r.r.r.r.r.r.r.r.r.r.r.r.",
"r.r.r.r.r.r.r.r.r.r.r.r.r.r.r.r.r.7.0.5.>.<.<.3.3.3.>.<.:.J g s ( r.r.r.r.r.r.r.r.r.r.r.r.r.r.r.r.r.",
"r.r.r.r.r.r.r.r.r.r.r.r.r.r.r.r.7.w.4.4.>.>.<.3.3.w.3.*.w.-.G : N d r.r.r.r.r.r.r.r.r.r.r.r.r.r.r.r.",
"r.r.r.r.r.r.r.r.r.r.r.r.r.r.r.6.1.>.-.>.>.>.<.<.2.<.<.<.>.+.o.; : f k r.r.r.r.r.r.r.r.r.r.r.r.r.r.r.",
"r.r.r.r.r.r.r.r.r.r.r.r.r.r.r.8.<.:.=.>.>.:.:.:.:.-.#.+./ E G H ; f = x r.r.r.r.r.r.r.r.r.r.r.r.r.r.",
"r.r.r.r.r.r.r.r.r.r.r.r.r.r.w.;.=.=.=.=.=.;.-.=.@.o.~ G y t y F 8 3 4 P r.r.r.r.r.r.r.r.r.r.r.r.r.r.",
"r.r.r.r.r.r.r.r.r.r.r.r.r.r.@.@.@.=.X.=.=.=.@.O.~ G D y r r y t D M l + & r.r.r.r.r.r.r.r.r.r.r.r.r.",
"r.r.r.r.r.r.r.r.r.r.r.r.r.9.@.@...@.X.X.X.@.O.Q H D y D y r D D D N l 4 4 r.r.r.r.r.r.r.r.r.r.r.r.r.",
"r.r.r.r.r.r.r.r.r.r.r.r.r.*...@.X.X.@.....' T S D D y y V t y y y V g : < r.r.r.r.r.r.r.r.r.r.r.r.r.",
"r.r.r.r.r.r.r.r.r.r.r.r.r.} ........| { ' D 0 y 0 0 V V D V 0 y 0 V h : < B r.r.r.r.r.r.r.r.r.r.r.r.",
"r.r.r.r.r.r.r.r.r.r.r.r.r. .......{ ' ' T 0 y 6 y 6 0 V V 0 t 6 6 0 N 8 4 5 r.r.r.r.r.r.r.r.r.r.r.r.",
"r.r.r.r.r.r.r.r.r.r.r.r.r.[ { | | ] ' T B 0 0 6 6 0 0 V 0 0 0 6 0 8 8 8 8 5 r.r.r.r.r.r.r.r.r.r.r.r.",
"r.r.r.r.r.r.r.r.r.r.r.r.r.[ ] ] | ] ! B S V 0 0 0 0 V V 0 0 0 5 0 A 4 V 8 V r.r.r.r.r.r.r.r.r.r.r.r.",
"r.r.r.r.r.r.r.r.r.r.r.r.r.R ] ` ` R A 0 8 8 0 8 8 0 8 N 8 N N N V 5 5 0 8 8 r.r.r.r.r.r.r.r.r.r.r.r.",
"r.r.r.r.r.r.r.r.r.r.r.r.r.G ) ` ! A 7 8 4 8 8 8 8 8 8 0 8 8 N 8 8 0 0 V 6 5 r.r.r.r.r.r.r.r.r.r.r.r.",
"r.r.r.r.r.r.r.r.r.r.r.r.r.Q U ! I N 8 8 4 8 N 8 8 8 8 8 8 8 N 8 8 5 B 8 6 B r.r.r.r.r.r.r.r.r.r.r.r.",
"r.r.r.r.r.r.r.r.r.r.r.r.r.K I I A N 8 4 4 : 8 : : 8 8 8 8 8 N : 8 4 D 5 , Q r.r.r.r.r.r.r.r.r.r.r.r.",
"r.r.r.r.r.r.r.r.r.r.r.r.r.r.P P Z h : * * 8 8 : 8 : : : 8 : h : 4 8 0 2 r r.r.r.r.r.r.r.r.r.r.r.r.r.",
"r.r.r.r.r.r.r.r.r.r.r.r.r.r.I P Z h : : : : ; 8 ; : 8 : * : 8 : 8 V y 1 r r.r.r.r.r.r.r.r.r.r.r.r.r.",
"r.r.r.r.r.r.r.r.r.r.r.r.r.r._ L 8 * < * 4 * : : : : h : : l g 3 > w w w r.r.r.r.r.r.r.r.r.r.r.r.r.r.",
"r.r.r.r.r.r.r.r.r.r.r.r.r.r.r.C 8 - j : < : * : ; : ; : % h h 3 D F F S r.r.r.r.r.r.r.r.r.r.r.r.r.r.",
"r.r.r.r.r.r.r.r.r.r.r.r.r.r.r.r.  f z f X % : : - - - - % % ; 6 F W Y r.r.r.r.r.r.r.r.r.r.r.r.r.r.r.",
"r.r.r.r.r.r.r.r.r.r.r.r.r.r.r.r.b - : o + - - f - - - : - : O e r S r.r.r.r.r.r.r.r.r.r.r.r.r.r.r.r.",
"r.r.r.r.r.r.r.r.r.r.r.r.r.r.r.r.r.)   . N d - f - f - = f $ F w q r.r.r.r.r.r.r.r.r.r.r.r.r.r.r.r.r.",
"r.r.r.r.r.r.r.r.r.r.r.r.r.r.r.r.r.r.r.a v d d d h = = ; 7 W W Y r.r.r.r.r.r.r.r.r.r.r.r.r.r.r.r.r.r.",
"r.r.r.r.r.r.r.r.r.r.r.r.r.r.r.r.r.r.r.r.r.j d d = # h H F ^ r.r.r.r.r.r.r.r.r.r.r.r.r.r.r.r.r.r.r.r.",
"r.r.r.r.r.r.r.r.r.r.r.r.r.r.r.r.r.r.r.r.r.r.r.r.r.r.r.r.r.r.r.r.r.r.r.r.r.r.r.r.r.r.r.r.r.r.r.r.r.r.",
"r.r.r.r.r.r.r.r.r.r.r.r.r.r.r.r.r.r.r.r.r.r.r.r.r.r.r.r.r.r.r.r.r.r.r.r.r.r.r.r.r.r.r.r.r.r.r.r.r.r.",
"r.r.r.r.r.r.r.r.r.r.r.r.r.r.r.r.r.r.r.r.r.r.r.r.r.r.r.r.r.r.r.r.r.r.r.r.r.r.r.r.r.r.r.r.r.r.r.r.r.r.",
"r.r.r.r.r.r.r.r.r.r.r.r.r.r.r.r.r.r.r.r.r.r.r.r.r.r.r.r.r.r.r.r.r.r.r.r.r.r.r.r.r.r.r.r.r.r.r.r.r.r.",
"r.r.r.r.r.r.r.r.r.r.r.r.r.r.r.r.r.r.r.r.r.r.r.r.r.r.r.r.r.r.r.r.r.r.r.r.r.r.r.r.r.r.r.r.r.r.r.r.r.r.",
"r.r.r.r.r.r.r.r.r.r.r.r.r.r.r.r.r.r.r.r.r.r.r.r.r.r.r.r.r.r.r.r.r.r.r.r.r.r.r.r.r.r.r.r.r.r.r.r.r.r.",
"r.r.r.r.r.r.r.r.r.r.r.r.r.r.r.r.r.r.r.r.r.r.r.r.r.r.r.r.r.r.r.r.r.r.r.r.r.r.r.r.r.r.r.r.r.r.r.r.r.r.",
"r.r.r.r.r.r.r.r.r.r.r.r.r.r.r.r.r.r.r.r.r.r.r.r.r.r.r.r.r.r.r.r.r.r.r.r.r.r.r.r.r.r.r.r.r.r.r.r.r.r.",
"r.r.r.r.r.r.r.r.r.r.r.r.r.r.r.r.r.r.r.r.r.r.r.r.r.r.r.r.r.r.r.r.r.r.r.r.r.r.r.r.r.r.r.r.r.r.r.r.r.r.",
"r.r.r.r.r.r.r.r.r.r.r.r.r.r.r.r.r.r.r.r.r.r.r.r.r.r.r.r.r.r.r.r.r.r.r.r.r.r.r.r.r.r.r.r.r.r.r.r.r.r.",
"r.r.r.r.r.r.r.r.r.r.r.r.r.r.r.r.r.r.r.r.r.r.r.r.r.r.r.r.r.r.r.r.r.r.r.r.r.r.r.r.r.r.r.r.r.r.r.r.r.r."
};
