/* XPM */
static char *result[] = {
/* columns rows colors chars-per-pixel */
"50 50 122 2 ",
"   c #E7BA2D",
".  c #F8B721",
"X  c #F4B42E",
"o  c #FBB52F",
"O  c #F5BC2A",
"+  c #FDBA2E",
"@  c #F5AE3C",
"#  c #FDAE3B",
"$  c #EEBC36",
"%  c #F6B032",
"&  c #FBB635",
"*  c #F5BB33",
"=  c #FCBB35",
"-  c #F4B43C",
";  c #FCB43C",
":  c #F5BC3A",
">  c #FBBD3C",
",  c #F7CA1F",
"<  c #D5C02D",
"1  c #F7C323",
"2  c #FDC12C",
"3  c #F7CC2D",
"4  c #F9DE23",
"5  c #EFCB33",
"6  c #EFCB38",
"7  c #F6C434",
"8  c #FBC536",
"9  c #F5C932",
"0  c #FBCB37",
"q  c #F7C23A",
"w  c #FBC43C",
"e  c #F3C93D",
"r  c #FCCC3C",
"t  c #F2D233",
"y  c #F9D437",
"u  c #F1D937",
"i  c #FAD835",
"p  c #F2D23F",
"a  c #FDD23C",
"s  c #F4D93F",
"d  c #FDDA3C",
"f  c #F9E12B",
"g  c #FAE33B",
"h  c #FCEE38",
"j  c #DFB85A",
"k  c #EFAF49",
"l  c #F1AF49",
"z  c #EFB540",
"x  c #F7B341",
"c  c #FCB446",
"v  c #FDBB44",
"b  c #FCB54D",
"n  c #F6BB48",
"m  c #FCBE4C",
"M  c #F7B652",
"N  c #F4BA55",
"B  c #FCBE53",
"V  c #F0B55B",
"C  c #DFAD61",
"Z  c #F3BB62",
"A  c #F4C143",
"S  c #FCC543",
"D  c #F7CE45",
"F  c #FCCC42",
"G  c #F7C24E",
"H  c #FCC44B",
"J  c #F1C84B",
"K  c #FAC949",
"L  c #F3D246",
"P  c #FDD343",
"I  c #FCDD46",
"U  c #F7D24E",
"Y  c #FFD44D",
"T  c #FDC353",
"R  c #F7C25B",
"E  c #FBC95E",
"W  c #F4D455",
"Q  c #FCD453",
"!  c #F5DC51",
"~  c #FBDC53",
"^  c #FFD35B",
"/  c #FCDB5C",
"(  c #FDE150",
")  c #DFC165",
"_  c #F3CD63",
"`  c #F2D664",
"'  c #FED265",
"]  c #FEDC66",
"[  c #FFD56D",
"{  c #FEDC6B",
"}  c #FBD573",
"|  c #F3D973",
" . c #FDDB74",
".. c #F7DD7F",
"X. c #FCDD7B",
"o. c #FEE263",
"O. c #FCE36F",
"+. c #FEE373",
"@. c #FCE47B",
"#. c #FEE97F",
"$. c #F4DB82",
"%. c #FEDE84",
"&. c #F2DE9D",
"*. c #F7E381",
"=. c #FDE583",
"-. c #FEE984",
";. c #FBE48B",
":. c #F6E98A",
">. c #FCE98B",
",. c #F5E394",
"<. c #FDE793",
"1. c #F7E990",
"2. c #FBEB93",
"3. c #FCEB9C",
"4. c #FBF096",
"5. c #FAF19C",
"6. c #F1E2A4",
"7. c #FEE5A8",
"8. c #F4EDA9",
"9. c #F7F2A5",
"0. c #FFF2A3",
"q. c None",
/* pixels */
"q.q.q.q.q.q.q.q.q.q.q.q.q.q.q.q.q.q.q.q.q.q.q.q.q.q.q.q.q.q.q.q.q.q.q.q.q.q.q.q.q.q.q.q.q.q.q.q.q.q.",
"q.q.q.q.q.q.q.q.q.q.q.q.q.q.q.q.q.q.q.q.q.q.q.q.q.q.q.q.q.q.q.q.q.q.q.q.q.q.q.q.q.q.q.q.q.q.q.q.q.q.",
"q.q.q.q.q.q.q.q.q.q.q.q.q.q.q.q.q.q.q.q.q.q.q.q.q.q.q.q.q.q.q.q.q.q.q.q.q.q.q.q.q.q.q.q.q.q.q.q.q.q.",
"q.q.q.q.q.q.q.q.q.q.q.q.q.q.q.q.q.q.q.q.q.q.q.q.q.q.q.q.q.q.q.q.q.q.q.q.q.q.q.q.q.q.q.q.q.q.q.q.q.q.",
"q.q.q.q.q.q.q.q.q.q.q.q.q.q.q.q.q.q.q.q.q.q.q.q.q.q.q.q.q.q.q.q.q.q.q.q.q.q.q.q.q.q.q.q.q.q.q.q.q.q.",
"q.q.q.q.q.q.q.q.q.q.q.q.q.q.q.q.q.q.q.q.q.q.q.q.q.q.q.q.q.q.q.q.q.q.q.q.q.q.q.q.q.q.q.q.q.q.q.q.q.q.",
"q.q.q.q.q.q.q.q.q.q.q.q.q.q.q.q.q.q.q.q.q.q.q.q.q.q.q.q.q.q.q.q.q.q.q.q.q.q.q.q.q.q.q.q.q.q.q.q.q.q.",
"q.q.q.q.q.q.q.q.q.q.q.q.q.q.q.q.q.q.q.q.q.q.q.q.q.q.q.q.q.q.q.q.q.q.q.q.q.q.q.q.q.q.q.q.q.q.q.q.q.q.",
"q.q.q.q.q.q.q.q.q.q.q.q.q.q.q.q.q.q.q.q.q.q.q.q.q.q.q.q.q.q.q.q.q.q.q.q.q.q.q.q.q.q.q.q.q.q.q.q.q.q.",
"q.q.q.q.q.q.q.q.q.q.q.q.q.q.q.q.q.q.q.q.q.q.q.q.q.q.q.q.q.q.q.q.q.q.q.q.q.q.q.q.q.q.q.q.q.q.q.q.q.q.",
"q.q.q.q.q.q.q.q.q.q.q.q.q.q.q.q.q.q.q.q.q.q.q.q.q.q.q.q.q.q.q.q.q.q.q.q.q.q.q.q.q.q.q.q.q.q.q.q.q.q.",
"q.q.q.q.q.q.q.q.q.q.q.q.q.q.q.q.q.q.q.q.q.q.q.q.q.q.q.q.q.q.q.q.q.q.q.q.q.q.q.q.q.q.q.q.q.q.q.q.q.q.",
"q.q.q.q.q.q.q.q.q.q.q.q.q.q.q.q.q.q.q.q.q.9.9.0.<.$.) j Z C q.q.q.q.q.q.q.q.q.q.q.q.q.q.q.q.q.q.q.q.",
"q.q.q.q.q.q.q.q.q.q.q.q.q.q.q.q.q.q.q.,.7.9.3.4.>.>.-._   O o l q.q.q.q.q.q.q.q.q.q.q.q.q.q.q.q.q.q.",
"q.q.q.q.q.q.q.q.q.q.q.q.q.q.q.q.q.q.8.,.3.2.2.4.4.>.>.;._ - ; x Z q.q.q.q.q.q.q.q.q.q.q.q.q.q.q.q.q.",
"q.q.q.q.q.q.q.q.q.q.q.q.q.q.q.q.q.6.9.:.*.>.2.2.:.2.<.<.<.R - % v _ q.q.q.q.q.q.q.q.q.q.q.q.q.q.q.q.",
"q.q.q.q.q.q.q.q.q.q.q.q.q.q.q.q.q.1.;.-.#.=.>.>.:.>.>.-.+.^ : = = ; N q.q.q.q.q.q.q.q.q.q.q.q.q.q.q.",
"q.q.q.q.q.q.q.q.q.q.q.q.q.q.q.q.;.-.=.=.-.=.=.=.#.+.( ! L P w * > > n q.q.q.q.q.q.q.q.q.q.q.q.q.q.q.",
"q.q.q.q.q.q.q.q.q.q.q.q.q.q.q.q.@.@.=.;.;.@.#.@.] ! a d d a a 7 * = 8 q.q.q.q.q.q.q.q.q.q.q.q.q.q.q.",
"q.q.q.q.q.q.q.q.q.q.q.q.q.q.q.q.o.+.%.%.X.+.] Q P a a a d a P w : > = $ q.q.q.q.q.q.q.q.q.q.q.q.q.q.",
"q.q.q.q.q.q.q.q.q.q.q.q.q.q.q.| o.O...X.{ ] Q P a a a a y a P S w 8 = w q.q.q.q.q.q.q.q.q.q.q.q.q.q.",
"q.q.q.q.q.q.q.q.q.q.q.q.q.q.q.=.{ X...{ / U L a a r a r y a F F w w > w q.q.q.q.q.q.q.q.q.q.q.q.q.q.",
"q.q.q.q.q.q.q.q.q.q.q.q.q.q.q. .} } { W P a r 0 0 r a p y r r F w 8 w q J q.q.q.q.q.q.q.q.q.q.q.q.q.",
"q.q.q.q.q.q.q.q.q.q.q.q.q.q.q. .[ [ / D r a r r r r r r r r F r w 8 S 8 e q.q.q.q.q.q.q.q.q.q.q.q.q.",
"q.q.q.q.q.q.q.q.q.q.q.q.q.q.q.[ ' ^ D F S r r S r r r r r r F w 0 9 K q 9 q.q.q.q.q.q.q.q.q.q.q.q.q.",
"q.q.q.q.q.q.q.q.q.q.q.q.q.q.` ' ' D 6 F F S r S S r r r 0 r F e r 0 S r u q.q.q.q.q.q.q.q.q.q.q.q.q.",
"q.q.q.q.q.q.q.q.q.q.q.q.q.q.q.Q ^ K 3 0 B w w r w r r w S r w 0 0 0 S 8 L q.q.q.q.q.q.q.q.q.q.q.q.q.",
"q.q.q.q.q.q.q.q.q.q.q.q.q.q.q.Q T G 9 8 H w w w w w S w w S w q r a S P L q.q.q.q.q.q.q.q.q.q.q.q.q.",
"q.q.q.q.q.q.q.q.q.q.q.q.q.q.q.F H B q 9 n w w w w w w w w w w q r a F r W q.q.q.q.q.q.q.q.q.q.q.q.q.",
"q.q.q.q.q.q.q.q.q.q.q.q.q.q.q.r > m q 7 S w w q > w w q w w q 8 r a r P q.q.q.q.q.q.q.q.q.q.q.q.q.q.",
"q.q.q.q.q.q.q.q.q.q.q.q.q.q.q.K = v q > v w > w w v q > > w q r a a P P q.q.q.q.q.q.q.q.q.q.q.q.q.q.",
"q.q.q.q.q.q.q.q.q.q.q.q.q.q.q.q.2 = = > b > > > > > > > > q q r a a a q.q.q.q.q.q.q.q.q.q.q.q.q.q.q.",
"q.q.q.q.q.q.q.q.q.q.q.q.q.q.q.q.: = v v v v v v v ; > c m 1 , a D d u q.q.q.q.q.q.q.q.q.q.q.q.q.q.q.",
"q.q.q.q.q.q.q.q.q.q.q.q.q.q.q.q.q.= & > n : : : = : > > * * r Y Y i u q.q.q.q.q.q.q.q.q.q.q.q.q.q.q.",
"q.q.q.q.q.q.q.q.q.q.q.q.q.q.q.q.q.v . + = * * * * : : * O H Q a d I q.q.q.q.q.q.q.q.q.q.q.q.q.q.q.q.",
"q.q.q.q.q.q.q.q.q.q.q.q.q.q.q.q.q.q.O X v = & & & & > * 7 Y i f g q.q.q.q.q.q.q.q.q.q.q.q.q.q.q.q.q.",
"q.q.q.q.q.q.q.q.q.q.q.q.q.q.q.q.q.q.q.N M @ # ; ; ; - : P P f h q.q.q.q.q.q.q.q.q.q.q.q.q.q.q.q.q.q.",
"q.q.q.q.q.q.q.q.q.q.q.q.q.q.q.q.q.q.q.q.V k b c x - A Q ! s ( q.q.q.q.q.q.q.q.q.q.q.q.q.q.q.q.q.q.q.",
"q.q.q.q.q.q.q.q.q.q.q.q.q.q.q.q.q.q.q.q.q.q.q.M B ^ ] ~ ( < q.q.q.q.q.q.q.q.q.q.q.q.q.q.q.q.q.q.q.q.",
"q.q.q.q.q.q.q.q.q.q.q.q.q.q.q.q.q.q.q.q.q.q.q.q.q.q.q.q.q.q.q.q.q.q.q.q.q.q.q.q.q.q.q.q.q.q.q.q.q.q.",
"q.q.q.q.q.q.q.q.q.q.q.q.q.q.q.q.q.q.q.q.q.q.q.q.q.q.q.q.q.q.q.q.q.q.q.q.q.q.q.q.q.q.q.q.q.q.q.q.q.q.",
"q.q.q.q.q.q.q.q.q.q.q.q.q.q.q.q.q.q.q.q.q.q.q.q.q.q.q.q.q.q.q.q.q.q.q.q.q.q.q.q.q.q.q.q.q.q.q.q.q.q.",
"q.q.q.q.q.q.q.q.q.q.q.q.q.q.q.q.q.q.q.q.q.q.q.q.q.q.q.q.q.q.q.q.q.q.q.q.q.q.q.q.q.q.q.q.q.q.q.q.q.q.",
"q.q.q.q.q.q.q.q.q.q.q.q.q.q.q.q.q.q.q.q.q.q.q.q.q.q.q.q.q.q.q.q.q.q.q.q.q.q.q.q.q.q.q.q.q.q.q.q.q.q.",
"q.q.q.q.q.q.q.q.q.q.q.q.q.q.q.q.q.q.q.q.q.q.q.q.q.q.q.q.q.q.q.q.q.q.q.q.q.q.q.q.q.q.q.q.q.q.q.q.q.q.",
"q.q.q.q.q.q.q.q.q.q.q.q.q.q.q.q.q.q.q.q.q.q.q.q.q.q.q.q.q.q.q.q.q.q.q.q.q.q.q.q.q.q.q.q.q.q.q.q.q.q.",
"q.q.q.q.q.q.q.q.q.q.q.q.q.q.q.q.q.q.q.q.q.q.q.q.q.q.q.q.q.q.q.q.q.q.q.q.q.q.q.q.q.q.q.q.q.q.q.q.q.q.",
"q.q.q.q.q.q.q.q.q.q.q.q.q.q.q.q.q.q.q.q.q.q.q.q.q.q.q.q.q.q.q.q.q.q.q.q.q.q.q.q.q.q.q.q.q.q.q.q.q.q.",
"q.q.q.q.q.q.q.q.q.q.q.q.q.q.q.q.q.q.q.q.q.q.q.q.q.q.q.q.q.q.q.q.q.q.q.q.q.q.q.q.q.q.q.q.q.q.q.q.q.q.",
"q.q.q.q.q.q.q.q.q.q.q.q.q.q.q.q.q.q.q.q.q.q.q.q.q.q.q.q.q.q.q.q.q.q.q.q.q.q.q.q.q.q.q.q.q.q.q.q.q.q."
};
