/* XPM */
static char *_6465448486d4e69b55e9247d5c076cdZkiwjlBCQPbKdIvi[] = {
/* columns rows colors chars-per-pixel */
"50 50 107 2 ",
"   c None",
".  c black",
"X  c #010000",
"o  c #000100",
"O  c #010100",
"+  c #000001",
"@  c #000101",
"#  c #010101",
"$  c #020101",
"%  c #020202",
"&  c gray1",
"*  c #040404",
"=  c gray2",
"-  c #060606",
";  c #070706",
":  c #070707",
">  c #080707",
",  c #070708",
"<  c #090909",
"1  c #0A0909",
"2  c #0A0A09",
"3  c gray4",
"4  c #0B0B0B",
"5  c #0C0C0C",
"6  c #101010",
"7  c #111111",
"8  c #111112",
"9  c gray7",
"0  c #141415",
"q  c #151515",
"w  c #1F1E1F",
"e  c gray12",
"r  c #282827",
"t  c #323232",
"y  c #353535",
"u  c gray22",
"i  c #383938",
"p  c #383839",
"a  c #393939",
"s  c #3A3A3A",
"d  c #3B3A3A",
"f  c #434240",
"g  c #434241",
"h  c #4E4E4D",
"j  c #4F4E4E",
"k  c gray46",
"l  c #757776",
"z  c #787776",
"x  c #7A797A",
"c  c #7B7B7B",
"v  c #7C7B7B",
"b  c #7B7B7C",
"n  c #7C7B7C",
"m  c #7D7C7C",
"M  c #7D7C7D",
"N  c gray49",
"B  c #7E7F80",
"V  c #939293",
"C  c #949393",
"Z  c #A5A5A6",
"A  c #A6A5A6",
"S  c #C1C0BF",
"D  c #C2C1BE",
"F  c #C7C7C6",
"G  c #C7C7C8",
"H  c #CECECE",
"J  c #D1CECF",
"K  c #D0D1D1",
"L  c #D2D0D1",
"P  c #D5D5D3",
"I  c #D3D3D4",
"U  c gray84",
"Y  c #D8D7D6",
"T  c #DADBDA",
"R  c #DCDBD9",
"E  c #DDDCDC",
"W  c #DDDDDE",
"Q  c #E2E1DF",
"!  c #E1E0E0",
"~  c #E3E2E2",
"^  c gray89",
"/  c #E5E4E2",
"(  c #E4E4E3",
")  c #E5E4E3",
"_  c #E5E5E3",
"`  c #E6E4E3",
"'  c #E6E5E3",
"]  c #E5E6E3",
"[  c #E5E3E4",
"{  c #E4E4E4",
"}  c #E5E4E4",
"|  c #E5E5E4",
" . c gray90",
".. c #E6E4E4",
"X. c #E7E4E4",
"o. c #E6E5E5",
"O. c #E7E5E5",
"+. c #E6E6E4",
"@. c #E7E6E5",
"#. c #E5E5E6",
"$. c #E7E5E6",
"%. c #E7E6E6",
"&. c #E6E7E6",
"*. c #E7E7E6",
"=. c #E7E7E7",
"-. c #E8E5E6",
";. c #E8E6E7",
/* pixels */
"                                                                                                    ",
"                                                                                                    ",
"                                                                                                    ",
"                                      % % % % % % % % % % % %                                       ",
"                                7 % % % % % % f m m f % % % % % % <                                 ",
"                              % % % & *.( ~ +.( ( ( ( +.~ ( / % % % %                               ",
"                          - % % - ( ( ( ( ( ( +.+.( +.( ( ( ( ( ( > % % -                           ",
"                        % % % ( ( ( ( ( ( ( +.( ( +.( +.( ( ( ( ( ~ / % % %                         ",
"                      % % % ( ( Q +.+.+.( ] +.Q +.( +.+.+.+.+.+.+.( +.+.% % %                       ",
"                      % & ( ( ( +.( ] +.+.+.+.+.Q +.Q +.+.Q Q +.( +.Q +.( % %                       ",
"                    % % ( +.( ( +.+.+.Q Q +.] ( +.+.Q +.+.+.+.+.+.( +.( ( ( % %                     ",
"                  % % c ( +.( ( ( ] ( ] +.+.+.+.+.+.+.+.+.Q +.+.( +.( +.( ( m % %                   ",
"                  % % ( ( ( ( ( +.+.+.] +.] ( +.+.Q +.+.+.+.+.+.( ( ( ( ..( ( % %                   ",
"                % % R ( Z % ..~ Q +.+.( +.+.+.Q +.+.+.Q Q +.+.Q ( ( ( ..% Z ..T % %                 ",
"                % % ~ ( % % % % P ( Q +.+.Q +.+.+.] +.+.+.( +.+.~ I % % % % ....% %                 ",
"                % t ( 7 %     % % % z ] ( ] +.Q +.( +.+.Q ( ( l % % %     % 7 ( t %                 ",
"              % % ..( % %         % % % 7 ( ..( ( ( ( ( ( 7 % % %           % ( ..% %               ",
"              % % ( ( j %             % % % % { ( ( / % % % %             % h ( ( % %               ",
"              % % ( ( ( % %               % % % ( +.% % %               % % ~ ( / % %               ",
"              % 7 ( ( ( T % % %           % % &.+.( +.% %           % % % E ( ( ( 7 %               ",
"              % V ( ( ( ( ' % % % % % % % % r ..{ ( ..r % % % % % % % % +.( +.( ( C %               ",
"            5 % Q ( ( ( +.+.( ( a % % % & ~ ~ % & % % ( / - % % & s ~ ( ( +.( +.( Q % <             ",
"            % % -.+.( +.Q +.( +.( ( ( ( ( ( ..% % % % ( ( ..~ ( ( +.Q +.+.Q +.( ( -.% &             ",
"            & % -.( +.( +.( +.( ( ( ( ( ( ( Y % w w % Y ( ( ( ( +.+.+.+.+.+.( +.( ( % %             ",
"            - % ..( ( ( +.( ( +.+.+.( +.( ( i % D S % i ( ( ( ( +.( +.( +.( ( ( ( / % <             ",
"              % J ~ ( ( ( +.( ( +.Q +.( ( ( i % ..( % a ( ( ( +.( ( ( +.( +.( ( ~ H % 5             ",
"              % % % < ~ ( ( ( ( +.Q ( +.( +.....( { { +.+.( +.( ( ( ( ~ ( ( ~ < % % %               ",
"              % % % % % % % % F +.+.+.( +.( ( ( ( ..( ( Q +.( +...( F % & % % % % % %               ",
"                      % % % % % % % c ~ ( ( ( ..% % &.( +.( +.z % % % % % % %                       ",
"                              < % % % ( H % ....% % ( ..% L ( % % % <                               ",
"                                  % % ~ < % ../ % % { ..% 2 ( % %                                   ",
"                                  % % ~ < % ;.~ % % ....% 2 ( % %                                   ",
"                                  % % ~ < % ;.[ % % ~ ..% < ( % %                                   ",
"                                  % % ~ < % ;.[ % % ....% < ( % %                                   ",
"                                  % % { < % ..[ % % ....% < ~ % %                                   ",
"                                  % % { < % ..[ % % ..=.% < ( % %                                   ",
"                                  % % ~ < % ;.[ % % ....% 4 ( % %                                   ",
"                                  % % ~ < % ;.[ % % ..;.% 4 ( % %                                   ",
"                                  % % { < % ;.[ % % ~ ..% < ..% %                                   ",
"                                  % % / > % ;.[ % % ( ..% < ( % %                                   ",
"                                  % % ~ < % ;.[ % % ..=.% 5 ~ % %                                   ",
"                                  % % ~ < % ;.[ % % ....% < ( % %                                   ",
"                                  % % { < % ..[ % % ....% < ( % %                                   ",
"                                  % % ~ < % ..[ % % ....% < ~ % %                                   ",
"                                  % % ~ < % ..~ % % ~ ..% < ( % %                                   ",
"                                  % % c - % B c % % v M % - c % %                                   ",
"                                  % % % % % % % % % % % % % % % %                                   ",
"                                                                                                    ",
"                                                                                                    ",
"                                                                                                    "
};
