/* XPM */
static char *_d3650444e2d4f529ab58cfb449a1b0bHwRjMAiKQpXH771a[] = {
/* columns rows colors chars-per-pixel */
"50 50 213 2 ",
"   c #010101",
".  c #0B0402",
"X  c #050A03",
"o  c #0D0902",
"O  c #03030A",
"+  c #0C030A",
"@  c #040E0F",
"#  c #0B0B0B",
"$  c #120502",
"%  c #1B0601",
"&  c #140902",
"*  c #1B0B03",
"=  c #13060B",
"-  c #1A070B",
";  c #16080A",
":  c #1D0B0A",
">  c #161105",
",  c #1D1202",
"<  c #19130C",
"1  c #050314",
"2  c #06031B",
"3  c #170918",
"4  c #210D03",
"5  c #2A0C02",
"6  c #241202",
"7  c #2C1401",
"8  c #2E170E",
"9  c #261809",
"0  c #2A1B0B",
"q  c #331601",
"w  c #3A1302",
"e  c #351902",
"r  c #3B1B04",
"t  c #35110A",
"y  c #3D190F",
"u  c #290D16",
"i  c #2E1817",
"p  c #17251A",
"a  c #2C230E",
"s  c #030421",
"d  c #101121",
"f  c #322721",
"g  c #431601",
"h  c #4C1904",
"j  c #441708",
"k  c #4A1B0B",
"l  c #442106",
"z  c #44270B",
"x  c #512605",
"c  c #5E3D0A",
"v  c #412412",
"b  c #5A341C",
"n  c #6B2F09",
"m  c #753306",
"M  c #4F4C17",
"N  c #515110",
"B  c #6B5D0E",
"V  c #66461C",
"C  c #714517",
"Z  c #605E27",
"A  c #736326",
"S  c #921F14",
"D  c #80260A",
"F  c #942005",
"G  c #973C13",
"H  c #A33801",
"J  c #B33200",
"K  c #BC3412",
"L  c #F83E09",
"P  c #8F4B0D",
"I  c #875608",
"U  c #8C491A",
"Y  c #9D4515",
"T  c #8A511E",
"R  c #905A1E",
"E  c #AD511C",
"W  c #B5641E",
"Q  c #AE6528",
"!  c #BE6522",
"~  c #A97724",
"^  c #C34A0C",
"/  c #D7590D",
"(  c #ED4B0B",
")  c #F84906",
"_  c #F64B0B",
"`  c #F8570A",
"'  c #EC461A",
"]  c #EC5614",
"[  c #FD5913",
"{  c #EB6D04",
"}  c #FA6609",
"|  c #F4690B",
" . c #ED730A",
".. c #EB6B16",
"X. c #FD6B11",
"o. c #F5651A",
"O. c #EA7415",
"+. c #F47514",
"@. c #FD7212",
"#. c #F17C12",
"$. c #FD7C12",
"%. c #FA751A",
"&. c #FB7C1D",
"*. c #DD6A22",
"=. c #D8712E",
"-. c #DE6A31",
";. c #F36524",
":. c #E87623",
">. c #FF7D24",
",. c #F67B28",
"<. c #F97735",
"1. c #908829",
"2. c #9D8D31",
"3. c #B28528",
"4. c #B78A34",
"5. c #EB8611",
"6. c #F78416",
"7. c #F5831D",
"8. c #F8821C",
"9. c #F89A18",
"0. c #CD8127",
"q. c #D49F3D",
"w. c #E78A24",
"e. c #FA8524",
"r. c #F58D23",
"t. c #FD8B28",
"y. c #EF9325",
"u. c #EE9A2B",
"i. c #FB9421",
"p. c #FA962C",
"a. c #F69D2A",
"s. c #FC9A2C",
"d. c #FB8F31",
"f. c #F39C34",
"g. c #FB9C33",
"h. c #F8A92A",
"j. c #FBAB2E",
"k. c #F9B12A",
"l. c #EDAA39",
"z. c #FBA432",
"x. c #FCAC35",
"c. c #F6A739",
"v. c #E3B03B",
"b. c #FDB235",
"n. c #F7B937",
"m. c #FDB43A",
"M. c #FCBC3C",
"N. c #EAC53C",
"B. c #F8C53C",
"V. c #FDCE3E",
"C. c #FFDB3D",
"Z. c #B5B568",
"A. c #C49846",
"S. c #D99D40",
"D. c #E49B44",
"F. c #FCA545",
"G. c #FDB340",
"H. c #FCBE43",
"J. c #FBBF4B",
"K. c #FDBD54",
"L. c #EDC543",
"P. c #FCC243",
"I. c #FBCB4B",
"U. c #F9CC49",
"Y. c #FCD544",
"T. c #FCDD46",
"R. c #F5D54C",
"E. c #FDD24D",
"W. c #FECC52",
"Q. c #FED353",
"!. c #FDDD54",
"~. c #F6D558",
"^. c #FED45C",
"/. c #FDDA5C",
"(. c #F9ED46",
"). c #FAE54C",
"_. c #FFEE4D",
"`. c #FBF14C",
"'. c #ECE455",
"]. c #FCEC55",
"[. c #F8E659",
"{. c #FCF357",
"}. c #FEF35E",
"|. c #FCD560",
" X c #F7DE63",
".X c #F9DA69",
"XX c #FADC6B",
"oX c #F8D775",
"OX c #FEDE74",
"+X c #EEE76E",
"@X c #F4E363",
"#X c #FDE263",
"$X c #FCE568",
"%X c #FDF261",
"&X c #FDF76B",
"*X c #FDE272",
"=X c #FAE876",
"-X c #FBD999",
";X c #FEE486",
":X c #FCE795",
">X c #FDE899",
",X c #FCEDA7",
"<X c #FBEFAF",
"1X c #FDF0B2",
"2X c #FDF4C3",
"3X c #FEF6CC",
"4X c #FBF8DA",
"5X c #FCFDDB",
"6X c #FFF7E3",
"7X c #F6FAE5",
"8X c #FCFBE3",
"9X c #FDFBED",
"0X c #FAFEF7",
/* pixels */
"                                                                                                    ",
"                                                                                                    ",
"                                                                                                    ",
"                                                                                                    ",
"                                                                                                    ",
"                                                                                                    ",
"                                                                                                    ",
"                                                                                                    ",
"                                            O . O           .                                       ",
"                                          O O J .           : ;                                     ",
"                                              L X         .                                         ",
"                                      O     u / j + . .         .                                   ",
"                                            n L ' $ + =                                             ",
"                                    . .   . H ( ) F X   o   .                                       ",
"                                      d   D ) _ ) ' + $   .                                         ",
"                                +   w K _ _ $.i.] ( - . . o   o                                     ",
"                                X m +.'.d. .9.} ) G # & . . . .                                     ",
"                                $ ;...$.i.9.+.) ] % ; . o . .   .   .                               ",
"                                  [ <.%.6.#.[ ` k : > - o & . . .                                   ",
"                                + ^ M.{ Q.+.| } : & * & & $ o . . .                                 ",
"                              . # > ] z.5.o.} X.j * : & & & o . . +                                 ",
"                              o . ; % g Y ;.X.X.G 6 4 , * % ; $ # # .                               ",
"                              . #   * : ; < k :.;.n < > * , - o j x X +                             ",
"                              . . o & * * 6 : 5 *.%.Y 5 * d p $ 0.v.S                               ",
"                        X   . o . & * * * 6 7 > 7 O.@.%.*.=.-.,.@.r.,.$                             ",
"                        O     . . & * * 4 5 9 6 9 n O.| 8.&.$.>.%.>.#.U     O                       ",
"                            . o & * * 6 6 7 q q 7 e ,.e.#.e.e.&.&.&.8.:.. O                         ",
"                            . . & * : 6 7 q q e r 8 ! e.p.b.n.b.x.j.e.7.. . O                       ",
"                              & ; V & 6 7 e w y r a E 5.r.s.m.m.z.r.e.t.$ . .                       ",
"                            . # Q =., 7 e e P W h m i.d.r.r.c.m.y.u.c.e.+ .                         ",
"                            $ @ D.V 0 7 e r x p.a.y.s.s.p.F.J.m.J.@XK.w.# O                         ",
"                            o o b > 6 q e r l f.G.p.s.p.s.l.=XOX=X;Xh.b   O                         ",
"                            O $ f : t q r l R y.g.s.g.z.s.a.a.h.m.l.T #                             ",
"                              . c ~ i t r I m.a.x.z.z.z.z.z.j.9.S.t 3                               ",
"                            . $ z b.x.h.j.z.j.c.I.H.x.x.x.j.z.C < o .                               ",
"                              . ; h.k.x.x.x.z.H.I.I.m.x.b.m.3.0 u & o                               ",
"                              . & M.n.M.P.W.W.Q.I.W.m.m.m.n.B 8 ; .   O                             ",
"                          O   . z B.P.U.Q.I.^.Q.|.W.M.M.M.M.q.0 ; v # O                             ",
"                          O   3 H.L.|.^.^..XXX;X.X/.Q.I.I.B.M.A.4.V.= #                             ",
"                        O O s A H.E..X^.OX:X>X1XXX^./.|.^./.B.P.B.N.o 1                             ",
"                          O   L.V.U./.OXXX#X[.|.!.!. XOXQ.E.Y.Q.-X~.+                               ",
"                          O X U.Y.Y. X X~./.$X*X*X,X4X4X8X3XoXC.$XA # O                             ",
"                          X O 2.T.!.2X7X9X2X:X:X2X6X6X4X2X*XR.#X9 O   O                             ",
"                            X 3 ).T.3X9X5X5X5X8X9X,X[. X).[._.B 1     O                             ",
"                            O   M [.@X<X5X9X0X0X7X9X6X2X[.).Z.  X O                                 ",
"                                O N }.).`._.{.].(.}._.`.%XM # O #                                   ",
"                                    + 1.&X}.}.}.{.].+XZ X O #                                       ",
"                                        O 2 + # +         O                                         ",
"                                        O 2 X O O X   + X O                                         ",
"                                        O                                                           "
};
