/* XPM */
static char *cad9805fb01a4295ec4512cf4b6b1bf6ZemonysUuTXKEaWQ[] = {
/* columns rows colors chars-per-pixel */
"50 50 179 2 ",
"   c #010101",
".  c #0B0402",
"X  c #030802",
"o  c #0C0903",
"O  c #04020A",
"+  c #0B060B",
"@  c #020A0A",
"#  c #0B0A0B",
"$  c #120601",
"%  c #1D0404",
"&  c #140A01",
"*  c #1B0C01",
"=  c #12010A",
"-  c #130A0A",
";  c #1B0D0C",
":  c #1D1102",
">  c #1E110C",
",  c #040312",
"<  c #0B0412",
"1  c #0C0B11",
"2  c #0E0618",
"3  c #220E01",
"4  c #2D0801",
"5  c #2E080F",
"6  c #320707",
"7  c #241102",
"8  c #2C1402",
"9  c #2B1A06",
"0  c #25130C",
"q  c #321603",
"w  c #3A1606",
"e  c #361903",
"r  c #3C1A02",
"t  c #33140C",
"y  c #3D1C0D",
"u  c #2F0F12",
"i  c #211812",
"p  c #352D1A",
"a  c #460700",
"s  c #441E03",
"d  c #4E1804",
"f  c #461708",
"g  c #531B01",
"h  c #591900",
"j  c #452002",
"k  c #492200",
"l  c #42270C",
"z  c #512405",
"x  c #55351C",
"c  c #672B0D",
"v  c #6A3706",
"b  c #5E410A",
"n  c #6B4116",
"m  c #797521",
"M  c #83340F",
"N  c #862812",
"B  c #83281F",
"V  c #833C17",
"C  c #9F3D11",
"Z  c #A52307",
"A  c #BA2415",
"S  c #A53C17",
"D  c #EB3116",
"F  c #AE5518",
"G  c #9F7E36",
"H  c #A26B27",
"J  c #DA5B0F",
"K  c #C74815",
"L  c #EB4B05",
"P  c #FF400A",
"I  c #F94E0B",
"U  c #E75A01",
"Y  c #EE5D05",
"T  c #F95709",
"R  c #FF5E09",
"E  c #E74F15",
"W  c #E55A16",
"Q  c #F16507",
"!  c #FD6608",
"~  c #9F872C",
"^  c #8C8237",
"/  c #AB942C",
"(  c #BD8032",
")  c #A99634",
"_  c #FE8918",
"`  c #FAA11F",
"'  c #D68F34",
"]  c #ED8F27",
"[  c #FC8E24",
"{  c #EF9824",
"}  c #FB9226",
"|  c #F3912B",
" . c #FA952C",
".. c #F79D2D",
"X. c #FC9B2D",
"o. c #F79D37",
"O. c #FC9E31",
"+. c #FF9B38",
"@. c #FDA727",
"#. c #F7B12D",
"$. c #F9B72F",
"%. c #E1A53D",
"&. c #F0A733",
"*. c #FBA633",
"=. c #F5AC32",
"-. c #FBAC35",
";. c #FCAE38",
":. c #E5B438",
">. c #F5B437",
",. c #FEB537",
"<. c #FCB33C",
"1. c #FCBB3B",
"2. c #FBC739",
"3. c #F7D73B",
"4. c #EEE620",
"5. c #BB9D4F",
"6. c #D88C47",
"7. c #D69043",
"8. c #D6A048",
"9. c #FEA94C",
"0. c #E0B94A",
"q. c #F7B646",
"w. c #FCB441",
"e. c #F5BD41",
"r. c #FDBD42",
"t. c #FDAF60",
"y. c #F3C645",
"u. c #F5CA43",
"i. c #FBCB42",
"p. c #FFC549",
"a. c #F0CF4E",
"s. c #FDCB4B",
"d. c #E5D840",
"f. c #FCD447",
"g. c #FDD44C",
"h. c #F8DB4A",
"j. c #F4CE53",
"k. c #FBCB52",
"l. c #EBDC58",
"z. c #F7D550",
"x. c #FBD751",
"c. c #FEDB54",
"v. c #FDD55B",
"b. c #FBE34B",
"n. c #F2F143",
"m. c #FEEF54",
"M. c #F8E75B",
"N. c #FCEA5C",
"B. c #FEF656",
"V. c #FEF15C",
"C. c #FBCE62",
"Z. c #F9DA67",
"A. c #F7DA68",
"S. c #F0D678",
"D. c #ECEA6A",
"F. c #F0E761",
"G. c #FDE265",
"H. c #FDEC67",
"J. c #FCE36C",
"K. c #FBE675",
"L. c #FAE97A",
"P. c #F8F07D",
"I. c #F9E186",
"U. c #FEEB84",
"Y. c #F8E78A",
"T. c #FDEE8F",
"R. c #FDE695",
"E. c #F6F198",
"W. c #F9F09F",
"Q. c #FBEDA9",
"!. c #FAF8A6",
"~. c #FAF3B6",
"^. c #FCE4C6",
"/. c #FDF7C8",
"(. c #FBF5D3",
"). c #FEFAD0",
"_. c #FDFAE1",
"`. c #FBFCF4",
"'. c #F8F5F8",
/* pixels */
"                                                                                                    ",
"                                                                                                    ",
"                                                                                                    ",
"                                                                                                    ",
"                                                                                                    ",
"                                                                                                    ",
"                                                                                                    ",
"                                              .                                                     ",
"                                              O .                                                   ",
"                                      O     % + M . X .                                             ",
"                                            # Z D .               X   .                             ",
"                                          O A E *           O         O                             ",
"                                      $   . B L +         X @ h <                                   ",
"                                      @ 6 # # a 0   .         L ,                                   ",
"                                          X O   +       . + . P = X                                 ",
"                                      . . .   . . . . +   3 c U t                                   ",
"                                          + . . . $ # d I U W ! g                                   ",
"                                      .   . . . . . N Q } _ T C .                                   ",
"                                    . . . . . o . S Y I Q K - + X O                                 ",
"                                      . . . $ o o S R F $ + = . . o                                 ",
"                                  . . . o $ $ $ $ u J & $ o . . o . .                               ",
"                                    . - . . $ & & 1 V 4 $ $ $ $   .                                 ",
"                                .   $   * 0 & & & - 3 * % & $ $ . . . .                             ",
"                                    o o $ & & * * & * * & & & & o . . .                             ",
"                                . . o $ % * * 3 3 * 7 * * & * & $ o o .                             ",
"                              .   o $ * * 3 3 3 3 3 0 * 7 3 * * $ o . .                             ",
"                              . . o & $ * * : 3 7 n 9 > 7 3 : * & o o . .                           ",
"                              . . $ $ * * 0 3 7 f W y 9 7 7 3 * * $ o o .                           ",
"                            . . . o & * ( t.[ 6.X.W t q 8 8 7 3 * $ o   .                           ",
"                              o o + ; * [ [ ] _ ..[ q w q 7 7 3 * * $ . .                           ",
"                              o + 5 7.] } } } [  .| z w q 9 8 7 * * $ . .                           ",
"                                o ' 2.;.X.} X. . .O.c y r e 8 7 * * $ . .                           ",
"                              . 3 ` { O.O.-.w.X.O.O.c w r e q 8 3 & & $ .                           ",
"                            . X l X.+.=.p.p.>.*.*.@.v s j s r 8 7 * & .                             ",
"                                x @.o.-.r.p.r.*.*.@.H z j r r q 7 * & .                             ",
"                              O * p.9.=.;.;.<.e.;.-.&.g k s s 8 3 * - .                             ",
"                            X   + b 2.q.=.w.,.<.<.w.$.%.z f r e 0 * - .                             ",
"                                . + 3 n 8.#.1.,.,.w.1.1.1.1.1.1.>.( 3 ,                             ",
"                                . # * 7 l :.e.k.C.i.1.1.y.s.r.Z.U.k.2.G   +                         ",
"                                  o & 0 s i.i.x.S.E.T.U.I.Z.2.k.j.u.I.2.* @ @                       ",
"                                  O l 0.2.k.s.s.v.z.x.x.c.f.u.i.s.s.3.5.+ X O                       ",
"                                O ) f.c.g.a.A.A.Z.G.J.J.v.i.f.g.x./ ; #   O                         ",
"                                  g.a.S.~.).(./.T.K.U.G.v.v.h.y.~   O O                             ",
"                                  h.U.b.G.N.L.K.3.x.F.W.^.R.b.d.2                                   ",
"                                O F./.'.).(.`.`.)._.T.N.M.b.L.> X                                   ",
"                                  & l.4.Y.Q.F.P.!.!.N.H.H.) O , O                                   ",
"                                  , . ^ n.m.V.B.V.B.D.m # #   O       O                             ",
"                                        + o i p > . O                 .                             ",
"                                        O   X O @ X   X                                             ",
"                                              O                                                     "
};
