/* XPM */
static char *f9e27b9c6c3a4b21ddd99a0f4526cdb9POfjVUiJZNhj1jpN[] = {
/* columns rows colors chars-per-pixel */
"50 50 187 2 ",
"   c #010101",
".  c #0B0402",
"X  c #070A03",
"o  c #0E0903",
"O  c #05030B",
"+  c #0C0509",
"@  c #060A08",
"#  c #0B0A0B",
"$  c #120602",
"%  c #1B0601",
"&  c #140A02",
"*  c #1B0C02",
"=  c #14030B",
"-  c #150D0B",
";  c #081301",
":  c #1E1404",
">  c #1E1C05",
",  c #1B120B",
"<  c #1E180F",
"1  c #010110",
"2  c #0D0615",
"3  c #050218",
"4  c #210D02",
"5  c #280F09",
"6  c #320E00",
"7  c #241103",
"8  c #2C1401",
"9  c #2C1A02",
"0  c #221109",
"q  c #2B160D",
"w  c #331601",
"e  c #3A1401",
"r  c #361800",
"t  c #3C1C03",
"y  c #38160A",
"u  c #2E1C10",
"i  c #2A260A",
"p  c #372009",
"a  c #38250D",
"s  c #383606",
"d  c #471A04",
"f  c #541E02",
"g  c #641F18",
"h  c #432301",
"j  c #4C2305",
"k  c #44250C",
"l  c #5E2504",
"z  c #5A370D",
"x  c #5C3013",
"c  c #6C350F",
"v  c #6C2E18",
"b  c #5A4B1E",
"n  c #704003",
"m  c #7B4B1F",
"M  c #7C6614",
"N  c #747033",
"B  c #8B470F",
"V  c #865213",
"C  c #995519",
"Z  c #AE4717",
"A  c #BA5C19",
"S  c #BE701F",
"D  c #805026",
"F  c #9F6A2B",
"G  c #8E6A32",
"H  c #A4602C",
"J  c #C44509",
"K  c #F5550C",
"L  c #F97616",
"P  c #F87119",
"I  c #F1791B",
"U  c #DB6129",
"Y  c #EE7922",
"T  c #F97B24",
"R  c #EB7A34",
"E  c #BD8330",
"W  c #EE871D",
"Q  c #F4821E",
"!  c #F9841D",
"~  c #F18D1B",
"^  c #FC8A1D",
"/  c #FA911E",
"(  c #F69F1A",
")  c #ECA21B",
"_  c #C6802A",
"`  c #D89136",
"'  c #EF8B27",
"]  c #FB8223",
"[  c #F68D22",
"{  c #FA8B23",
"}  c #F98F2F",
"|  c #EE992A",
" . c #F99325",
".. c #F79528",
"X. c #FB952B",
"o. c #F49A28",
"O. c #FB9B2D",
"+. c #FA9C35",
"@. c #CFB13D",
"#. c #FAA627",
"$. c #F6A42D",
"%. c #FBA32E",
"&. c #FEB321",
"*. c #F7B12F",
"=. c #F6A732",
"-. c #FCA330",
";. c #FCAB34",
":. c #F1AB39",
">. c #FFAB3B",
",. c #FAB235",
"<. c #FCBA37",
"1. c #FBB43A",
"2. c #F4BD3A",
"3. c #FBBB3D",
"4. c #FEC12E",
"5. c #E9D429",
"6. c #FFD82B",
"7. c #FBC739",
"8. c #FAC13E",
"9. c #FBD238",
"0. c #B7AD4E",
"q. c #CBA743",
"w. c #E9B245",
"e. c #FBB344",
"r. c #F6BD44",
"t. c #FEBA43",
"y. c #E6B756",
"u. c #F9BE5C",
"i. c #D8CE5A",
"p. c #EBCA44",
"a. c #FCC342",
"s. c #F0C846",
"d. c #FCCB43",
"f. c #F5C54A",
"g. c #FFC64C",
"h. c #FFCA4B",
"j. c #FEDF44",
"k. c #FBD34D",
"l. c #F3DC4A",
"z. c #FCDA4B",
"x. c #FDC551",
"c. c #F7C953",
"v. c #FBCC53",
"b. c #FACC5B",
"n. c #F6D555",
"m. c #FDD254",
"M. c #F3DD56",
"N. c #FCD35A",
"B. c #FDDD5B",
"V. c #E8E14A",
"C. c #F4E247",
"Z. c #F7F643",
"A. c #FFF04A",
"S. c #ECE658",
"D. c #FCE35D",
"F. c #F6EE5F",
"G. c #FFEB5E",
"H. c #FCF251",
"J. c #FAF158",
"K. c #EEC968",
"L. c #E0D96C",
"P. c #F8DE63",
"I. c #FDE365",
"U. c #FCE76A",
"Y. c #FDEC6B",
"T. c #FEF162",
"R. c #FDF06E",
"E. c #FBE774",
"W. c #F7EE71",
"Q. c #FDE47C",
"!. c #FAE686",
"~. c #FAF284",
"^. c #FAEA93",
"/. c #FFEAA1",
"(. c #FCEFAE",
"). c #FBF3AA",
"_. c #FCEFB6",
"`. c #FEF2B4",
"'. c #F7F3B8",
"]. c #FBF5BB",
"[. c #FBEDCB",
"{. c #FCF9C3",
"}. c #FFF7C8",
"|. c #FCFBCA",
" X c #FFF8D1",
".X c #FBFDE9",
"XX c #FEFAF0",
/* pixels */
"                                                                                                    ",
"                                                                                                    ",
"                                                                                                    ",
"                                                                                                    ",
"                                                                                                    ",
"                                                                                                    ",
"                                                O X                                                 ",
"                                              + 5 @                                                 ",
"                                              2 g .                                                 ",
"                                                + - +                                               ",
"                                                  +                                                 ",
"                                                            X o                                     ",
"                                                        . . J %                                     ",
"                                                    + + f K K O                                     ",
"                                                  . + q 6 * 4                                       ",
"                                        .       .   . + + .     .                                   ",
"                                              X   . . . . .                                         ",
"                                          X . . . . . . . . . . .                                   ",
"                                      X   . . . $ . . . . . . . . . .                               ",
"                                        X X . $ $ . $ $ & $ . . . .   X                             ",
"                                      . . . . $ % & & $ & $ o . $ . . O                             ",
"                                    .   + $ o - + * & & & & & . . o .                               ",
"                                    . = o = w U L w * , * & & $ $ . +   .                           ",
"                                X O = % 3 B W L P A & & * * & & & o .   .                           ",
"                              X   ; Z T Q ] I T Y I 0 , 4 * * * & & o . .                           ",
"                              O @ R C.p.' { L I ! R : 0 7 * 4 * & & $ . .                           ",
"                              O x ~ s.Q W Q ! ] ! S 0 7 7 7 7 4 4 & & . .   .                       ",
"                                H / +.[ >.-.{ { ^ v 8 8 w 7 7 7 4 & & $ . X                         ",
"                                m ^ } o.<.;.{ { ' f 7 9 w 8 7 7 7 * & $   .                         ",
"                              @ p X.[ X.%.>.X.{ X.C d r r w w 8 7 * & & . .                         ",
"                              + 2 S {  ...O.O.X...O.l y t 8 8 7 , % * - $ . .                       ",
"                              O # & _ ) %.+.O.O.| o.>.C d k e w 9 * * & . .                         ",
"                                . O $ c y.N.1.+.-.%.+.( #.| E F D z 7 + o +                         ",
"                                . & & & 8 e n ` =.;.$.=.;.-.:.h.x.<.*.=.h O .                       ",
"                              . . . * 4 8 w d j 1.;.;.;.;.;.>.$.e.!.Q.b.:.                          ",
"                                  o & 4 8 r h j *.,.1.,.<.e.3.t.h.g.,.e.&.. .                       ",
"                                  . & 4 7 t e V <.1.3.3.x.v.m.m.h.a.,.1.2.O O                       ",
"                                  . - * 7 t k w.u.v.f.a.c.b.3.a.a.3.r.t.G   O                       ",
"                                < 9 - 4 8 y f 2.8.c.h.a.k.h.8.8.a.f.4.q.O   +                       ",
"                                u 5.M * q k q.7.8.v.N.N.m.m.d.a.d.K.b =   O                         ",
"                                O c.n.6.z.I.).!.k.9.D.D.P.B.d.g.p.4 X +                             ",
"                            O   X i 9.z.(.{.}./.9.N.Q.Q.U.B.l.m.@.#   .                             ",
"                                  - v.^.|._.`.}._.R.I.Q.E.D.n.z.M.+ O                               ",
"                                X b j.C.V.G.Y.R.E.R.U.F.^.Q.D.I.M.                                  ",
"                                O a C._.[. X.X.X'.{.XX].W.C.l.V.0                                   ",
"                                  2 i.J.M.Y.F.~.~.U.G.D.A.L.> 3 #   @                               ",
"                                  @ X 0.Z.T.T.J.A.H.S.N . @ O O                                     ",
"                                    X # . : i s , O O O O                                           ",
"                                          X   O # O O 1                                             ",
"                                                @                                                   "
};
