/* XPM */
static char *_2719bfcae11483adbacc0d31d05e35dmkkdRH3l6UXWbLZC[] = {
/* columns rows colors chars-per-pixel */
"50 50 184 2 ",
"   c #010101",
".  c #0B0402",
"X  c #040A04",
"o  c #0C0904",
"O  c #04030A",
"+  c #0B0409",
"@  c #05090C",
"#  c #090B0A",
"$  c #110701",
"%  c #130A02",
"&  c #1C0C01",
"*  c #100308",
"=  c #120B0C",
"-  c #151105",
";  c #191204",
":  c #16130B",
">  c #070415",
",  c #0A0A11",
"<  c #1A0B13",
"1  c #240D02",
"2  c #2E0F05",
"3  c #260608",
"4  c #310E00",
"5  c #241102",
"6  c #2C1301",
"7  c #211807",
"8  c #2C150C",
"9  c #321603",
"0  c #3B1404",
"q  c #331902",
"w  c #3A1B03",
"e  c #381309",
"r  c #2B1C17",
"t  c #351913",
"y  c #3E2406",
"u  c #3B2211",
"i  c #373112",
"p  c #040020",
"a  c #400E06",
"s  c #431D02",
"d  c #421906",
"f  c #4A1E00",
"g  c #432002",
"h  c #4A2904",
"j  c #45250D",
"k  c #522203",
"l  c #56250A",
"z  c #4D390E",
"x  c #712200",
"c  c #613207",
"v  c #59430B",
"b  c #7B5F1F",
"n  c #4A4621",
"m  c #5A5626",
"M  c #7E6B27",
"N  c #945B15",
"B  c #B14C16",
"V  c #BC551A",
"C  c #8F6011",
"Z  c #B1641A",
"A  c #A5701E",
"S  c #AA452E",
"D  c #B65C25",
"F  c #9C6520",
"G  c #8A793A",
"H  c #AD7A2D",
"J  c #B86530",
"K  c #D75F1F",
"L  c #F15E0B",
"P  c #F3730E",
"I  c #F86C17",
"U  c #FC7113",
"Y  c #F77A17",
"T  c #F77019",
"R  c #F87919",
"E  c #FE7A19",
"W  c #D77527",
"Q  c #EC7022",
"!  c #F17E24",
"~  c #F97923",
"^  c #FE7829",
"/  c #EF7C39",
"(  c #A5821A",
")  c #B49637",
"_  c #B5A237",
"`  c #F48C1A",
"'  c #F6891D",
"]  c #EA911E",
"[  c #C78427",
"{  c #C6912A",
"}  c #D58833",
"|  c #C7903E",
" . c #DD9F38",
".. c #F68522",
"X. c #FA8526",
"o. c #FA8A25",
"O. c #F8862B",
"+. c #F59323",
"@. c #FB9225",
"#. c #F49929",
"$. c #F49C2C",
"%. c #FB9A2C",
"&. c #E89230",
"*. c #FC9E32",
"=. c #FCA32D",
"-. c #FCBA2B",
";. c #FCA432",
":. c #FCAB33",
">. c #FDA538",
",. c #F7A839",
"<. c #E7B039",
"1. c #F3B333",
"2. c #FCB336",
"3. c #FDB33C",
"4. c #F4BA39",
"5. c #FCBB3C",
"6. c #E3D01B",
"7. c #EFC03F",
"8. c #FCC23D",
"9. c #F5CA3A",
"0. c #F7E83A",
"q. c #B88D47",
"w. c #C0BD4E",
"e. c #FAB342",
"r. c #FEBC43",
"t. c #F4BA48",
"y. c #FBBE4B",
"u. c #EFB353",
"i. c #F9B759",
"p. c #CCC44D",
"a. c #F3C647",
"s. c #F5C444",
"d. c #FDC443",
"f. c #FECA45",
"g. c #FDC54B",
"h. c #F4CC4B",
"j. c #FBCB4B",
"k. c #F7D748",
"l. c #FDD34C",
"z. c #F7D94C",
"x. c #F6C952",
"c. c #FDCB53",
"v. c #FDD255",
"b. c #F5D857",
"n. c #FCD45B",
"m. c #FAE846",
"M. c #F6F04A",
"N. c #F4E750",
"B. c #FEED54",
"V. c #F6E058",
"C. c #F7E759",
"Z. c #FAEC5C",
"A. c #FCF254",
"S. c #FED562",
"D. c #F7DE67",
"F. c #F5DD76",
"G. c #E8E263",
"H. c #FDE363",
"J. c #F5E864",
"K. c #F7E669",
"L. c #FCE369",
"P. c #FDEC6B",
"I. c #FCF46A",
"U. c #FCE674",
"Y. c #FDEC73",
"T. c #F6E97D",
"R. c #FDF175",
"E. c #FEF27C",
"W. c #F8D88A",
"Q. c #FFE280",
"!. c #FFEF81",
"~. c #FDEF8E",
"^. c #FEE997",
"/. c #FCF29E",
"(. c #F4EFAB",
"). c #FFEFA8",
"_. c #FEF5AF",
"`. c #FFF2B7",
"'. c #F5EEC7",
"]. c #FCF6CB",
"[. c #FAFAD5",
"{. c #F7FAEB",
"}. c #FEF7F6",
"|. c #FDFBF8",
/* pixels */
"                                                                                                    ",
"                                                                                                    ",
"                                                                                                    ",
"                                                                                                    ",
"                                                                                                    ",
"                                                                                                    ",
"                                                +                                                   ",
"                                                                                                    ",
"                                                                                                    ",
"                                          .     .       . .   X .                                   ",
"                                              .   .     O . & #                                     ",
"                                          . . . .   . . . S 0 # .                                   ",
"                                        . O . . . . . . . . O                                       ",
"                                      . . . . . . . $ o . . .         O                             ",
"                                    . . . o . . . $ . . . . . . .                                   ",
"                                    . . . $ o . $ $ $ o . . . . .                                   ",
"                                  . . o . X = - o * % % $ $ . o .                                   ",
"                                .   + . $ 3 K 2 % % % % $ . . $ .   .                               ",
"                                  . . . . 1 L B % % % % % $ . $ . .   .                             ",
"                                . . . o . x L I d % & ; % % % $ . . .                               ",
"                                . . + X l T I U V & 1 - ; % % % $ .                                 ",
"                            X . . . & K I E ` U Q 1 & & & & % $ $ . . .     O                       ",
"                              . & W E P ` ' $.U ^ 1 5 ; 1 1 ; & $ $ .                               ",
"                              > D d.k.e.] =.=.Y ~ 6 5 5 5 5 & & & % . .                             ",
"                            . . O.R o.@.=.:.:.' ! 6 6 5 6 5 5 ; & o . .                             ",
"                              . R X.X.E ;.:.*.E ! w 9 6 5 5 5 1 & $ o . .   O                       ",
"                              X J o.n.l.3.X...' ' d 2 9 q 6 5 5 & % o .     O                       ",
"                            . = . l D / o.X.o.o.' W 0 9 q 6 5 5 ; - $                               ",
"                              . % % ; 7 6 k Z @.+.' } f 8 8 r 3 3 a k . @   O                       ",
"                            X . o & 1 5 6 q t N @.O.#.o.#.&.$.;.d.n.8.&.. O X                       ",
"                              . $ & 5 6 9 w j w [ %.#.%.%.%.%.%.%.%.;.+.$ > .                       ",
"                            . . . % 5 6 9 w f d c *.*.*.%.;.3.,.;.;.%.=.3 *                         ",
"                              . = 1 1 6 0 w y k h ,.,.>.r.g.a.g.3.,.;.=.O + .                       ",
"                            O . z % 6 6 w s j g F ,.;.;.r.g.h.g.d.r.>. .  O                         ",
"                              j ) & 1 6 w g A y.:.:.2.g.j.g.r.>.e.n.e.z O   O                       ",
"                            X H u.h 5 1 4 f 1.t.2.2.3.4.2.2.2.x.Q.t.| O                             ",
"                          # > ( c.q.1 9 g f e.4.2.d.d.5.5.5.-.r.d.{ % O X                           ",
"                            X . q.v - 6 w g <.4.c.n.h.f.5.5.i.8.b +   O                             ",
"                            + O o _ 1 5 e C 8.8.5.n.H.n.d.8.g.a.3 o +                               ",
"                                . u s.s.9.7.l.v.l.H.L.S.f.f.c.) < .                                 ",
"                              O O r 9.F._.'.].^.L.L.P.L.9.f.z.h.o .                                 ",
"                                O M v.W.D.b.Q.F.H.Y.Y.Y.C.l.n.h.b.  O                               ",
"                              O O z.h.N.K.U.!.R.I.R.I.C.R.k.k.n.V.X                                 ",
"                                - 0.'.[.{.].T.T.~.U.B.J./.(.).M.G                                   ",
"                                X J.I.).`.].}.|.{.[.{.|.].E.6.w.X O                                 ",
"                                @ - G.B.A.A.m.Z.Z.Z.C.I.0.Z.n O O                                   ",
"                                . O @ m G.A.A.A.Z.M.Z.p.i O                                         ",
"                                    O   O O , # : # > p O O                                         ",
"                                          X O O O > # X       O                                     ",
"                                                    +                     O                         "
};
