/* XPM */
static char *result[] = {
/* columns rows colors chars-per-pixel */
"50 50 219 2 ",
"   c #010101",
".  c #0B0402",
"X  c #050A03",
"o  c #0D0A03",
"O  c #03040B",
"+  c #0B040A",
"@  c #040B0B",
"#  c #0B0A0A",
"$  c #140402",
"%  c #1B0701",
"&  c #130902",
"*  c #1C0C01",
"=  c #14050B",
"-  c #18020E",
";  c #140A0A",
":  c #1D0B0B",
">  c #0D1009",
",  c #1B1001",
"<  c #191005",
"1  c #040312",
"2  c #0A0514",
"3  c #0B0A14",
"4  c #09071A",
"5  c #120B13",
"6  c #100E1C",
"7  c #001811",
"8  c #1C1911",
"9  c #200402",
"0  c #220E02",
"q  c #2A0D04",
"w  c #250A0A",
"e  c #340C01",
"r  c #251303",
"t  c #2D1302",
"y  c #2D1B03",
"u  c #241309",
"i  c #2C130A",
"p  c #271909",
"a  c #351404",
"s  c #3A1302",
"d  c #341A03",
"f  c #3C1903",
"g  c #36150A",
"h  c #321C09",
"j  c #3A1B09",
"k  c #290910",
"l  c #291716",
"z  c #391512",
"x  c #36250F",
"c  c #322C0A",
"v  c #460F03",
"b  c #461701",
"n  c #431C01",
"m  c #451B08",
"M  c #4A1A0A",
"N  c #511F01",
"B  c #491B1A",
"V  c #452204",
"C  c #4B2302",
"Z  c #562103",
"A  c #562906",
"S  c #5E340A",
"D  c #452416",
"F  c #552B18",
"G  c #682D04",
"H  c #752B0A",
"J  c #62340B",
"K  c #78360E",
"L  c #792618",
"P  c #633A14",
"I  c #793814",
"U  c #754911",
"Y  c #555720",
"T  c #675B24",
"R  c #776225",
"E  c #9C2801",
"W  c #813B0C",
"Q  c #873A18",
"!  c #AC2D12",
"~  c #C03B0E",
"^  c #804910",
"/  c #9E4915",
"(  c #915719",
")  c #AE5B1C",
"_  c #B1541B",
"`  c #966619",
"'  c #A9641A",
"]  c #8D6324",
"[  c #BB6E2B",
"{  c #B1772C",
"}  c #B57436",
"|  c #C94918",
" . c #CF5B18",
".. c #EC4E03",
"X. c #EF4208",
"o. c #FD5F01",
"O. c #FB540B",
"+. c #F65C0A",
"@. c #ED5912",
"#. c #F35614",
"$. c #DD6F08",
"%. c #E76703",
"&. c #F56A0B",
"*. c #FB680B",
"=. c #F4780E",
"-. c #EC6618",
";. c #F66918",
":. c #E77C1E",
">. c #F87B15",
",. c #F57C19",
"<. c #DA5728",
"1. c #C86523",
"2. c #E97528",
"3. c #F77E24",
"4. c #989528",
"5. c #9C8F31",
"6. c #A38839",
"7. c #B99438",
"8. c #BDB23A",
"9. c #FF8D0F",
"0. c #F6891C",
"q. c #EB9B1F",
"w. c #FD941B",
"e. c #F9971F",
"r. c #CB9A2B",
"t. c #DC873B",
"y. c #C79938",
"u. c #F58321",
"i. c #FD8322",
"p. c #FE8B24",
"a. c #F18D2D",
"s. c #F89624",
"d. c #FD952C",
"f. c #FC9B2C",
"g. c #F69732",
"h. c #C8A538",
"j. c #F7A225",
"k. c #FAA126",
"l. c #FCA42E",
"z. c #FDA92C",
"x. c #FDB52D",
"c. c #EDA737",
"v. c #FBA433",
"b. c #F6A933",
"n. c #FDAB33",
"m. c #F6A638",
"M. c #F6B236",
"N. c #FAB336",
"B. c #F7B13E",
"V. c #FBB639",
"C. c #FDBB3A",
"Z. c #F9CB34",
"A. c #FBC13C",
"S. c #FBCA3E",
"D. c #F7D13F",
"F. c #F8ED35",
"G. c #B5AF44",
"H. c #BEBE40",
"J. c #D49942",
"K. c #E9894E",
"L. c #FF9E41",
"P. c #F7AC43",
"I. c #E0B542",
"U. c #E5BA44",
"Y. c #F6B743",
"T. c #FCC543",
"R. c #F6CC46",
"E. c #FDCA44",
"W. c #FEC74B",
"Q. c #F1CC48",
"!. c #FCCD4C",
"~. c #FBD441",
"^. c #FBDA44",
"/. c #FCD24C",
"(. c #FDDD4B",
"). c #EAC554",
"_. c #FFC750",
"`. c #FDCC53",
"'. c #FDD455",
"]. c #F7DA54",
"[. c #FDD25B",
"{. c #FDDA5C",
"}. c #F6E548",
"|. c #FBF242",
" X c #EFE65A",
".X c #F9E855",
"XX c #FCE25B",
"oX c #FFEC5C",
"OX c #FCF454",
"+X c #FEF25B",
"@X c #FDD463",
"#X c #F8D466",
"$X c #FDDD64",
"%X c #F6D276",
"&X c #EFE668",
"*X c #FDE365",
"=X c #FEE469",
"-X c #F7EB6E",
";X c #FEF160",
":X c #FDE777",
">X c #FEE47D",
",X c #FCF775",
"<X c #FBE282",
"1X c #FFEB8E",
"2X c #FCED96",
"3X c #FCEF99",
"4X c #FBF69D",
"5X c #FBE7A4",
"6X c #FFEFBE",
"7X c #FEF4B6",
"8X c #FBECCF",
"9X c #FEF5C4",
"0X c #FEF9C4",
"qX c #FCF7D5",
"wX c #FEFADC",
"eX c #FDFBE4",
"rX c #FCF7EE",
"tX c #FEFDE9",
"yX c #FCF9F7",
/* pixels */
"                                                                                                    ",
"                                                                                                    ",
"                                                                                                    ",
"                                                                                                    ",
"                                              #   = +                                               ",
"                                            $ @ L e O .                                             ",
"                                            X 9 ! + O .                                             ",
"                                            O s X.  . .                                             ",
"                                            . G X.E 1                                               ",
"                                      X     1 ~ 2...v .                                             ",
"                                            q O.9.+.W $   .                                         ",
"                                      .   : <.*.0.#.s $                                             ",
"                                  X 1 O b O.*.>...| O . . .                                         ",
"                                  # N ;.@.%.e.o.O.s $ @ . .                                         ",
"                                  L %.$.0.w.s.O.+.% = $ . . .                                       ",
"                                   .=.0.*.p.w.&.#.X $ $ . . X . X                                   ",
"                                X K.].w.0.o.-.0.+.# & o o . $ . X                                   ",
"                              X . S I + + * K ;.;.# > & & o X . . .                                 ",
"                                X - @ o $ ; 0 s ;.n ; & & o $ k # X X                               ",
"                              .   . $ o & & & 6 H -.w * & * ) V ;./ . 1                             ",
"                                . . . & * * * * < 1. .> % ; : 7 J f.1.+                             ",
"                              . . . & & & % * 0 r Z *.) $ 5 $ # G 0.=.Q   X +                       ",
"                              . o $ $ * * 0 * , 0 u 2.=.3./ A I ,.s.k.:..   O                       ",
"                              $ X 9 : * 0 * t p d i Q i.p.0.>.>.s.n.l.=.. O                         ",
"                              . & m t 0 0 u q e q u V u.k.j.n.z.z.n.p.3..                           ",
"                            X . j P.U * u u } s.[ a l a.u.v.b.v.n.P.p.[   .                         ",
"                            . o & . : 5 0 b s.' t.d i _ v.'.v.`.=XY.i.0                             ",
"                              $ = * i h * N U M g y d H f.{.@X-X`.g.P #                             ",
"                            X $ & * 0 t y f K x j M d Z d.T.).Y.L.J #                               ",
"                              . & * 0 q t f P f n f j K d.s.g.t.s ; # % X                           ",
"                            X . ; , 0 t d x J K z B Z m.g.f.F r w & $                               ",
"                              o o : 0 d t f ( f.b.c.l.k.q.^ r r u & . .                             ",
"                              o ; n y.x a b P.l.m.n.n.b.c.t y t * & & .     O                       ",
"                              o - J.).s.P.n.n.n.n.n.n.n.{ a a t * & &                               ",
"                              = r.Y.2XV.N.M.N.V.M.N.N.n.G D d t u & .                               ",
"                            2 ] #X<X#Xx.W.!.W._.V.V.V.V.] F j r j r X +     X                       ",
"                            O U.Y.A.C.T.{.`.`.'.C.C.A.C.B.V f : C I.3 X                             ",
"                            6 y.C.A.T./.'.`.`.3XR.S.A.Y.C.S.7.` I.[.l X                             ",
"                            3 x Z.E.T.E.!.@X>X6X{.@X[.W.R.`.E.T.[.%X, 4   O                         ",
"                            X 3 7.E.E.R.{.{.$XXX$X$X>X:X5X2XS.A.h.; @ 3                             ",
"                              1 6.~.{./.*X$X$X{.<X6XwXwX5X/._.~.0                                   ",
"                            @ x D.D.{.'.=X=X*X*X1X9X1X*XXX{.(.^.R X                                 ",
"                            X T {.}.8X1X:X=X*X4X4X(.:X0XqX-XR.Q.5.                                  ",
"                            O o .X].qXtXtXeXtXyXwXeXyXrXrX7XXX8.2                                   ",
"                              O c ;X.X7XeXyX0X,X9XtXtX3X|.=XH.1 O                                   ",
"                                O p  XOXoXXX|.oX|.F..X;X X4.4 O X   O .                             ",
"                                  X X Y &XOX+X+XOXOX+XG.8 X 1 . O                                   ",
"                                        O   + + + 4 4 6 O O                                         ",
"                                        O X O O O   O 1                                             ",
"                                                . X                                                 "
};
