/* XPM */
static char *result[] = {
/* columns rows colors chars-per-pixel */
"50 50 207 2 ",
"   c #010101",
".  c #0B0402",
"X  c #030B03",
"o  c #0D0904",
"O  c #04040B",
"+  c #0C0409",
"@  c #06090A",
"#  c #0E0C0B",
"$  c #120502",
"%  c #1A0502",
"&  c #130A02",
"*  c #1B0B02",
"=  c #13030C",
"-  c #180609",
";  c #120B0A",
":  c #1C0B0B",
">  c #0B100D",
",  c #1D1103",
"<  c #1A1405",
"1  c #15130B",
"2  c #030212",
"3  c #060916",
"4  c #080A16",
"5  c #130913",
"6  c #1C0D13",
"7  c #130D18",
"8  c #220500",
"9  c #220D01",
"0  c #280E01",
"q  c #230F08",
"w  c #350B05",
"e  c #3C0F05",
"r  c #241105",
"t  c #2B1402",
"y  c #22110B",
"u  c #2B150B",
"i  c #241B0A",
"p  c #2D1A0C",
"a  c #331402",
"s  c #3B1504",
"d  c #331903",
"f  c #3A1B09",
"g  c #240410",
"h  c #251D19",
"j  c #331612",
"k  c #2E200B",
"l  c #352709",
"z  c #2E2010",
"x  c #431B00",
"c  c #4B1D03",
"v  c #46140A",
"b  c #56160B",
"n  c #4D2303",
"m  c #4D240E",
"M  c #5B2302",
"N  c #4B360C",
"B  c #452112",
"V  c #542C15",
"C  c #6C3405",
"Z  c #683805",
"A  c #62350C",
"S  c #743101",
"D  c #6A3714",
"F  c #793B26",
"G  c #5A4319",
"H  c #61441A",
"J  c #7A4614",
"K  c #59492C",
"L  c #7B7533",
"P  c #8C3A10",
"I  c #A33202",
"U  c #DF3715",
"Y  c #974211",
"T  c #91521D",
"R  c #945C1A",
"E  c #AB4D0B",
"W  c #BD480E",
"Q  c #A64316",
"!  c #AD5B1E",
"~  c #B75A19",
"^  c #826228",
"/  c #9B6B2B",
"(  c #9C7727",
")  c #B46F26",
"_  c #CB5B0B",
"`  c #D0510E",
"'  c #DB5918",
"]  c #F14F0B",
"[  c #F55105",
"{  c #F35C0A",
"}  c #F95D0A",
"|  c #FA6408",
" . c #FE770C",
".. c #EB6612",
"X. c #FB6A16",
"o. c #E2741C",
"O. c #E77E1A",
"+. c #F67617",
"@. c #FC7712",
"#. c #FB761D",
"$. c #E35E20",
"%. c #CE6929",
"&. c #DF7627",
"*. c #D36E30",
"=. c #F37C25",
"-. c #F87F23",
";. c #826948",
":. c #9C724A",
">. c #CE4F44",
",. c #948D34",
"<. c #A58D3B",
"1. c #BF8330",
"2. c #BDAA2E",
"3. c #FA861D",
"4. c #F78B1B",
"5. c #F59B1D",
"6. c #FBB51A",
"7. c #DC8C31",
"8. c #CD9737",
"9. c #D09C33",
"0. c #EB8926",
"q. c #F88827",
"w. c #F49D22",
"e. c #FC9826",
"r. c #E69B38",
"t. c #EAA12F",
"y. c #FBA525",
"u. c #F6A52B",
"i. c #FCA533",
"p. c #FDAB36",
"a. c #F8AA3A",
"s. c #FBAC3D",
"d. c #FCB335",
"f. c #F4BA37",
"g. c #FEB43D",
"h. c #F7BE3E",
"j. c #FBBE3D",
"k. c #FDC02C",
"l. c #F7C13E",
"z. c #FCC33D",
"x. c #F3CD3F",
"c. c #FECB3B",
"v. c #FBD839",
"b. c #FBE437",
"n. c #AC9241",
"m. c #AFA248",
"M. c #BBB444",
"N. c #D2AB52",
"B. c #FDBD42",
"V. c #F8B949",
"C. c #EBBE56",
"Z. c #E4BA59",
"A. c #F6BE54",
"S. c #D5D158",
"D. c #FDC643",
"F. c #FCCD43",
"G. c #FEC549",
"H. c #FEC94C",
"J. c #F7D746",
"K. c #FBD345",
"L. c #FBD44E",
"P. c #FCCA52",
"I. c #F8CD5B",
"U. c #EED958",
"Y. c #FED254",
"T. c #F6D957",
"R. c #FCD659",
"E. c #F8E749",
"W. c #FCE44C",
"Q. c #FEF44A",
"!. c #EEEC5D",
"~. c #F5E257",
"^. c #FCED53",
"/. c #FBE55A",
"(. c #FDF450",
"). c #FCF35B",
"_. c #FBC861",
"`. c #E7D166",
"'. c #F6D464",
"]. c #F4DA63",
"[. c #FCDD62",
"{. c #FEDA6F",
"}. c #FCDB75",
"|. c #FDE462",
" X c #FEE865",
".X c #FDE369",
"XX c #FEEB6A",
"oX c #F9F464",
"OX c #F7EE77",
"+X c #FBEC73",
"@X c #FDF07C",
"#X c #F5E684",
"$X c #FCE483",
"%X c #F7E99A",
"&X c #FCF29F",
"*X c #FCEDA4",
"=X c #FAF0AA",
"-X c #FFE8B7",
";X c #FEF2B3",
":X c #FDF3B9",
">X c #FFF2C3",
",X c #FDFAC3",
"<X c #FCF0CD",
"1X c #FEFACA",
"2X c #FEF8D9",
"3X c #F9F8E9",
"4X c #FAFCFE",
/* pixels */
"                                                                                                    ",
"                                                          O                                         ",
"                                                  8 + O                                             ",
"                                              . . - U 2 +                                           ",
"                                                  X + X                                             ",
"                                                                                                    ",
"                                                                                                    ",
"                                                  .                                                 ",
"                                              @ v + .                                               ",
"                                    .   X   O 3 I e . $                                             ",
"                                            O w [ v .   .                                           ",
"                                    .   + $ P ] ] + .                                               ",
"                                  X w E }  .#.{ ' . . + .                                           ",
"                                + Q @.e.O.X.} { W @     .                                           ",
"                                + | | ' Y Q ` } ` . .     .   X X                                   ",
"                                * | m X - o @ a $.% . + . X X .                                     ",
"                                + / g . . & . - ; S = % ; $ >.w                                     ",
"                            .     + 5 $ $ $ & $ o c 4 & . # X @ .                                   ",
"                              . . & o $ & & & & ; - _ 1 . & &   +                                   ",
"                              . . . $ & & & & & * * ..%.. 5 @ 2 2 *.$ .                             ",
"                            + . . & & * & , * * 9 * X.+.o.! S C ! +.B                               ",
"                            . o . & & > 9 & : * 0 & =.+.q.q.=.4.-. .V                               ",
"                            . . # m m < , % a c y y =.=.e.y.5.y.0.O.= O                             ",
"                          . X o - n s , y D &.q.~ : &.q.e.5.C.@.q.h                                 ",
"                          . . . & ; : 9 y , z D 7.u D 4.R.V.4.R & o   O                             ",
"                            . $ ; * * r a , z u t u x q.4.*.: o 6 .   O                             ",
"                          . . $ & , 9 r r t a t a a u 3.) * 1 o . .                                 ",
"                          . $ & * r 0 0 t d d d s s u 0.& 8 * * o . .                               ",
"                            . * * , 9 0 d f a f a l b R q r * * o .                                 ",
"                          . o & * , u a d f c J A T w.b a 0 * * o . .                               ",
"                          . & ; t 1.r.Z M ) u.u.e.u.w.v * j * * & .                                 ",
"                        .   > V u.C.{.y.i.i.u.u.i.y.i.Z u F i * $ .                                 ",
"                          .   t.$X#XA.p.i.a.p.s.B.y.a.a.r.y.z * & . .                               ",
"                            & g.@XV.g.p.g.B.G.G.B.B.p.p.V._.r * . .                                 ",
"                            & t.a.g.g.D.G.G.G.H.G.B.d.d.A./ y * $ #                                 ",
"                            ; H 6.V.k.j.P.P.H.G.P.D.l.d.8.a % * ;.N 4                               ",
"                            o : N.f.j.j.j.P.I.$X'.B.j.h.v t k : ; :.$ @                             ",
"                            o o * N.c.G.B.B.L.+XP.z.V.}.s t 6 & X n.;                               ",
"                              ; . p ( h.D.D.R.Y.c.D.].=X^ f r > 6   4                               ",
"                              K ; & * F.K.K.'.R.P.*X>X#Xc.Z.n.9.G X O                               ",
"                        O O + J.<.t ( L.-XI.|.[.[.%XU.K.{.K.L.K.2.O                                 ",
"                            2 Z.x.v.~.%X<XL.|..X[.XXR.|.;X@Xv.&XU.O                                 ",
"                              K b.~.=X3X>XT./. X XW..X+X1X2X:X;X`.                                  ",
"                            X 7 m.J.E.1X4X3X,X@X:X*X,X3X4X2X!.J.<                                   ",
"                              O O M.).].OX@X|.W.+X;X2X;XoX/.Q.k @                                   ",
"                                  2 L J.|./.^.^.^./.).E.E.S.  2 o                                   ",
"                                  . @   L !.(.(.(.).oX,.1 4 O   @                                   ",
"                                    .   2 2 4 7 O 2 2 O   O                                         ",
"                                        .   O O 2 X O O                                             ",
"                                                  .                                                 "
};
