/* XPM */
static char *result[] = {
/* columns rows colors chars-per-pixel */
"50 50 196 2 ",
"   c #010101",
".  c #0B0402",
"X  c #040904",
"o  c #0C0904",
"O  c #03030B",
"+  c #0A050A",
"@  c #030A0C",
"#  c #0C0A0D",
"$  c #130502",
"%  c #1B0600",
"&  c #130A03",
"*  c #1B0C02",
"=  c #120509",
"-  c #120A0A",
";  c #1B0B0C",
":  c #171101",
">  c #1B1106",
",  c #141409",
"<  c #1C130D",
"1  c #050511",
"2  c #0A0111",
"3  c #060917",
"4  c #0C0A14",
"5  c #0C031B",
"6  c #13131A",
"7  c #240700",
"8  c #230C03",
"9  c #260A07",
"0  c #210B0B",
"q  c #330D02",
"w  c #241203",
"e  c #2C1204",
"r  c #281A07",
"t  c #221109",
"y  c #2C150B",
"u  c #321502",
"i  c #3B1302",
"p  c #341A04",
"a  c #3C1A02",
"s  c #351B0B",
"d  c #3C1A09",
"f  c #290A13",
"g  c #300E12",
"h  c #231112",
"j  c #271319",
"k  c #25220A",
"l  c #392406",
"z  c #421E01",
"x  c #481B13",
"c  c #432302",
"v  c #4D2402",
"b  c #44220B",
"n  c #4D2309",
"m  c #4B2E08",
"M  c #562303",
"N  c #562D05",
"B  c #5D3305",
"V  c #4E3016",
"C  c #52371D",
"Z  c #692709",
"A  c #722C0A",
"S  c #6A3B08",
"D  c #763C0E",
"F  c #423B2B",
"G  c #48410F",
"H  c #72510D",
"J  c #634C16",
"K  c #794816",
"L  c #4E4122",
"P  c #524C2B",
"I  c #7B4A21",
"U  c #7F682B",
"Y  c #9F3B14",
"T  c #AC3B0F",
"R  c #BB3D08",
"E  c #8E3E26",
"W  c #884718",
"Q  c #A44E15",
"!  c #A6521D",
"~  c #B5671D",
"^  c #864E2A",
"/  c #855526",
"(  c #AA4520",
")  c #B95425",
"_  c #83762A",
"`  c #A56A22",
"'  c #A7762D",
"]  c #BD732A",
"[  c #A96836",
"{  c #AB7733",
"}  c #D74708",
"|  c #D15309",
" . c #CF4A10",
".. c #E94E05",
"X. c #E75A13",
"o. c #E9620E",
"O. c #F96B0D",
"+. c #EE6A1A",
"@. c #F57E17",
"#. c #F5751A",
"$. c #FB741A",
"%. c #F67B1F",
"&. c #FB7818",
"*. c #C07724",
"=. c #C16D3A",
"-. c #CC7E35",
";. c #D57633",
":. c #F66F21",
">. c #E87624",
",. c #FD7020",
"<. c #B68528",
"1. c #F8871B",
"2. c #D89238",
"3. c #E78F2E",
"4. c #F38722",
"5. c #FB8C21",
"6. c #EC9525",
"7. c #F89527",
"8. c #FE9B23",
"9. c #F59C2C",
"0. c #FC9C2C",
"q. c #FE8B32",
"w. c #EA9835",
"e. c #FC9831",
"r. c #DBAC3D",
"t. c #F5A727",
"y. c #F9A42D",
"u. c #F7B529",
"i. c #F4A331",
"p. c #FAA733",
"a. c #F4AB33",
"s. c #FCAB33",
"d. c #F8A83C",
"f. c #FBB135",
"g. c #F5BA37",
"h. c #FDB53C",
"j. c #FEB93D",
"k. c #F8C439",
"l. c #FDC03E",
"z. c #FEDB35",
"x. c #FBDA3F",
"c. c #ECE12C",
"v. c #F4E027",
"b. c #FBEE38",
"n. c #958D49",
"m. c #D59543",
"M. c #F89543",
"N. c #C4B74F",
"B. c #FCAA4A",
"V. c #E9B048",
"C. c #FDB247",
"Z. c #F5B847",
"A. c #FFBE43",
"S. c #E6BB50",
"D. c #CBB963",
"F. c #DAD555",
"G. c #EAC448",
"H. c #F9CD42",
"J. c #FAC748",
"K. c #F4C94A",
"L. c #FAD245",
"P. c #F8D34B",
"I. c #FCDC4A",
"U. c #FDD357",
"Y. c #FBDA52",
"T. c #F4D95A",
"R. c #F6E749",
"E. c #FCF34B",
"W. c #FEE358",
"Q. c #FCEC59",
"!. c #FDF352",
"~. c #FCFA5A",
"^. c #F3DA69",
"/. c #EEDA7A",
"(. c #FEDB77",
"). c #FAE566",
"_. c #F4E56B",
"`. c #F2F169",
"'. c #EFE574",
"]. c #FBE374",
"[. c #FAE87C",
"{. c #F9E984",
"}. c #FDEB96",
"|. c #FEF498",
" X c #F9EAA7",
".X c #FDF3A3",
"XX c #FDF2AE",
"oX c #FDEEB7",
"OX c #F9F6C5",
"+X c #FFF3CC",
"@X c #FFEDD8",
"#X c #FAF6D4",
"$X c #F9F9E7",
"%X c #FCFDE9",
"&X c #F3FEF3",
"*X c #FCFAF1",
/* pixels */
"                                                    .                                               ",
"                                                  . -                                               ",
"                                                                                                    ",
"                                                                                                    ",
"                                                                                                    ",
"                                                +   .                                               ",
"                                            . $ x   .                                               ",
"                                              $ +   .                                               ",
"                                            O O X   .                                               ",
"                                . . . $ X     - $                                                   ",
"                              . X & c T }  .| R i                                                   ",
"                              . E ..X.Z g A o.X..   X .                                             ",
"                                O X $ .   .   Z w                                                   ",
"                                X   .     . = O .                                                   ",
"                                      . .   .   .     .                                             ",
"                                          X   X   . .     .                                         ",
"                                    X . . X . . . . ( 5 . X     X X X .                             ",
"                                    . . . . . . + . +.+.Y a d A ) ! s X                             ",
"                                      . X o . $ . f O.@.$.,.%.1.4.%.:..                             ",
"                                  . X % @ + 9 8 X - >.5.8.8.5.5.&.:.,..                             ",
"                              . + i + . , ^ Z Q ;.o E &.1.@.#.#.w.5.=..                             ",
"                              . . % . $ + $ $ $ s X & &.9.q.W $ * D 7 .                             ",
"                              . + # $ $ & & # & * & - >.w.k X . . = +                               ",
"                                . . $ . & * * * * * - ] 7 ; $ & . . .                               ",
"                              . . . & & & * * w * w ; [ $ 0 & $ . . .                               ",
"                              X o & & , * > : * 8 7 h d 0 e & & $ . . .                             ",
"                            . . . 6 + n =.M.6.e.~ ; y > t e e - $ . .                               ",
"                            . . o 7 2.s.7.9.e.e.6.3.-.h * W 8 $ & . . X                             ",
"                            . O K B.0.r.[.e.0.0.0.9.~ e 8 i.[ , & & . .                             ",
"                          . # C A.V.C.C.a.s.j.s.9.w.*.u e g.B.; $ o . .                             ",
"                          X X / 0.y.y.a.A.h.j.y.0.y.2.8 l B.V $ * & . .                             ",
"                          . + y f.i.i.s.A.J.j.p.s.s.p.t.m.9 r * & . . .                             ",
"                            $ @ ` d.p.s.h.A.g.J.s.p.u.2.q r e w * & . .                             ",
"                            . . ; <.B.f.f.h.l.j.s.s.h.v d p p > & - . .                             ",
"                            . . & t <.j.h.h.g.j.j.u.{ b z u e > C y X .                             ",
"                            . . $ t w B Z.h.u.j.K.g.S c a a u y * l . .                             ",
"                            . + & 8 e s a ` J.g.Z.l.M v z a u w & $ .                               ",
"                            o 4 . * e d c n { k.J.J.I N z i a 0 h ; o O                             ",
"                          O j U X * e u a v ' H.k.H.S.v n c y y m k 4                               ",
"                          O X F $ > w a a N P.k.L.H.Y.K.S b f J G.G.# .                             ",
"                          O X .   2 0 * H ).L.z.U.L.P.(.c.U.I.(.Y.Y.^.+                             ",
"                              O N.Y.I.].z.T.].#X}.Y.Y.I.@Xx./. XXX$X_.,                             ",
"                              X n.W.#X}.oX#X%XOXOX].{.|.OX).OX X{.T._ O                             ",
"                            O O X ).Q.&X.X'.|.Q.+X+X*X&X*X%Xv.R.D., X                               ",
"                                . < _.~.|. XQ.R.R.Q.[.%X*X.X!.L     O                               ",
"                                O O . _.b.^.Q.Q.Q.Q.E.b.E.`.X 3                                     ",
"                                O   . 5 G F.E.E.!.!.~.F.P   . O .                                   ",
"                                            5 o - 2 O 4   O                                         ",
"                                      X     1 1 1 O 1 3 X                                           ",
"                                                .                                                   "
};
