/* XPM */
static char *result[] = {
/* columns rows colors chars-per-pixel */
"50 50 187 2 ",
"   c #010101",
".  c #0B0402",
"X  c #050904",
"o  c #0D0902",
"O  c #04040A",
"+  c #0B0409",
"@  c #010C0C",
"#  c #09090A",
"$  c #130403",
"%  c #1A0300",
"&  c #140902",
"*  c #1B0B02",
"=  c #13020A",
"-  c #150D0A",
";  c #1D090C",
":  c #1A1202",
">  c #1E130B",
",  c #050411",
"<  c #0D0515",
"1  c #040C15",
"2  c #03021C",
"3  c #0D091C",
"4  c #0F1311",
"5  c #1C1213",
"6  c #191418",
"7  c #230304",
"8  c #220D03",
"9  c #2A0D03",
"0  c #241103",
"q  c #2A1402",
"w  c #26120E",
"e  c #29140A",
"r  c #2A1B0A",
"t  c #311503",
"y  c #3B1501",
"u  c #341A03",
"i  c #3C1C04",
"p  c #32130B",
"a  c #35170B",
"s  c #3C1A0A",
"d  c #250F11",
"f  c #281415",
"g  c #351C12",
"h  c #382209",
"j  c #2A2210",
"k  c #260C25",
"l  c #421502",
"z  c #411B03",
"x  c #4E1E03",
"c  c #430C16",
"v  c #442002",
"b  c #452706",
"n  c #422409",
"m  c #562203",
"M  c #55250B",
"N  c #5E3F0F",
"B  c #442212",
"V  c #4C3C12",
"C  c #5D3214",
"Z  c #643706",
"A  c #6D2410",
"S  c #592A2C",
"D  c #53410C",
"F  c #764018",
"G  c #6E5318",
"H  c #544520",
"J  c #774239",
"K  c #8E370B",
"L  c #823211",
"P  c #B1561E",
"I  c #A15024",
"U  c #8A7827",
"Y  c #9B6B32",
"T  c #877D33",
"R  c #AB7826",
"E  c #A77A3A",
"W  c #C14D0D",
"Q  c #D65914",
"!  c #E05C0C",
"~  c #FE6308",
"^  c #F77109",
"/  c #FC6514",
"(  c #FA6D1B",
")  c #F47B15",
"_  c #F67A1B",
"`  c #D76F20",
"'  c #C67620",
"]  c #D36737",
"[  c #F86637",
"{  c #89833C",
"}  c #998039",
"|  c #B98E38",
" . c #B5AE2F",
".. c #A9A23F",
"X. c #B9A333",
"o. c #F38D1B",
"O. c #EF901F",
"+. c #F6931B",
"@. c #D88531",
"#. c #ED8523",
"$. c #FE8924",
"%. c #F68B28",
"&. c #EF9A2E",
"*. c #F59225",
"=. c #FB9325",
"-. c #FB942D",
";. c #F79D28",
":. c #FB9A2C",
">. c #E69637",
",. c #FE9030",
"<. c #FD9E32",
"1. c #DFAB35",
"2. c #FBA22B",
"3. c #FAA82D",
"4. c #F7B528",
"5. c #E7A134",
"6. c #FBA231",
"7. c #FEAA33",
"8. c #F7A738",
"9. c #FDAB39",
"0. c #ECB637",
"q. c #FEB236",
"w. c #FCB33C",
"e. c #F9BF3D",
"r. c #D6C63E",
"t. c #F7C229",
"y. c #E5C73B",
"u. c #FAC937",
"i. c #FAC53E",
"p. c #F5D537",
"a. c #EAE137",
"s. c #FCE43A",
"d. c #A49346",
"f. c #A79759",
"g. c #E79944",
"h. c #D8A243",
"j. c #F6A149",
"k. c #E6B244",
"l. c #FCBC42",
"z. c #F2B848",
"x. c #F6BC4C",
"c. c #F7C843",
"v. c #FCCB44",
"b. c #FDC74D",
"n. c #FECC4C",
"m. c #EFDB44",
"M. c #F8D649",
"N. c #FBCC53",
"B. c #FACA56",
"V. c #FCD453",
"C. c #FFD955",
"Z. c #FFDD5C",
"A. c #EEE24A",
"S. c #FAE34B",
"D. c #F5EC4D",
"F. c #F6E659",
"G. c #FFF457",
"H. c #FAF05E",
"J. c #ECDE6A",
"K. c #FDDD64",
"L. c #FBDB68",
"P. c #E8E962",
"I. c #F4E367",
"U. c #FFE467",
"Y. c #FDE56B",
"T. c #F7F464",
"R. c #FDF163",
"E. c #FBE275",
"W. c #FAE972",
"Q. c #F7E678",
"!. c #FCDE83",
"~. c #FDE687",
"^. c #FDE78C",
"/. c #FDEB8C",
"(. c #FDF188",
"). c #FBE390",
"_. c #FAEB9B",
"`. c #FAE9A8",
"'. c #FEF6B6",
"]. c #FDF6BC",
"[. c #FDF5C5",
"{. c #FCFBC5",
"}. c #FDF6DD",
"|. c #FAFDDB",
" X c #FDFCE2",
".X c #FAFCED",
"XX c #FAFCF4",
/* pixels */
"                                                                                                    ",
"                                                                                                    ",
"                                            X       .                                               ",
"                                                                                                    ",
"                                              O f + X                                               ",
"                                                O                                                   ",
"                                          X   +                                                     ",
"                                + X +   O   A 9 X                                                   ",
"                                8 L #       7 - $                                                   ",
"                                O X O       X O                                                     ",
"                                                                                                    ",
"                                                                                                    ",
"                                                                                                    ",
"                                                                                                    ",
"                                            O . o + O .                                             ",
"                                            . + L W 8 X   X                                         ",
"                                      .     O X c ~ [ Q l   O X X @ . 1                             ",
"                                          e . S o P ^ +.%./ / ! ! Q u 2                             ",
"                                        X + + & X < Q -.( ] s + = & < O                             ",
"                                . . O     . . .   . O + O .                                         ",
"                                  5 .   . . . . . o $ $ + + O                                       ",
"                                      % % % O , + . . o . . . . .                                   ",
"                                    X = = + % & - $ - . . . .                                       ",
"                                O X $ m ` ) _ _ _ n & & 1 4 X + . .                                 ",
"                            X O , K 7.8.) =.6.$._ w * o ; I J o   .                                 ",
"                              . Y l.K.O.-.3.:.$._ d 0 > N E 1 - .   .                               ",
"                          . O d $.o.7.7.7.q.;.$.#.; $ : 6 m a o . . .                               ",
"                            + d -.,.2.2.7.q.7.*.&.l > > 8 0 B o $ . . .                             ",
"                            . O ' +.-.:.2.w.l.<.$.g.t 8 * % - & & . .       O                       ",
"                            . $ @ i ;.*.6.6.9.9.;.<.+.>.C d * & & . . X                             ",
"                            O . & * q @.&.7.2.;.<.2.j.z 0 0 0 * & & . . .                           ",
"                            X . o . & 5 0 M >.2.6.3.F q q 0 0 * & $ . .                             ",
"                              . $ * * 8 8 r q >.9.>.p t t q 0 * * & . X                             ",
"                            X . o & * q q t t Z 7.R u y u q 0 0 * & . . .                           ",
"                              . & & 8 q q u y s 8.| i z i t q 0 * & . .                             ",
"                          O . & . * 0 q u i n s 5.z.x i h v h r v G u O   O                         ",
"                          X o + . * 0 q u s b x x.e.1.x g g a R 4.l.4.| + X O                       ",
"                              o o * 0 a u z z h.i.i.i.N.z.0.u.z.B./.x.i.b O                         ",
"                              o o * 0 9 q l k.t.b.i.c.v.c.v.b.u.b.).u.N.U , O                       ",
"                              X . * 8 s i R B.!.M.c.n.c.v.v.v.b.E.N.v.u.} 2                         ",
"                                # . e : l p.~.].L.F.K.K.Z.C.V.n.y.A.F.M.V < X                       ",
"                                r h ; h W.].{.}.^.U.Y.Y.U.V.s.E.Q.J.A.X.O                           ",
"                                H W.r.p.`.(.'.|.^.U.Y.^.Q.Q.].(.V X     X                           ",
"                                j a._. X].L.I.}.[.'.{. X.X].m.D 3                                   ",
"                                O ..S._. X.X|..X.X.X.XXXXXT.f.6 X                                   ",
"                                X , { D.T.`.{._.Q.D.T.Q.s.d.o O                                     ",
"                                X O O # T P.T.G.R.G.H. .k + X X O                                   ",
"                                        O   . 0 e * * . .                                           ",
"                                      O O # O   O   o     O                                         ",
"                                            O X X                                                   "
};
