/* XPM */
static char *result[] = {
/* columns rows colors chars-per-pixel */
"50 50 199 2 ",
"   c #010101",
".  c #0A0402",
"X  c #030901",
"o  c #0D0A02",
"O  c #04040A",
"+  c #0A030A",
"@  c #070A0C",
"#  c #0B0B0C",
"$  c #120402",
"%  c #1D0503",
"&  c #130A02",
"*  c #1C0C02",
"=  c #15060D",
"-  c #130B0B",
";  c #1C090A",
":  c #1F1405",
">  c #17110D",
",  c #040312",
"<  c #080914",
"1  c #08031B",
"2  c #150516",
"3  c #041112",
"4  c #1A1217",
"5  c #230606",
"6  c #220C02",
"7  c #2B0D03",
"8  c #2C0D08",
"9  c #241202",
"0  c #2B1403",
"q  c #251904",
"w  c #2D1902",
"e  c #24130B",
"r  c #2B140B",
"t  c #2E1A0C",
"y  c #311302",
"u  c #3B1507",
"i  c #351C05",
"p  c #3A1904",
"a  c #32140B",
"s  c #351B0E",
"d  c #290D17",
"f  c #291414",
"g  c #351E16",
"h  c #1F2209",
"j  c #3D2409",
"k  c #3D3816",
"l  c #120C23",
"z  c #101021",
"x  c #491B08",
"c  c #411F10",
"v  c #492201",
"b  c #572707",
"n  c #54230C",
"m  c #482410",
"M  c #532718",
"N  c #622008",
"B  c #653304",
"V  c #7C380F",
"C  c #65480F",
"Z  c #71621D",
"A  c #8B310E",
"S  c #994D19",
"D  c #83531F",
"F  c #985C1C",
"G  c #A85017",
"H  c #81651E",
"J  c #B26213",
"K  c #AD721C",
"L  c #A04822",
"P  c #B15A20",
"I  c #9B7A2E",
"U  c #956F32",
"Y  c #A46D28",
"T  c #B46C2D",
"R  c #A97728",
"E  c #B87329",
"W  c #A87130",
"Q  c #EA560C",
"!  c #F75F08",
"~  c #C3721F",
"^  c #D1721A",
"/  c #E66E08",
"(  c #FF6A06",
")  c #F9760F",
"_  c #ED6918",
"`  c #E8771A",
"'  c #F77716",
"]  c #DF7025",
"[  c #E26A28",
"{  c #F87F22",
"}  c #8A8531",
"|  c #9D8134",
" . c #A8823A",
".. c #AE9538",
"X. c #FD8017",
"o. c #F4811C",
"O. c #F49C1D",
"+. c #F99C1F",
"@. c #C7822A",
"#. c #E0812D",
"$. c #F38226",
"%. c #FB8524",
"&. c #F88727",
"*. c #F7912B",
"=. c #FD9E28",
"-. c #C9A42F",
";. c #DEA738",
":. c #F8A427",
">. c #FBAD2D",
",. c #E8B928",
"<. c #F7B82A",
"1. c #E9AD38",
"2. c #FBA735",
"3. c #F4AC34",
"4. c #FAAB34",
"5. c #FCAD3C",
"6. c #F6B634",
"7. c #FAB333",
"8. c #FCB33A",
"9. c #F6BD3B",
"0. c #FFBC3C",
"q. c #FEC434",
"w. c #FAC33E",
"e. c #FBCB3B",
"r. c #FAD23E",
"t. c #F3D83D",
"y. c #F5E732",
"u. c #FDF13E",
"i. c #BCA248",
"p. c #C49A43",
"a. c #DD9944",
"s. c #C8A757",
"d. c #C4B658",
"f. c #D6BE50",
"g. c #EDA645",
"h. c #EDB842",
"j. c #FEB545",
"k. c #F5BC45",
"l. c #FCBC41",
"z. c #FABA49",
"x. c #E8AE58",
"c. c #E5BF5B",
"v. c #FCC343",
"b. c #FCCB44",
"n. c #F7C34A",
"m. c #FDC34C",
"M. c #FACA4D",
"N. c #FADC43",
"B. c #FAD448",
"V. c #E4C956",
"C. c #FCC453",
"Z. c #FFCC52",
"A. c #F8C956",
"S. c #FECC5E",
"D. c #E1D454",
"F. c #FCD354",
"G. c #FCDA55",
"H. c #F0D15A",
"J. c #FFD758",
"K. c #FCDA5C",
"L. c #FFEB44",
"P. c #F7E34C",
"I. c #FDEB4C",
"U. c #FBF143",
"Y. c #FDF74B",
"T. c #FDF84B",
"R. c #FDE656",
"E. c #FCE25E",
"W. c #FCED5C",
"Q. c #F5F25A",
"!. c #EBDB62",
"~. c #F7D869",
"^. c #FDDA7B",
"/. c #FFE469",
"(. c #FCEC6B",
"). c #FEF266",
"_. c #FCE97A",
"`. c #FEF070",
"'. c #F8DC8B",
"]. c #FDDF9B",
"[. c #FDE580",
"{. c #F8ED8A",
"}. c #FCF187",
"|. c #FCED93",
" X c #FDE996",
".X c #FCF397",
"XX c #FBEDA5",
"oX c #FBE5AA",
"OX c #FAEFB4",
"+X c #FAEEBC",
"@X c #FDF4B6",
"#X c #FDF2C4",
"$X c #FFFCC5",
"%X c #F9F9D8",
"&X c #FFFEDB",
"*X c #FFF7ED",
"=X c #FBFCEA",
"-X c #FFF8F5",
";X c #FFF6FC",
/* pixels */
"                                                                                                    ",
"                                                                                                    ",
"                                                O                                                   ",
"                                            $ $                                                     ",
"                                            $ $                                                     ",
"                                    O                                                               ",
"                                  >                                                                 ",
"                                                                                                    ",
"                                                                                                    ",
"                                                                                                    ",
"                                                                                                    ",
"                                                                                                    ",
"                                            . X a A a $   3 O O % 5   #                             ",
"                                            O + $ n Q ! Q L . O   6 + O                             ",
"                                            O . O     5 $     . .                                   ",
"                                            O e . . O   .             O                             ",
"                                  O     . .   . +   . .                                             ",
"                                  O   .   .   . . . .   . .   .                                     ",
"                                  >   . . O 5 = = + . + . . . . .                                   ",
"                                O + + 7 T ) ( N @ . & $ $ . . . . .                                 ",
"                                  $ G _ S./ ` 8 * . & o o $ . . .                                   ",
"                            O   . [ A.6.=.%.) a & & & & S ] s o O                                   ",
"                              @ P *.O.:.O.=.{ V # & & & o M - & o .                                 ",
"                              O ' o.2.' *.:.+.$.4 * & - - $ & & . . .                               ",
"                            . % &.o.X.$.&.%.' &.^ n 6 5 * & & & o . .                               ",
"                            . O #.~ 0 = z : m *.$.J * e * * & & o . .                               ",
"                              + $   & & $ * % b o.q e : 9 6 6 * & & . . .                           ",
"                                . $ o & * 6 t e @.r 9 9 9 9 * * & o . .                             ",
"                            . . . . & * * 9 9 e b n 0 a 9 9 * * & & & .                             ",
"                              . . & & * 9 0 w 0 0 Y d a 0 0 6 9 - & & + .                           ",
"                              . . & * 9 9 0 w u i E B f w q e v F I c X o .                         ",
"                              . . o * 6 9 y i p p K 5.@.Y a.:.4.S.~.,.U O   O                       ",
"                              . . & * 9 0 y y y x g.2.>.:.z.^.c.[.h.:.1.p O o                       ",
"                                . & 6 6 6 8 u v a.4.>.4.j.m.3.4.S.C.8.5.R X                         ",
"                              . & & 6 6 t D k.6.7.8.7.7.l.Z.v.Z.n.Z.l.8.;..                         ",
"                              . . & * 0 a x.7.l.l.8.l.b.n.v.Z.M.9.7.j.0.1.o ,                       ",
"                                . o 6 y 7 Z F.oX<.l.l.k.l.v.9.0.n. X_.C.-.  O                       ",
"                            O . . & * 8 p m W ~.'.w.q.v.l.w.e.w.M.w.w.k.C ,                         ",
"                            O . O $ & g u Y H.OX.XK.J.F.b.v.S.e. .= 9 ..    O                       ",
"                            X H % . & 8 s.XX+XOXb.J./.E.B.b.q.J.& ; o ,   O                         ",
"                            o G.g l . p.~.XX@X$X_././.G.B.t.^.V.d $ .                               ",
"                            1 t.K.f.E.N.r.B.)..X$XXX{.{.@X#X^.| # .                                 ",
"                            o i. X].P.G.(.`.}.).@X=X$X*X%XOXr.j # O                                 ",
"                          O 4 h L.~.U.*X.X(.W.|.&X=X;X&XXXt.D.2 .                                   ",
"                            + O k ).U.#X;X-X-X=X=X=X.XP.I.(.- o +                                   ",
"                                O . d.y.W.W./.I.u.Y.u.R.!.$ O                                       ",
"                                  # 3 = } ).Q.Y.T.Q.Q.Z + #                                         ",
"                                        O   O = - O , <   O                                         ",
"                                      @ O . O O O O O O                                             ",
"                                                O                                                   "
};
