/* XPM */
static char *_b629d4708254261c80253db8353b938LJJ7ef7dtjXcPd07[] = {
/* columns rows colors chars-per-pixel */
"50 50 190 2 ",
"   c #010101",
".  c #0B0402",
"X  c #010B02",
"o  c #0C0A04",
"O  c #04040B",
"+  c #09050C",
"@  c #040A0B",
"#  c #0B0B0B",
"$  c #110501",
"%  c #1E0106",
"&  c #130A02",
"*  c #1B0C02",
"=  c #14060B",
"-  c #1A0008",
";  c #140C09",
":  c #1C0E0B",
">  c #1C1104",
",  c #181805",
"<  c #030612",
"1  c #0A0511",
"2  c #090812",
"3  c #0F0A1B",
"4  c #150912",
"5  c #131215",
"6  c #230D02",
"7  c #210808",
"8  c #241102",
"9  c #2C1402",
"0  c #25120A",
"q  c #2A100B",
"w  c #241B08",
"e  c #331500",
"r  c #3A1605",
"t  c #331B05",
"y  c #331209",
"u  c #39170A",
"i  c #3A1B0B",
"p  c #281811",
"a  c #341213",
"s  c #391D13",
"d  c #3E2203",
"f  c #3E230A",
"g  c #35340D",
"h  c #3A2714",
"j  c #292222",
"k  c #441D04",
"l  c #4F1906",
"z  c #452303",
"x  c #532802",
"c  c #4C390C",
"v  c #583000",
"b  c #5C3008",
"n  c #433918",
"m  c #6A2C0A",
"M  c #6D3618",
"N  c #7B3A13",
"B  c #5B411C",
"V  c #716341",
"C  c #A9561D",
"Z  c #BC5914",
"A  c #A86711",
"S  c #A0641B",
"D  c #B17B25",
"F  c #BE752B",
"G  c #AD7535",
"H  c #CF4B0E",
"J  c #E5680B",
"K  c #EB761E",
"L  c #F47516",
"P  c #FC7414",
"I  c #FF7F14",
"U  c #FA771F",
"Y  c #C94D21",
"T  c #C15222",
"R  c #C6692C",
"E  c #DE7021",
"W  c #D07031",
"Q  c #D3773A",
"!  c #EE7824",
"~  c #F17829",
"^  c #9B952B",
"/  c #AEA536",
"(  c #FC9917",
")  c #F2A01D",
"_  c #C6852A",
"`  c #D88F28",
"'  c #CE8432",
"]  c #FE8B25",
"[  c #FC9424",
"{  c #FC9A24",
"}  c #F2932A",
"|  c #F9942B",
" . c #F79D29",
".. c #FB9A2B",
"X. c #E29A33",
"o. c #F39337",
"O. c #FB9E30",
"+. c #F99A34",
"@. c #F29F38",
"#. c #F5A32D",
"$. c #F9A42C",
"%. c #F6AF29",
"&. c #F8B62E",
"*. c #ECA73B",
"=. c #F7A533",
"-. c #FAA231",
";. c #FDAD35",
":. c #F5A338",
">. c #F5AB3B",
",. c #FDAC3A",
"<. c #FBB135",
"1. c #FABC34",
"2. c #F3B33E",
"3. c #FDB23B",
"4. c #F7BA3D",
"5. c #FBBE3C",
"6. c #FCCE32",
"7. c #FCC53D",
"8. c #FCCC3D",
"9. c #F6D533",
"0. c #F3E321",
"q. c #EBE335",
"w. c #F8EE31",
"e. c #FDE73C",
"r. c #B3AD4F",
"t. c #C9A548",
"y. c #DBA748",
"u. c #C2BF41",
"i. c #C2B658",
"p. c #E8A44E",
"a. c #FCBD41",
"s. c #F6BF4A",
"d. c #F7B355",
"f. c #FCC344",
"g. c #F7CC44",
"h. c #FDCB43",
"j. c #F7C74C",
"k. c #EDDD49",
"l. c #F8D741",
"z. c #FAD24C",
"x. c #F8DB49",
"c. c #FADB4B",
"v. c #FBCE53",
"b. c #F5CF58",
"n. c #EBD053",
"m. c #FCD452",
"M. c #F6DA51",
"N. c #FCD45D",
"B. c #FAEB45",
"V. c #FCEC4C",
"C. c #FAF041",
"Z. c #EEEB59",
"A. c #FBEA54",
"S. c #FBE959",
"D. c #FCF756",
"F. c #FDF25B",
"G. c #FEFA58",
"H. c #FDDA67",
"J. c #FAD869",
"K. c #F4D473",
"L. c #F7E162",
"P. c #F9E466",
"I. c #F7EF66",
"U. c #FCEB65",
"Y. c #FFE76D",
"T. c #FAF164",
"R. c #F5E673",
"E. c #FDE47E",
"W. c #FFD685",
"Q. c #FCE886",
"!. c #FCEB8A",
"~. c #FEF48B",
"^. c #FFE792",
"/. c #FAEC97",
"(. c #FEEBA6",
"). c #FAEEAE",
"_. c #FCF4A5",
"`. c #F1EBBC",
"'. c #FCEEBA",
"]. c #FCF4B5",
"[. c #FCF2BA",
"{. c #FEF5C3",
"}. c #FBFACC",
"|. c #FCFAD5",
" X c #FFF8DA",
".X c #FEF4E3",
"XX c #F9F7E4",
"oX c #FDF6ED",
"OX c #FCFDED",
"+X c #FDFFF4",
/* pixels */
"                                                                                                    ",
"                                                                                                    ",
"                                            . $ X                                                   ",
"                                                                                                    ",
"                                              O                                                     ",
"                                                                                                    ",
"                                                                                                    ",
"                                                                                                    ",
"                                                                                                    ",
"                                                    . . . 4 .                                       ",
"                                                    l H Y -   O                                     ",
"                                                    $ O % a     o 5                                 ",
"                                                  O     O                                           ",
"                                                                      X                             ",
"                                              o                                                     ",
"                                              O                                                     ",
"                                      O O     O X         .                                         ",
"                                    @   @ O O . O                                                   ",
"                                  O = m R J L ~ u O                                                 ",
"                              # O T 1.g.) ] L U * . . O 6 p                                         ",
"                              O Z [ +.P [ ..L C @ . @ o $ $                                         ",
"                            O r I P K Q W ! P m + . . . . . . .                                     ",
"                            X : M 6 . $ < 4 N u ; o & . . .   .                                     ",
"                              . . . $ $ & $ & . $ $ . $ $ . .   .                                   ",
"                              . . . $ o & & & & & & & & o o X     X                                 ",
"                              . . o . & & & & * & & & & & & $ & =                                   ",
"                                . . & o & & & > > D * 3 @ d E ] [ [ F X O                           ",
"                            . . o & & * & * > * * A ] o.] | S.j.+.} ] _ . O                         ",
"                            . . . & & * * 6 > 8 6 S { [ { O.| [ ..} | [ ;   .                       ",
"                          X . $ & & * > 6 q 8 9 9 ' ..{ ..-.-.O.-. .=.{ > .                         ",
"                          . . . & & * * 7 6 9 y t @.#.#.3.3.$.:.+.>.2.*.= .                         ",
"                          . . & & * * q e p.y q ` -.=.=.=.=.$.( X.:.@.q X X .                       ",
"                            . & & 6 8 e t 7.%.>.#.-.,.;.;.;.d.f # 1 # $                             ",
"                          . . & * * 8 e 9 F <.%.;.<.<.3.&.=.9 > & . . .                             ",
"                          . . & * 8 9 9 i k 2.4.a.a.3.<.2.G p 6 & . .                               ",
"                            . & & 6 9 s z d >.j.J.4.1.7.a.v > % * . .                               ",
"                            $ ; & 0 9 e r x 5.K._.J.f.a.1.y.q 0 = . .                               ",
"                          O $ n : 6 9 s k G W./.(.N.m.g.7.7.s.k + &                                 ",
"                          O $ n * 8 9 d b P._.`.Q.m.N.N.h.h.8.H.8 .                                 ",
"                          O j . ; 8 9 i 6.m.b.Q./.H.N.N.m.h.v.6.c .                                 ",
"                        + o /   & * i t.9.z.z.z.!.Q.J.Y.^.(.z.v.B O                                 ",
"                        2 n n.; = 6 t.c.M.8.z.S.L.].{._.[.oXK.x.h                                   ",
"                        O , ).k.x.x.9.l.[.x.Y.].E./.|. X'.P.M.M.> X                                 ",
"                        O # u.!.F.P.[.0..X].~.}.}..XXXoX|.S.e.R.+                                   ",
"                    X   X   . i.B.U.|. XOXOXOX+XOX}.U.A.V.V.w.g                                     ",
"                            @   n I.q.F.A.C.C.F.T.A.V.U.A.D.V 4                                     ",
"                        O   + o # 1 w ^ Z.G.D.T.I.F.F.F.r., X 2                                     ",
"                                      X O . # # @ # O <   O                                         ",
"                                        O X   + 1 2 O O   O                                         ",
"                                                    1                                               "
};
