/* XPM */
static char *_953a6621f9b48eaf677974defae1dcbToPODPycZnx68Vkw[] = {
/* columns rows colors chars-per-pixel */
"50 50 194 2 ",
"   c #010101",
".  c #0C0501",
"X  c #030903",
"o  c #0D0A03",
"O  c #03020B",
"+  c #09030B",
"@  c #040B0B",
"#  c #0C0A09",
"$  c #120502",
"%  c #130A01",
"&  c #1B0C02",
"*  c #11060C",
"=  c #180909",
"-  c #121101",
";  c #1E1104",
":  c #1E1608",
">  c #020214",
",  c #090412",
"<  c #040911",
"1  c #0D0A12",
"2  c #0A0618",
"3  c #0E0E1A",
"4  c #130415",
"5  c #1C1010",
"6  c #1D151B",
"7  c #220D01",
"8  c #290907",
"9  c #350B02",
"0  c #241202",
"q  c #2B1402",
"w  c #2C1A05",
"e  c #251709",
"r  c #2A1B0C",
"t  c #331603",
"y  c #3E1303",
"u  c #341900",
"i  c #3C1902",
"p  c #39140A",
"a  c #280E14",
"s  c #231815",
"d  c #2D2A15",
"f  c #322010",
"g  c #37201F",
"h  c #3A3414",
"j  c #421C02",
"k  c #461D06",
"l  c #531E03",
"z  c #4D2204",
"x  c #5D3009",
"c  c #402313",
"v  c #433915",
"b  c #613100",
"n  c #652F13",
"m  c #643311",
"M  c #695619",
"N  c #71531C",
"B  c #71672D",
"V  c #823A19",
"C  c #B83C0F",
"Z  c #8D4502",
"A  c #824318",
"S  c #904413",
"D  c #8A5818",
"F  c #915B1D",
"G  c #AD4409",
"H  c #A55C18",
"J  c #AA621E",
"K  c #8B5520",
"L  c #B55320",
"P  c #916526",
"I  c #826C31",
"U  c #B86026",
"Y  c #B87020",
"T  c #B8772B",
"R  c #D15C13",
"E  c #F85A06",
"W  c #E65E12",
"Q  c #F35716",
"!  c #CE6717",
"~  c #D56F1B",
"^  c #F1600B",
"/  c #E56C1C",
"(  c #FD6413",
")  c #F36D14",
"_  c #E97317",
"`  c #FA7816",
"'  c #CB6E27",
"]  c #D26E27",
"[  c #D27626",
"{  c #E77C21",
"}  c #ED7F20",
"|  c #FA7123",
" . c #F27F21",
".. c #9D8D3A",
"X. c #999139",
"o. c #A8A33F",
"O. c #ED8307",
"+. c #F68A16",
"@. c #FBBE1B",
"#. c #CB8131",
"$. c #D49233",
"%. c #E8862B",
"&. c #F68425",
"*. c #F58B26",
"=. c #F3892B",
"-. c #F98C2B",
";. c #EE9D2E",
":. c #FA9425",
">. c #F59329",
",. c #FD9B29",
"<. c #FC8532",
"1. c #ED9C34",
"2. c #F89434",
"3. c #CAAC35",
"4. c #F7A529",
"5. c #FAA32A",
"6. c #F8B42A",
"7. c #EEA938",
"8. c #F5A530",
"9. c #FAA533",
"0. c #F7AD35",
"q. c #FBAA31",
"w. c #F9A93C",
"e. c #F6B737",
"r. c #FAB234",
"t. c #FEBF37",
"y. c #FAB139",
"u. c #FABC3B",
"i. c #FECD2C",
"p. c #FDCE35",
"a. c #F3C73E",
"s. c #FDCC3C",
"d. c #FCD83C",
"f. c #F2EB3C",
"g. c #E89840",
"h. c #C4A942",
"j. c #E9AF48",
"k. c #F2AB41",
"l. c #FDB745",
"z. c #DCC954",
"x. c #FBC544",
"c. c #FDCB45",
"v. c #F7C64E",
"b. c #FDCC4B",
"n. c #FAD246",
"m. c #FBDC44",
"M. c #F7D24A",
"N. c #FADE4C",
"B. c #F5CA58",
"V. c #E3DC5A",
"C. c #F6D452",
"Z. c #FBD451",
"A. c #FDDC53",
"S. c #FDDD5E",
"D. c #F9E643",
"F. c #FCE945",
"G. c #FBE64F",
"H. c #F7EF49",
"J. c #FCEC4A",
"K. c #FBE353",
"L. c #FDEA53",
"P. c #F5E85C",
"I. c #FEED5C",
"U. c #FDF455",
"Y. c #FEF55A",
"T. c #F7D560",
"R. c #FDDD62",
"E. c #FEDC6D",
"W. c #F6CC74",
"Q. c #FDDB77",
"!. c #FDE362",
"~. c #FBE667",
"^. c #F6E868",
"/. c #FCE672",
"(. c #FAEB75",
"). c #F9E879",
"_. c #FEE584",
"`. c #FDE389",
"'. c #F9E88A",
"]. c #F9EF88",
"[. c #FCE693",
"{. c #FDED9C",
"}. c #F9F89B",
"|. c #F4E4A4",
" X c #FCEEA8",
".X c #FFF4AF",
"XX c #F9EFB7",
"oX c #FFF6B6",
"OX c #FCF0C6",
"+X c #FEF1CA",
"@X c #FCF7D5",
"#X c #FEFBDA",
"$X c #FCF1E4",
"%X c #FDFDF9",
/* pixels */
"                                                                                                    ",
"                                                                                                    ",
"                                                                                                    ",
"                                                                                                    ",
"                                                                                                    ",
"                                                                                                    ",
"                                                                                                    ",
"                                                      .                                             ",
"                                                      s $ +                                         ",
"                                                                                                    ",
"                                                                                                    ",
"                                                                                                    ",
"                                                .                                                   ",
"                                              .                                                     ",
"                                      X @ 1 * # -     .                                             ",
"                                      > + X 8 G C .   .                                             ",
"                                +   + Z w.E Q _ G   .   .                                           ",
"                                $ 1 Q Q W E :.^ V # . .   .                                         ",
"                                # t , + @ 0 p w 2 . .   . .   .                                     ",
"                                    . . . $ $ . o . . . . . * + $ O .                               ",
"                                . . . o $ $ $ % $ % . . . $ # . 7 $ @                               ",
"                              . . . . o $ % % % % = - 3 # $ x =.) S . O                             ",
"                              . . . % % % % % & & u L R / ) <./ ( U . O                             ",
"                              . . . % % % & & & = ! | *.:.,.` | ` n O                               ",
"                              o . o % % & & & 7 & /  .0.5.*.&.+.[ . O                               ",
"                            . o . % % & & & 0 & 0 ] =.w.5.,.O.] 7 # .                               ",
"                        X   . . % & & s 8 t r 8 0 ~ } >.+.H s $ % o .                               ",
"                            . . % % 7 % e m i e 7 { -.-.A 5 7 $ * .                                 ",
"                          . . % % & ; q w l y t w &.2.' - 8 $ $ $ .                                 ",
"                            . . & & 7 r y g.i t 9 :.=.i 0 a & & % $ .                               ",
"                          . . % & & 0 a 7.k.i g D >.%.q q 0 7 & % . .                               ",
"                          O . % & 7 q d 2.,.1.#.2.;.Y u q 0 & & % .                                 ",
"                          . . % & 7 q t F 4.9.5.8.9.J j t q 0 & % . .                               ",
"                            . % & 7 q q 9 1.q.5.8.5.K i u t 0 & % o .                               ",
"                          . . % & q t i g T r.q.6.4.K z i u 0 & % .                                 ",
"                        X   o = % 7 t j k $.y.y.0.4.j.k z P N $ % . .                               ",
"                            % s & 0 t f b l.r.B.W.e.l.6.6.y.@.p o .                                 ",
"                          O # $ & 0 q z W.{. XXXC.b.t.u.u.u.u.3.4                                   ",
"                        O X M c 5 7 D n.|.B.B.`.Q.Z.x.v.u.u.s.a.5                                   ",
"                        O I [.p.v.a.s.x.c.x.x.Z.T.E.S.R.b.x.p.p.q                                   ",
"                      O   h.|.b.c.c.c.s.b.n.K.R./.oX[.`.{.).n.i.r                                   ",
"                        X 3.[.C.Z.Z.Z.d.E.R./.'./.+X@X@XOX`.d.M.=                                   ",
"                      O   ..T.M.N.R.P.~.^.~./.].(.+X@X[.C.L.F.z.,                                   ",
"                      O o h J.K.A.N._.f.$X.X].}.XX$X+X XZ.N.!.. X                                   ",
"                          . X.L.!.D.#X%X(.K.oX%X#X).K.F.^.P.o @                                     ",
"                            O v V.Y.I.H.L.L.L.H.G.F.J.K.m.6                                         ",
"                          . X @ + e o.P.Y.Y.U.Y.I.Y.^.B , X                                         ",
"                                      >   o % : o > 2 O                                             ",
"                                        2 +     X X < O                                             ",
"                                          .   X + O                                                 "
};
