/* XPM */
static char *b282189995174ac29a9b153bc8679233M6frepiegybjeYVM[] = {
/* columns rows colors chars-per-pixel */
"50 50 182 2 ",
"   c #010101",
".  c #0B0502",
"X  c #010804",
"o  c #0C0B03",
"O  c #04030B",
"+  c #0A040B",
"@  c #040B0B",
"#  c #0B0D0A",
"$  c #120601",
"%  c #130901",
"&  c #1B0C02",
"*  c #1B0807",
"=  c #0B1301",
"-  c #1D1003",
";  c #15120D",
":  c #040214",
">  c #0B0013",
",  c #07041B",
"<  c #100D10",
"1  c #250407",
"2  c #2D0605",
"3  c #220D01",
"4  c #2B0E03",
"5  c #340B01",
"6  c #3B0B03",
"7  c #241103",
"8  c #2B1303",
"9  c #231A05",
"0  c #25130C",
"q  c #29160B",
"w  c #341502",
"e  c #391700",
"r  c #351A02",
"t  c #240A15",
"y  c #241712",
"u  c #381211",
"i  c #342B17",
"p  c #3F2F17",
"a  c #071321",
"s  c #4C1103",
"d  c #441806",
"f  c #5C1406",
"g  c #5A270B",
"h  c #492418",
"j  c #5E3411",
"k  c #7D290F",
"l  c #6D370E",
"z  c #7E3908",
"x  c #762F19",
"c  c #773F1A",
"v  c #484216",
"b  c #4A471E",
"n  c #774A1C",
"m  c #6D5D1C",
"M  c #6F632B",
"N  c #932709",
"B  c #9A3B0B",
"V  c #8C3A10",
"C  c #953819",
"Z  c #B4210F",
"A  c #B73711",
"S  c #F23E0A",
"D  c #BA4B06",
"F  c #A44E19",
"G  c #B5401C",
"H  c #A75A16",
"J  c #BB581D",
"K  c #A46D1E",
"L  c #AA711F",
"P  c #885120",
"I  c #9E7727",
"U  c #8A713E",
"Y  c #B5772D",
"T  c #D55216",
"R  c #F04C02",
"E  c #F94D0A",
"W  c #EB510B",
"Q  c #FA5B08",
"!  c #FA5B13",
"~  c #FA5E1D",
"^  c #E66602",
"/  c #F26706",
"(  c #FA630E",
")  c #EC740B",
"_  c #EF6313",
"`  c #FE6818",
"'  c #F77017",
"]  c #DC6E29",
"[  c #F66920",
"{  c #F66628",
"}  c #948426",
"|  c #BA9236",
" . c #FF8419",
".. c #DB8225",
"X. c #F48725",
"o. c #F68C25",
"O. c #FC9425",
"+. c #FB9C24",
"@. c #FD932D",
"#. c #F39928",
"$. c #E79B30",
"%. c #EB9A35",
"&. c #FDA52A",
"*. c #EAA335",
"=. c #FDA230",
"-. c #F4A832",
";. c #FBAC35",
":. c #F7A838",
">. c #FFA83D",
",. c #FCB234",
"<. c #FAB23A",
"1. c #FFB83D",
"2. c #F9C53A",
"3. c #F4CC3C",
"4. c #FDCE3C",
"5. c #F7D535",
"6. c #FFD937",
"7. c #FAE33A",
"8. c #B88541",
"9. c #C48943",
"0. c #DBB55F",
"q. c #E5B349",
"w. c #FFBD41",
"e. c #F9B847",
"r. c #FBBD51",
"t. c #D5CB51",
"y. c #E6CE41",
"u. c #FBC344",
"i. c #FEC941",
"p. c #FEC44B",
"a. c #FDD246",
"s. c #F7D54A",
"d. c #FFDD49",
"f. c #EFC75F",
"g. c #F9C955",
"h. c #F5D151",
"j. c #FCD354",
"k. c #FED35B",
"l. c #F8D85A",
"z. c #FDDA5C",
"x. c #F7E042",
"c. c #F3E34D",
"v. c #F9EA49",
"b. c #FEF34D",
"n. c #EAE45C",
"m. c #FCE652",
"M. c #FDEC52",
"N. c #FFE65A",
"B. c #FFEA5A",
"V. c #FFF255",
"C. c #FDF951",
"Z. c #FED465",
"A. c #FEDE65",
"S. c #FED868",
"D. c #FAD573",
"F. c #FCDD7C",
"G. c #ECEC63",
"H. c #F5E364",
"J. c #FEE265",
"K. c #F5E369",
"L. c #FDE46A",
"P. c #F7F561",
"I. c #FDE473",
"U. c #FEE974",
"Y. c #FCE27A",
"T. c #F8DE89",
"R. c #F6E787",
"E. c #F4ED8C",
"W. c #FFF48B",
"Q. c #F4E793",
"!. c #FFE890",
"~. c #FFF294",
"^. c #FBECAF",
"/. c #FBF7A1",
"(. c #FAF6A9",
"). c #F8FAB2",
"_. c #FDEFC5",
"`. c #FFF6C4",
"'. c #FBF9CA",
"]. c #FEF7E0",
"[. c #F9FCF3",
"{. c #FBFBFC",
/* pixels */
"                                                                                                    ",
"                                                                                                    ",
"                                                                                                    ",
"                                                                                                    ",
"                                                                                                    ",
"                                                                                                    ",
"                                                                                                    ",
"                                                                                                    ",
"                                                                                                    ",
"                                                                                                    ",
"                                            O + .                                                   ",
"                                      .   X   G 1   X                                               ",
"                                        .   k S < +                                                 ",
"                                        X X Z E f                                                   ",
"                                        t 3 ` ! C           . . @ X                                 ",
"                                      O 1 x W ' N             + s                                   ",
"                                      * $ O . x O X .   O O $ $ W 2   +                             ",
"                                        . .   :     X     + + 5 E d . X                             ",
"                                      . .     . + X . h T Q { Q ~ 3   +                             ",
"                                    . . . . . . . @ A ^ ! Q X.R F                                   ",
"                                    . . $ . . . . B _ O.O.=./ D >                                   ",
"                              . . . . . % . o . . J (  .) ! z . . X                                 ",
"                            X   . . $ . $ % . % o V ` ` J 4 @ . O                                   ",
"                              . . . % X * # 0 * $ g / C $ . .                                       ",
"                            . . . $ % % s ] - % & r [ = % . .                                       ",
"                            . . . % $ 1 o u d * ; u H 2 % % . +     +                               ",
"                        . .   . % % & & % 9 7 & 7 l d 3 % % . o .                                   ",
"                          . . $ % % & & & 7 7 7 7 H ; ; & & % . . X                                 ",
"                          . . $ % & 3 3 3 7 w 7 q ..1 = & & % . . X                                 ",
"                          . o % $ & 7 8 8 4 8 q j X.y 0 - & % % . .                                 ",
"                        . . $ % & & 8 q 4 9.p.X.@.X.q q - & & % . .                                 ",
"                          . . & & & 8 6 y H o.#.O.@.8 q 7 3 % % .   X                               ",
"                          . % & * 8 8 4 6 $.+.@.+.+.e 4 4 3 & % . .                                 ",
"                          . $ ; 4 8.e.%.>.O.=.=.-.=.g r 8 8 - % . .                                 ",
"                          . o c q.Z.*.-.=.-.;.;.-.&.P r 8 8 - % $                                   ",
"                          . & ;.r.<.;.w.,.;.p.,.>.:.K r w 8 - % $ .                                 ",
"                        . . n ,.,.<.p.h.D.D.Y.F.<.<.L e w 4 * & $                                   ",
"                          . I 1.r.p.k.k.k.j.j.S.1.e.Y h r 3 & $ $                                   ",
"                          + l.g.w.2.1.j.A.Z.z.k.p.2.2.n u 3 & $ .                                   ",
"                            3.i.u.z.l.z.l.l.z.z.S._.Q.T.f.| p . . X X                               ",
"                            6.4.a.A.J.A.A.A.Y.!.Y.(.`.).'._.a.0.                                    ",
"                          : y.a.a.J.L.L.L.L.L.H.J.W.Y.3.a.g.j.k.+   X                               ",
"                      X   O U 4.s.K.H.K.L.L.I.U.I.Y.z.6.5.a.d.m O                                   ",
"                            % c.M.R.].E.E.R.I.x.l.`.`.^.Q.7.} O #                                   ",
"                            : v v.K.{.[./.~.{.{./.c.m.N.7.M : X                                     ",
"                            @ , i P.m.v.M.M.b.v.N.B.c.G.y @                                         ",
"                              O . O b t.C.V.V.M.C.n.b : . ,                                         ",
"                                      a : : X ; : O X o X                                           ",
"                                      > O   + >   o O O                                             ",
"                                                . + O                                               "
};
