/* XPM */
static char *d5a142a85b374db1f3754a0c7c84e271T6SKcOhaw8zfspGs[] = {
/* columns rows colors chars-per-pixel */
"50 50 162 2 ",
"   c None",
".  c #5C0F01",
"X  c #631502",
"o  c #641900",
"O  c #6C1C02",
"+  c #721E02",
"@  c #6F2306",
"#  c #742304",
"$  c #792704",
"%  c #752B02",
"&  c #7C2A05",
"*  c #73270A",
"=  c #77290A",
"-  c #7B2A0A",
";  c #7D300E",
":  c #753818",
">  c #7C3E1D",
",  c #812F05",
"<  c #812E0B",
"1  c #8A3906",
"2  c #84320C",
"3  c #8A370E",
"4  c #8D3B0E",
"5  c #813012",
"6  c #893612",
"7  c #863812",
"8  c #8C3A13",
"9  c #8E3B18",
"0  c #923D14",
"q  c #923F1A",
"w  c #93410C",
"e  c #9B470F",
"r  c #8F471C",
"t  c #8A481F",
"y  c #944315",
"u  c #994515",
"i  c #9C4A15",
"p  c #94431A",
"a  c #9A471A",
"s  c #96491D",
"d  c #9D4B1B",
"f  c #9F531D",
"g  c #A04E16",
"h  c #A14D1C",
"j  c #A45115",
"k  c #A5541D",
"l  c #A8551E",
"z  c #A7581B",
"x  c #AB591E",
"c  c #8E4D24",
"v  c #9A4720",
"b  c #944C23",
"n  c #9D4B22",
"m  c #914D2A",
"M  c #9C5425",
"N  c #975229",
"B  c #995328",
"V  c #975A2C",
"C  c #895232",
"Z  c #8E5D3A",
"A  c #925130",
"S  c #915A35",
"D  c #975C39",
"F  c #A14D21",
"G  c #A65521",
"H  c #A95621",
"J  c #A35924",
"K  c #AD5823",
"L  c #AD5B22",
"P  c #AC5B21",
"I  c #AB5C22",
"U  c #AC5C20",
"Y  c #AF5D22",
"T  c #AF5E23",
"R  c #AE5D22",
"E  c #AB5825",
"W  c #AD5824",
"Q  c #AC5A24",
"!  c #AC5C24",
"~  c #AE5C24",
"^  c #AF5D25",
"/  c #AB5922",
"(  c #A15128",
")  c #A25B2A",
"_  c #A15B2E",
"`  c #A1592A",
"'  c #AA5F28",
"]  c #AD5C2C",
"[  c #AF5E2E",
"{  c #AE5D2C",
"}  c #B15D22",
"|  c #B05E26",
" . c #B35F27",
".. c #B05E25",
"X. c #B15D24",
"o. c #B05F2F",
"O. c #B05E28",
"+. c #A25E30",
"@. c #AE5C30",
"#. c #B05F30",
"$. c #AF6127",
"%. c #A2612F",
"&. c #A8602C",
"*. c #AB632F",
"=. c #AF662C",
"-. c #AE682E",
";. c #B36226",
":. c #B26126",
">. c #B46326",
",. c #B76326",
"<. c #B46325",
"1. c #B16028",
"2. c #B36028",
"3. c #B1632A",
"4. c #B46329",
"5. c #B26429",
"6. c #B4622E",
"7. c #B5632D",
"8. c #B4662C",
"9. c #B7652E",
"0. c #B5672F",
"q. c #B5642D",
"w. c #B8662F",
"e. c #B9672C",
"r. c #B5682E",
"t. c #B86928",
"y. c #BC6A2B",
"u. c #A46431",
"i. c #A86530",
"p. c #A96B36",
"a. c #AF6835",
"s. c #AB6D3E",
"d. c #B76335",
"f. c #B96634",
"g. c #BA6736",
"h. c #B96635",
"j. c #BD6B39",
"k. c #835440",
"l. c #946C4F",
"z. c #9E7555",
"x. c #A1714D",
"c. c #987A62",
"v. c #A27F60",
"b. c #95837A",
"n. c #AB957C",
"m. c #9F9381",
"M. c #A49383",
"N. c #AD9D8C",
"B. c #A79E90",
"V. c #A9A091",
"C. c #A4A79F",
"Z. c #ADAC9D",
"A. c #B3A499",
"S. c #9EA5A0",
"D. c #9FA8A4",
"F. c #A5A4A2",
"G. c #AAACA5",
"H. c #A1ADAB",
"J. c #B6ACA0",
"K. c #A5B0AF",
"L. c #AAB5B4",
"P. c #C0A090",
/* pixels */
"                                                                                                    ",
"                                                                                                    ",
"                                      %.*.=.9.r.r.*.3 9.5.5.&.s.                                    ",
"                              p.9.,.R / k H H G k d + l k l x l U $.*.                              ",
"                          ` x l G H G k k l l k k i # / k H H k z / k i 5.A                         ",
"                      a.x u h K z H H k k k l h z u # k l k l h k k x k H u G                       ",
"                    K H k y E G H l / g k H l k k s & l H l x h l l H h H 6 9 k )                   ",
"                  l H l l 4 #.l G H / k k l H k k s , k / x l k H l H k H 8 y k k )                 ",
"                / G H G k 3 g./ k K / k k / k k k i 3 H l l H k l k H k l 0 q k k G J               ",
"              / K H G k k 2 f.l K l k k k K k k k a 0 l H H k k k l k h / a s k H H f '             ",
"            J H k / l k k $ 9.x k x k o.k W / k k a 9 H l l k k H k k k / v n l H H G E u.          ",
"          m H G i / k k k # w.K x h X.G h G l / k a p l H l k h k l k g H d ( H H l G k :.          ",
"          h H G i W k k k # 7.H / / / k k k k k k a d G H x H k k H k k / a G x k / k l x -.        ",
"        V h / G d Q x k G O / H / k / k h k x k k d 0 k / / l k H k H k / v { l k G k l k t.        ",
"        G h K l k i x H F O H H / k K k k / / G k d a l / / k k k H k k G r o.H k j k k k x         ",
"        E h W x x k / k k O l H l k K l k / l k k a Q k / K k k l k H G H 8 #.H k k / l k k -.      ",
"        k l H H H k k k k $ x x / } K R R R ....5.....,.:.>.>.,.<.<.<.} :./ 5.O.} R } R x K $.      ",
"      / } $.U ~ / z x k k k l k k h h g k k k k k k k k k G G k l l j k k k l l l l k H k E x k     ",
"      / U J G G k k k G G k G k G k x l z k k l k G G k e u a u 4 e g j x k u 1 u 9.H H H H z k     ",
"      / i s h h d p 8 6 3 6 F F h G H G h y u k k k k k h k k k k k k k k G k Q G H Q H G E G k     ",
"      c 3 8 a M d d d h v ; 0 < $ $ & & & , & & & # * & , & $ & & % & & - 5 n F d h d d p p 8       ",
"        G G k G G G k H G 6 G G G k d k h h s d s y q d d h G F k d f h - 6 h F 7 < 2 7 p v b       ",
"        Q G k / k k k l G #.h G H k k / G F h / k a n H G k h G k k G l 2 i g k k k G / G k b       ",
"        G k G H H k k l K g.x K H k h k G g k k k a F H H G k G G k H H 2 k k x x.P.G H k k         ",
"        G k k / H l k l H d.k / x h k / k g k / k p F E G h / k l l k l 8 i h _ L.L.N.U h /         ",
"        M k k i k H h l E G / l K k k k k i k K l p F k K h G k k k k k y < G v.L.K.S.B F H         ",
"        M k k u g k k l E y G H k k k k k g k l k q F / x h k l l l k g d @ z.b.D.K.M.J.M G         ",
"        %.k k i } k k l G < l H h k k l k h k / k u d.l k k k l k k k k h * A.m > k.- n.S B         ",
"        ) E G F y.h k x K + k K l k k x k X.k G h 0 j.l / h k k k k k k G @ B.D f G k Z.C N         ",
"        V J G h / k k l k + k k l l k K k k k G l 0 f.G K g k k k l k E G = z.G.l.Z M.F.r           ",
"          x h h y k k H h 2 G k k l k k k K k x k 0 9./ k k k k d / k E E 2 k c.C.D.B.> k           ",
"          x k x k k 7.x h 0 o.k K / k k / k / k G 3 o./ k x k k w H G E k y k k G G G k s           ",
"          H l l k y.k l g q E H k k H k l / k / G 2 { H h l l l G / G E n G k k k h i g s           ",
"          G j l H / k k d 0 0 G / x k k l / H / i 2 { H H H H k h h s d a W / ..,.>.,.>.>.          ",
"          l l } x / / h h u 1 / H k k H l H k k d < { h g i s h H O... ./ / K K K K K / } X.        ",
"        f.e.,.e.:.K / l k k k H k l l l k G k H k k k k j k k k k l H l H l H G G d d k h h         ",
"        H k k k k k k G / H W G 4 w h h k k G k k G G G h d d i d u u u d d a 6 < 5 < 3             ",
"        m h F h g h h h H G h G g h h g d d h d F F d a p y 8 6 2 & - # X 2 2 q d d d d             ",
"          : < < - < - - $ . # - & = & < < 3 6 8 9 * v b s F h d d p F g $ h p g a d u d             ",
"          m a g d d d d d O a d d d a d d d d h d = d d u s d h h d h F O a h 0 d d u b             ",
"            a d d d u h v X a d d d a g d h d d a - d a d h d d d d d d O a d u h d u t             ",
"            n d p d a v d X a h d d d d d d a d p - a d d d d d d d d 8 X i a u a d a               ",
"            d d a g d h p O a d a d d d d F p d p * b d d d d d h d n 6 # a a d a h h               ",
"            h d u h d d 7 @ a h d d d h d d u h q = p d d d d d d d d 2 - a d d d d h               ",
"                                                                                                    ",
"                                                                                                    ",
"                                                                                                    ",
"                                                                                                    ",
"                                                                                                    ",
"                                                                                                    "
};
