/* XPM */
static char *_70a1a6130b74393b2defbc5af84aed0LrMODSKg6Vd4CJxw[] = {
/* columns rows colors chars-per-pixel */
"50 50 44 1 ",
"  c black",
". c #040404",
"X c gray4",
"o c #0C0C0C",
"O c #131313",
"+ c #161616",
"@ c gray10",
"# c #1E1E1E",
"$ c #232323",
"% c #252525",
"& c #2A2A2A",
"* c #2C2C2C",
"= c gray20",
"- c #343434",
"; c #393939",
": c gray23",
"> c #414141",
", c gray27",
"< c #4E4E4E",
"1 c gray36",
"2 c gray39",
"3 c gray45",
"4 c gray48",
"5 c #7C7C7C",
"6 c #818181",
"7 c #868686",
"8 c #8B8B8B",
"9 c gray55",
"0 c gray57",
"q c gray61",
"w c #A5A5A5",
"e c gray75",
"r c #C1C1C1",
"t c #C5C5C5",
"y c gray79",
"u c gray80",
"i c LightGray",
"p c gray83",
"a c gray89",
"s c #E4E4E4",
"d c gray92",
"f c #EFEFEF",
"g c #F9F9F9",
"h c white",
/* pixels */
"                                                  ",
"                                                  ",
"                                                  ",
"                      =8re X                      ",
"                   t# hhha yhhr                   ",
"                 dhhp >    1shh                   ",
"                 hh$          . gh                ",
"               g                5hh               ",
"              hh+                =h               ",
"             fh4                    o             ",
"             Xh                    ah             ",
"                                   @hi            ",
"            hh                      hh            ",
"            ha                      6             ",
"           +hq                                    ",
"           +7*                      ,h=           ",
"                                    ;h-           ",
"           -h;                      ;h-           ",
"           -h;                      &r&           ",
"           -h;                                    ",
"           -h;                      ;s=           ",
"                                    ;h=           ",
"           $w%                      ;h-           ",
"           -h;                      ;h-           ",
"           -h;                                    ",
"           -h;                      o;X           ",
"                                    ;h-           ",
"                                    ;h-           ",
"           -h;                      ;h-           ",
"           -h;               %hhhh-               ",
"           -h;               $hhhh-               ",
"                                    ;h-           ",
"                                    ;h-           ",
"           -h;                      ;h-           ",
"           -h;                      o-o           ",
"           -h;                                    ",
"           %r&                      ;h-           ",
"                                    ;h-           ",
"           =d-                      ;h-           ",
"           -h;                      -a*           ",
"           -h;                                    ",
"           -h;                      &t&           ",
"                                    ;h-           ",
"           o;o                      ;h-           ",
"           =h;                      ;h-           ",
"           =hhh2 hhhh ehhh Ohhh  hhh9             ",
"           &rrr< tytu 0yty oytt  tty3             ",
"                                                  ",
"                                                  ",
"                                                  "
};
