/* XPM */
static char *_7b8cf70342d4bce984e447314342955pKwCShWW8fvtL7hm[] = {
/* columns rows colors chars-per-pixel */
"50 50 129 2 ",
"   c None",
".  c #514436",
"X  c #6C5C29",
"o  c #65553F",
"O  c #70622A",
"+  c #7C6C3A",
"@  c #5C4E41",
"#  c #5E5244",
"$  c #615446",
"%  c #655846",
"&  c #62554A",
"*  c #675A4B",
"=  c #6B5C4D",
"-  c #705E4E",
";  c #6C5E51",
":  c #6E624B",
">  c #756649",
",  c #6D6153",
"<  c #736455",
"1  c #756857",
"2  c #7A6B57",
"3  c #746659",
"4  c #76695B",
"5  c #7B6C5C",
"6  c #7C6E61",
"7  c #7D7163",
"8  c #7F7369",
"9  c #8E7D1F",
"0  c #927D30",
"q  c #806E5E",
"w  c #877357",
"e  c #83715E",
"r  c #816F60",
"t  c #837364",
"y  c #897663",
"u  c #867965",
"i  c #8A7966",
"p  c #847669",
"a  c #887768",
"s  c #85796B",
"d  c #8C7B6B",
"f  c #917E6C",
"g  c #877A70",
"h  c #8B7E71",
"j  c #A9992C",
"k  c #A69633",
"l  c #AD9E3E",
"z  c #C3B831",
"x  c #E9DD17",
"c  c #E5D71A",
"v  c #E0D81F",
"b  c #9C8C46",
"n  c #938051",
"m  c #A6984A",
"M  c #8F806D",
"N  c #9A8862",
"B  c #92816D",
"V  c #8E8174",
"C  c #8F8378",
"Z  c #938373",
"A  c #998776",
"S  c #9A8876",
"D  c #94867A",
"F  c #96897B",
"G  c #9B8B7B",
"H  c #9F907F",
"J  c #A18F7E",
"K  c #A1907E",
"L  c #958C82",
"P  c #9D8F81",
"I  c #9F9182",
"U  c #9E9389",
"Y  c #A08F81",
"T  c #A39383",
"R  c #A99686",
"E  c #A49689",
"W  c #A89789",
"Q  c #A4998D",
"!  c #A6998C",
"~  c #A89888",
"^  c #A9998B",
"/  c #A89A8A",
"(  c #AA9B8B",
")  c #AD9A8F",
"_  c #AB9C8F",
"`  c #AC9C8E",
"'  c #AD9E8F",
"]  c #AE9F8F",
"[  c #AB9B8C",
"{  c #A49990",
"}  c #A99C90",
"|  c #AB9D90",
" . c #A99C92",
".. c #A99D91",
"X. c #ADA091",
"o. c #AEA090",
"O. c #AEA191",
"+. c #AFA092",
"@. c #ADA194",
"#. c #AEA095",
"$. c #AEA296",
"%. c #AFA396",
"&. c #B0A093",
"*. c #B0A293",
"=. c #B2A293",
"-. c #B2A393",
";. c #B0A294",
":. c #B1A394",
">. c #B0A295",
",. c #B1A395",
"<. c #B2A294",
"1. c #B1A396",
"2. c #B2A697",
"3. c #B3A697",
"4. c #B1A393",
"5. c #B3A599",
"6. c #B3A59A",
"7. c #B3A69A",
"8. c #B4A598",
"9. c #B4A699",
"0. c #B6A89B",
"q. c #B7A99B",
"w. c #B6A89C",
"e. c #B8A99C",
"r. c #B9ADA1",
"t. c #B9AEA3",
"y. c #B8ACA0",
"u. c #C1B4A7",
"i. c #CBC4B9",
/* pixels */
"                                                                                                    ",
"                                                                                                    ",
"                                                                                                    ",
"                                          C E E Q { U g Q U C                                       ",
"                                      , F Q O.-.:.:.<.W ! =._ P                                     ",
"                                    , 5 P W ^ O.$.:.$.:.$.%.<.$.| L                                 ",
"                                  3 F P P ~ ~ G T ^ O.8.0.7.7.7.8.8.Q                               ",
"                                  < Z | ^ ^ R B B B Z B G W t.i.t.} W Z                             ",
"                                  3 t Z <.8.K d B A B B i d G [ / | R F                             ",
"                                  < 5 5 h e.B u B G G S B d B T J T J Y                             ",
"                                  s S V 6 I f 7 y d B B B e B G T T Z Z s                           ",
"                                t %.O.%.D Z B : j z l n u B B A N m b u 1                           ",
"                                t :.u.I A 7 d : 9 x c 0 i f B f k v j u 2                           ",
"                                a Z -.H G 2 f t o X O q d i e d w + > u p                           ",
"                              4 d M A H A 5 5 u B d 2 q 2 i Z Z 2 t 5 G %.F                         ",
"                              , e y M i t = < t B B 5 < < d B B 4 6 7 D %.d                         ",
"                              6 t 5 f i f h a d f f y t t f f f S ~ T S B e                         ",
"                              h t 5 f y t h G Z f f J T T B B f A B B B f 2                         ",
"                    a P W Q Q E 6 < d e r p p f f f Z A B f f f B B f M d -                         ",
"                    h [ G P ^ e.E < e t f a a P f f f f f f B f f f i t >                           ",
"                    t G B B f R W 6 - < 6 h T y.G Z V d d t 5 2 < 5 5 %                             ",
"                    t a f B f A G 6 6 5 < < 4 4 ; ; ; ; < = ; < < 5 ;                               ",
"                    5 7 7 5 t i d 4 r r f d t t a Z G G P A t d f d <                               ",
"                  4 T T / V < < < 4 r t L Y d 5 5 5 a T 7.G - 2 5 t -                               ",
"                  3 V d Z H ;   @ < 5 u h d 1 < 1 5 5 t 4 ; , < < 4 ;                               ",
"              7 V D I t 5 5         = 6 t r 1 < < < 7 5 = , M a i B 4                               ",
"            7 U T K H T 4             & < < = = = , < *     3 5 q t 3                               ",
"          p d =.S B B ^ D             @ 3 < 7 7 5 y A t 4   8 p 4 7 6 <                             ",
"        p ! t D Z d B R D             5 a p 4 t 5 y G a 7 7 P Z B ~ t 1 p                           ",
"          I t < r y i y <           s s D B 5 = < < < s D V M d B d t M s s &                       ",
"          , 7 < < r u a <         8 g F I Z 5     @ 4 d T V a t a i y F E 3 8 ;                     ",
"              = < r a T t         I T I 6 ;         & < p Q I A < 5 5 a 3 4 Z 6 D ;                 ",
"                = 4 7 D t       3 d d h 5 ;           3 5 D d t #     = * 4 V 3 Z 7 ;               ",
"                @ * 3 p 5 s     3 4 5 < f D         7 G a < 1 1 #         & < # 3 G p               ",
"                  5 y P a C 6   s 6 a t f K 5       h G a u p t :           # ; p t =               ",
"                  t Z A G 3 7 g s 4 7 y t <           5 y a 5 5               , 4 #                 ",
"                  < d Z / r s 6 C s V a 3               3 f s p                 .                   ",
"                    < h ! s C 6 U s D 6 &               * s V p                                     ",
"                    # s F , , , L | T V 5               5 G E { h                                   ",
"                      6 8 8 8 g d h U A a             < d P I d d g F C                             ",
"                      6 D =.[ J S G y y i *           < d e d G S J %.E Z                           ",
"                      < 5 u r 5 5 r 6 - =               : = 7 5 5 5 q a 6 ,                         ",
"                                                                                                    ",
"                                                                                                    ",
"                                                                                                    ",
"                                                                                                    ",
"                                                                                                    ",
"                                                                                                    ",
"                                                                                                    ",
"                                                                                                    "
};
