/* XPM */
static char *_0529ab2ce6943c4f65c37c5f2796dc7jjassOTlIjENKmcR[] = {
/* columns rows colors chars-per-pixel */
"50 50 19 1 ",
"  c None",
". c black",
"X c #002539",
"o c #60132E",
"O c #731B37",
"+ c #0B3341",
"@ c #0A3342",
"# c #7D8570",
"$ c #0B3542",
"% c #143648",
"& c #940022",
"* c #940023",
"= c #950023",
"- c #B20C30",
"; c #EE4042",
": c #95A6AC",
"> c #AFBBC1",
", c #D1D9DC",
"< c white",
/* pixels */
"                                                  ",
"                                                  ",
"                                                  ",
"                                                  ",
"                                                  ",
"                                                  ",
"                     ..         ##                ",
"                    ...        ###                ",
"                   ....       ####                ",
"                  .....      #####                ",
"                 ......     ######                ",
"                .......    #######                ",
"               ###################                ",
"             #####################                ",
"           #######################                ",
"          ########################                ",
"         #########################                ",
"        ##########################O--             ",
"        ##########################O---            ",
"     ;;;;;;;;;;;;;;;;;;;;;;;;;;;;;;;---           ",
"     ;;;;;;;;;;;;;;;;;;;;;;;;;;;;;;;----          ",
"     ;;;;;;;;;;;;;;;;;;;;;;;;;;;;;;;----          ",
"     ;;;;;;;;;;;;;;;;;;;;;;;;;;;;;;;----          ",
"     ;;;;;;;;;;;;;;;;;;;;;;;;;;;;;;;----          ",
"     ;;;;;;;;;;;;;;;;;;;;;;;;;;;;;;;---*          ",
"      ##<<<<<<<<<<<<<<<<<<<<######O---****        ",
"      ##<<XX<<<<<<<XX><<<<<<######O--******       ",
"      ##<<XX<<<<<<<XX%<<<<<<######o*********      ",
"      ##<<<<<<<<<<<<<<<<<<<<######o*********      ",
"      ##<<<<<<<<<<<<<<<<<<<<######o*********      ",
"      ###<<<<<<<<<<<<<<<<<<#######o**********     ",
"      ####<<<<<<<##<<<<<<<########o**********     ",
"      #####:<<<######<<<,#########o**********     ",
"      ############################o**********     ",
"      ############################o**********     ",
"      ############################o**********     ",
"      @###########################***********     ",
"       ###########################***********     ",
"       ##########################@***********     ",
"        ########################   **********     ",
"           .......       ######     *********     ",
"           .......       ######       *******     ",
"           .......       ######                   ",
"           .......       ######                   ",
"                                                  ",
"                                                  ",
"                                                  ",
"                                                  ",
"                                                  ",
"                                                  "
};
